SplineFontDB: 3.0
FontName: Chivo-Regular
FullName: Chivo
FamilyName: Chivo
Weight: Regular
Copyright: Copyright (c) 2011 by Omnibus-Type (www.omnibus-type.com), with Reserved Font Name "Chivo".
Version: 1.001
ItalicAngle: 0
UnderlinePosition: -50
UnderlineWidth: 50
Ascent: 800
Descent: 200
sfntRevision: 0x00010042
LayerCount: 2
Layer: 0 1 "Back"  1
Layer: 1 1 "Fore"  0
XUID: [1021 288 713564382 5974063]
FSType: 0
OS2Version: 3
OS2_WeightWidthSlopeOnly: 0
OS2_UseTypoMetrics: 1
CreationTime: 1311448440
ModificationTime: 1316794043
PfmFamily: 33
TTFWeight: 400
TTFWidth: 5
LineGap: 0
VLineGap: 0
Panose: 2 0 0 0 0 0 0 0 0 0
OS2TypoAscent: 137
OS2TypoAOffset: 1
OS2TypoDescent: 1
OS2TypoDOffset: 1
OS2TypoLinegap: 0
OS2WinAscent: 11
OS2WinAOffset: 1
OS2WinDescent: -51
OS2WinDOffset: 1
HheadAscent: 11
HheadAOffset: 1
HheadDescent: 51
HheadDOffset: 1
OS2SubXSize: 700
OS2SubYSize: 650
OS2SubXOff: 0
OS2SubYOff: 140
OS2SupXSize: 700
OS2SupYSize: 650
OS2SupXOff: 0
OS2SupYOff: 477
OS2StrikeYSize: 50
OS2StrikeYPos: 250
OS2FamilyClass: 2054
OS2Vendor: '    '
OS2CodePages: 00000001.00000000
OS2UnicodeRanges: 80000001.5000204a.00000000.00000000
Lookup: 258 0 0 "'kern' Horizontal Kerning in Latin lookup 0"  {"'kern' Horizontal Kerning in Latin lookup 0 per glyph data 0"  "'kern' Horizontal Kerning in Latin lookup 0 per glyph data 1"  "'kern' Horizontal Kerning in Latin lookup 0 kerning class 2"  } ['kern' ('latn' <'dflt' > ) ]
MarkAttachClasses: 1
DEI: 91125
KernClass2: 30+ 29 "'kern' Horizontal Kerning in Latin lookup 0 kerning class 2" 
 50 A Agrave Aacute Acircumflex Atilde Adieresis Aring
 5 D Eth
 43 E AE OE Egrave Eacute Ecircumflex Edieresis
 12 H M N Ntilde
 37 I Igrave Iacute Icircumflex Idieresis
 8 Lslash L
 53 O Q Oslash Ograve Oacute Ocircumflex Otilde Odieresis
 8 S Scaron
 37 U Ugrave Uacute Ucircumflex Udieresis
 18 Y Yacute Ydieresis
 8 Z Zcaron
 50 a agrave aacute acircumflex atilde adieresis aring
 10 c ccedilla
 15 colon semicolon

StartChar: .notdef
Encoding: 65536 -1 0
Width: 500
Flags: HW
LayerCount: 2
Fore
SplineSet
0 700 m 1,0,-1
 500 700 l 1,1,-1
 500 0 l 1,2,-1
 0 0 l 1,3,-1
 0 700 l 1,0,-1
420 650 m 1,4,-1
 80 650 l 1,5,-1
 250 395 l 1,6,-1
 420 650 l 1,4,-1
450 95 m 1,7,-1
 450 605 l 1,8,-1
 280 350 l 1,9,-1
 450 95 l 1,7,-1
420 50 m 1,10,-1
 250 305 l 1,11,-1
 80 50 l 1,12,-1
 420 50 l 1,10,-1
50 95 m 1,13,-1
 220 350 l 1,14,-1
 50 605 l 1,15,-1
 50 95 l 1,13,-1
EndSplineSet
EndChar

StartChar: Lslash
Encoding: 321 321 1
Width: 539
Flags: HW
LayerCount: 2
Fore
SplineSet
33 364 m 1,0,-1
 95 395 l 1,1,-1
 95 686 l 1,2,-1
 193 686 l 1,3,-1
 193 445 l 1,4,-1
 332 517 l 1,5,-1
 332 446 l 1,6,-1
 193 374 l 1,7,-1
 193 89 l 1,8,-1
 508 89 l 1,9,-1
 522 0 l 1,10,-1
 95 0 l 1,11,-1
 95 324 l 1,12,-1
 33 293 l 1,13,-1
 33 364 l 1,0,-1
EndSplineSet
EndChar

StartChar: lslash
Encoding: 322 322 2
Width: 298
Flags: HW
LayerCount: 2
Fore
SplineSet
20 351 m 1,0,-1
 102 392 l 1,1,-1
 102 720 l 1,2,-1
 196 720 l 1,3,-1
 196 440 l 1,4,-1
 278 481 l 1,5,-1
 278 411 l 1,6,-1
 196 370 l 1,7,-1
 196 0 l 1,8,-1
 102 0 l 1,9,-1
 102 322 l 1,10,-1
 20 281 l 1,11,-1
 20 351 l 1,0,-1
EndSplineSet
EndChar

StartChar: Thorn
Encoding: 222 222 3
Width: 633
Flags: HW
LayerCount: 2
Fore
SplineSet
190 162 m 1,0,-1
 190 0 l 1,1,-1
 92 0 l 1,2,-1
 92 686 l 1,3,-1
 190 686 l 1,4,-1
 190 562 l 1,5,-1
 388 562 l 2,6,7
 475.41509434 562 475.41509434 562 533 507.5 c 0,8,9
 593 450.714285714 593 450.714285714 593 362 c 256,10,11
 593 273.285714286 593 273.285714286 533 216.5 c 0,12,13
 475.41509434 162 475.41509434 162 388 162 c 2,14,-1
 190 162 l 1,0,-1
190 473 m 1,15,-1
 190 251 l 1,16,-1
 379 251 l 2,17,18
 425.8 251 425.8 251 461 284 c 0,19,20
 495 315.875 495 315.875 495 362 c 256,21,22
 495 407.580645161 495 407.580645161 461.5 440 c 0,23,24
 427.4 473 427.4 473 379 473 c 2,25,-1
 190 473 l 1,15,-1
EndSplineSet
EndChar

StartChar: thorn
Encoding: 254 254 4
Width: 583
Flags: HW
LayerCount: 2
Fore
SplineSet
177 65 m 1,0,-1
 177 -181 l 1,1,-1
 83 -181 l 1,2,-1
 83 720 l 1,3,-1
 177 720 l 1,4,-1
 177 455 l 1,5,6
 230.625 521 230.625 521 324 521 c 0,7,8
 415.292307692 521 415.292307692 521 470 457.5 c 0,9,10
 531 386.696428571 531 386.696428571 531 255 c 2,11,-1
 531 244 l 2,12,13
 531 122.740740741 531 122.740740741 473 54 c 0,14,15
 419 -10 419 -10 324.136363636 -10 c 128,-1,16
 229.272727273 -10 229.272727273 -10 177 65 c 1,0,-1
437 256 m 256,17,18
 437 406.020833333 437 406.020833333 360 436.5 c 0,19,20
 336 446 336 446 307 446 c 256,21,22
 243.681818182 446 243.681818182 446 212 405 c 0,23,24
 176 358.411764706 176 358.411764706 176 256 c 256,25,26
 176 104.551020408 176 104.551020408 253.5 74.5 c 0,27,28
 278 65 278 65 307 65 c 256,29,30
 369.318181818 65 369.318181818 65 401 106 c 0,31,32
 437 152.588235294 437 152.588235294 437 256 c 256,17,18
EndSplineSet
EndChar

StartChar: onehalf
Encoding: 189 189 5
Width: 726
Flags: HW
LayerCount: 2
Fore
SplineSet
178 0 m 1,0,-1
 123 0 l 1,1,-1
 543 686 l 1,2,-1
 595 686 l 1,3,-1
 178 0 l 1,0,-1
33 647 m 1,4,5
 89.0363128492 651.150837989 89.0363128492 651.150837989 165 684 c 1,6,-1
 186 684 l 1,7,-1
 186 359 l 1,8,-1
 267 359 l 1,9,-1
 267 310 l 1,10,-1
 33 310 l 1,11,-1
 33 359 l 1,12,-1
 132 359 l 1,13,-1
 132 612 l 1,14,-1
 33 612 l 1,15,-1
 33 647 l 1,4,5
437 13 m 2,16,17
 437 63.6470588235 437 63.6470588235 473.5 98 c 0,18,19
 482 106 482 106 488 111 c 2,20,-1
 598 193 l 2,21,22
 641 224.423076923 641 224.423076923 641 271 c 0,23,24
 641 308.592592593 641 308.592592593 605.5 327 c 0,25,26
 592 334 592 334 567 334 c 128,-1,27
 542 334 542 334 526 323.5 c 128,-1,28
 510 313 510 313 502.5 300 c 0,29,30
 491 280.066666667 491 280.066666667 491 261 c 2,31,-1
 491 247 l 1,32,-1
 438 247 l 1,33,34
 437 252 437 252 437 257.5 c 128,-1,35
 437 263 437 263 440 283.5 c 128,-1,36
 443 304 443 304 456.5 326 c 0,37,38
 491.477272727 383 491.477272727 383 571 383 c 0,39,40
 633.666666667 383 633.666666667 383 667.5 344.5 c 0,41,42
 695 313.206896552 695 313.206896552 695 277.103448276 c 128,-1,43
 695 241 695 241 682.5 214 c 128,-1,44
 670 187 670 187 627 155 c 2,45,-1
 522 75 l 2,46,47
 496 55.5 496 55.5 496 49 c 1,48,-1
 696 49 l 1,49,-1
 696 0 l 1,50,-1
 437 0 l 1,51,-1
 437 13 l 2,16,17
EndSplineSet
EndChar

StartChar: onequarter
Encoding: 188 188 6
Width: 702
Flags: HW
LayerCount: 2
Fore
SplineSet
198 0 m 1,0,-1
 143 0 l 1,1,-1
 563 686 l 1,2,-1
 615 686 l 1,3,-1
 198 0 l 1,0,-1
36 647 m 1,4,5
 92.0363128492 651.150837989 92.0363128492 651.150837989 168 684 c 1,6,-1
 189 684 l 1,7,-1
 189 359 l 1,8,-1
 270 359 l 1,9,-1
 270 310 l 1,10,-1
 36 310 l 1,11,-1
 36 359 l 1,12,-1
 135 359 l 1,13,-1
 135 612 l 1,14,-1
 36 612 l 1,15,-1
 36 647 l 1,4,5
402 141 m 1,16,17
 477.384615385 255.153846154 477.384615385 255.153846154 517 374 c 1,18,-1
 572 374 l 1,19,20
 554.702290076 309.998473282 554.702290076 309.998473282 524.351145038 254.499236641 c 0,21,22
 476.431372549 166.874509804 476.431372549 166.874509804 452 140 c 1,23,-1
 575 140 l 1,24,-1
 575 245 l 1,25,26
 593.333333333 281.666666667 593.333333333 281.666666667 604 319 c 1,27,-1
 629 319 l 1,28,-1
 629 140 l 1,29,-1
 675 140 l 1,30,-1
 675 91 l 1,31,-1
 629 91 l 1,32,-1
 629 0 l 1,33,-1
 575 0 l 1,34,-1
 575 91 l 1,35,-1
 402 91 l 1,36,-1
 402 141 l 1,16,17
EndSplineSet
EndChar

StartChar: onesuperior
Encoding: 185 185 7
Width: 334
Flags: HW
LayerCount: 2
Fore
SplineSet
50 759 m 1,0,1
 106.036312849 763.150837989 106.036312849 763.150837989 182 796 c 1,2,-1
 203 796 l 1,3,-1
 203 471 l 1,4,-1
 284 471 l 1,5,-1
 284 422 l 1,6,-1
 50 422 l 1,7,-1
 50 471 l 1,8,-1
 149 471 l 1,9,-1
 149 724 l 1,10,-1
 50 724 l 1,11,-1
 50 759 l 1,0,1
EndSplineSet
EndChar

StartChar: threequarters
Encoding: 190 190 8
Width: 698
Flags: HW
LayerCount: 2
Fore
SplineSet
198 0 m 1,0,-1
 143 0 l 1,1,-1
 563 686 l 1,2,-1
 615 686 l 1,3,-1
 198 0 l 1,0,-1
397 141 m 1,4,5
 472.384615385 255.153846154 472.384615385 255.153846154 512 374 c 1,6,-1
 567 374 l 1,7,8
 549.702290076 309.998473282 549.702290076 309.998473282 519.351145038 254.499236641 c 0,9,10
 471.431372549 166.874509804 471.431372549 166.874509804 447 140 c 1,11,-1
 570 140 l 1,12,-1
 570 245 l 1,13,14
 588.333333333 281.666666667 588.333333333 281.666666667 599 319 c 1,15,-1
 624 319 l 1,16,-1
 624 140 l 1,17,-1
 670 140 l 1,18,-1
 670 91 l 1,19,-1
 624 91 l 1,20,-1
 624 0 l 1,21,-1
 570 0 l 1,22,-1
 570 91 l 1,23,-1
 397 91 l 1,24,-1
 397 141 l 1,4,5
231 499 m 1,25,26
 300 473.7 300 473.7 300 405 c 0,27,28
 300 356 300 356 263 327 c 128,-1,29
 226 298 226 298 169 298 c 2,30,-1
 162 298 l 2,31,32
 99 298 99 298 65 328.5 c 128,-1,33
 31 359 31 359 31 410 c 2,34,-1
 31 414 l 1,35,-1
 85 414 l 1,36,-1
 85 408 l 2,37,38
 85 347 85 347 163 347 c 256,39,40
 201 347 201 347 223.5 362.5 c 128,-1,41
 246 378 246 378 246 411.5 c 128,-1,42
 246 445 246 445 220 458 c 128,-1,43
 194 471 194 471 161 471 c 2,44,-1
 120 471 l 1,45,-1
 120 520 l 1,46,-1
 162 520 l 2,47,48
 193 520 193 520 215 535 c 128,-1,49
 237 550 237 550 237 580.5 c 128,-1,50
 237 611 237 611 215.5 624 c 128,-1,51
 194 637 194 637 164.5 637 c 128,-1,52
 135 637 135 637 114.5 622.5 c 128,-1,53
 94 608 94 608 94 579 c 2,54,-1
 94 574 l 1,55,-1
 40 574 l 1,56,-1
 40 584 l 2,57,58
 40 631 40 631 75 658.5 c 128,-1,59
 110 686 110 686 164 686 c 2,60,-1
 169 686 l 2,61,62
 221 686 221 686 256 658.5 c 128,-1,63
 291 631 291 631 291 584 c 0,64,65
 291 526.692307692 291 526.692307692 231 499 c 1,25,26
EndSplineSet
EndChar

StartChar: threesuperior
Encoding: 179 179 9
Width: 363
Flags: HW
LayerCount: 2
Fore
SplineSet
242 613 m 1,0,1
 311 587.7 311 587.7 311 519 c 0,2,3
 311 470 311 470 274 441 c 128,-1,4
 237 412 237 412 180 412 c 2,5,-1
 173 412 l 2,6,7
 110 412 110 412 76 442.5 c 128,-1,8
 42 473 42 473 42 524 c 2,9,-1
 42 528 l 1,10,-1
 96 528 l 1,11,-1
 96 522 l 2,12,13
 96 461 96 461 174 461 c 256,14,15
 212 461 212 461 234.5 476.5 c 128,-1,16
 257 492 257 492 257 525.5 c 128,-1,17
 257 559 257 559 231 572 c 128,-1,18
 205 585 205 585 172 585 c 2,19,-1
 131 585 l 1,20,-1
 131 634 l 1,21,-1
 173 634 l 2,22,23
 204 634 204 634 226 649 c 128,-1,24
 248 664 248 664 248 694.5 c 128,-1,25
 248 725 248 725 226.5 738 c 128,-1,26
 205 751 205 751 175.5 751 c 128,-1,27
 146 751 146 751 125.5 736.5 c 128,-1,28
 105 722 105 722 105 693 c 2,29,-1
 105 688 l 1,30,-1
 51 688 l 1,31,-1
 51 698 l 2,32,33
 51 745 51 745 86 772.5 c 128,-1,34
 121 800 121 800 175 800 c 2,35,-1
 180 800 l 2,36,37
 232 800 232 800 267 772.5 c 128,-1,38
 302 745 302 745 302 698 c 0,39,40
 302 640.692307692 302 640.692307692 242 613 c 1,0,1
EndSplineSet
EndChar

StartChar: twosuperior
Encoding: 178 178 10
Width: 384
Flags: HW
LayerCount: 2
Fore
SplineSet
61 430 m 2,0,1
 61 480.647058824 61 480.647058824 97.5 515 c 0,2,3
 106 523 106 523 112 528 c 2,4,-1
 222 610 l 2,5,6
 265 641.423076923 265 641.423076923 265 688 c 0,7,8
 265 725.592592593 265 725.592592593 229.5 744 c 0,9,10
 216 751 216 751 191 751 c 128,-1,11
 166 751 166 751 150 740.5 c 128,-1,12
 134 730 134 730 126.5 717 c 0,13,14
 115 697.066666667 115 697.066666667 115 678 c 2,15,-1
 115 664 l 1,16,-1
 62 664 l 1,17,18
 61 669 61 669 61 674.5 c 128,-1,19
 61 680 61 680 64 700.5 c 128,-1,20
 67 721 67 721 80.5 743 c 0,21,22
 115.477272727 800 115.477272727 800 195 800 c 0,23,24
 257.666666667 800 257.666666667 800 291.5 761.5 c 0,25,26
 319 730.206896552 319 730.206896552 319 694.103448276 c 128,-1,27
 319 658 319 658 306.5 631 c 128,-1,28
 294 604 294 604 251 572 c 2,29,-1
 146 492 l 2,30,31
 120 472.5 120 472.5 120 466 c 1,32,-1
 320 466 l 1,33,-1
 320 417 l 1,34,-1
 61 417 l 1,35,-1
 61 430 l 2,0,1
EndSplineSet
EndChar

StartChar: brokenbar
Encoding: 166 166 11
Width: 269
Flags: HW
LayerCount: 2
Fore
SplineSet
90 266 m 1,0,-1
 179 266 l 1,1,-1
 179 0 l 1,2,-1
 90 0 l 1,3,-1
 90 266 l 1,0,-1
90 686 m 1,4,-1
 179 686 l 1,5,-1
 179 419 l 1,6,-1
 90 419 l 1,7,-1
 90 686 l 1,4,-1
EndSplineSet
EndChar

StartChar: minus
Encoding: 8722 8722 12
Width: 615
Flags: HW
LayerCount: 2
Fore
SplineSet
51 312 m 1,0,-1
 563 312 l 1,1,-1
 563 221 l 1,2,-1
 51 221 l 1,3,-1
 51 312 l 1,0,-1
EndSplineSet
EndChar

StartChar: multiply
Encoding: 215 215 13
Width: 615
Flags: HW
LayerCount: 2
Fore
SplineSet
99 407 m 1,0,-1
 154 466 l 1,1,-1
 308 314 l 1,2,-1
 461 466 l 1,3,-1
 516 407 l 1,4,-1
 363 255 l 1,5,-1
 516 104 l 1,6,7
 461 45 l 1,8,-1
 308 195 l 1,9,-1
 154 45 l 1,10,-1
 99 104 l 1,11,-1
 252 255 l 1,12,-1
 99 407 l 1,0,-1
EndSplineSet
EndChar

StartChar: exclam
Encoding: 33 33 15
Width: 269
Flags: HW
LayerCount: 2
Fore
SplineSet
85 111 m 1,0,-1
 186 111 l 1,1,-1
 186 0 l 1,2,-1
 85 0 l 1,3,-1
 85 111 l 1,0,-1
193 686 m 1,4,5
 189.741935484 663.193548387 189.741935484 663.193548387 168 174 c 1,6,-1
 102 174 l 1,7,8
 79.3023255814 662 79.3023255814 662 78 686 c 1,9,-1
 193 686 l 1,4,5
EndSplineSet
EndChar

StartChar: quotedbl
Encoding: 34 34 16
Width: 364
Flags: HW
LayerCount: 2
Fore
SplineSet
146 539 m 1,0,-1
 125 407 l 1,1,-1
 86 407 l 1,2,-1
 64 539 l 1,3,-1
 64 686 l 1,4,-1
 146 686 l 1,5,-1
 146 539 l 1,0,-1
300 539 m 1,6,7
 285.857142857 458.857142857 285.857142857 458.857142857 278 407 c 1,8,-1
 239 407 l 1,9,-1
 218 539 l 1,10,-1
 218 686 l 1,11,-1
 300 686 l 1,12,-1
 300 539 l 1,6,7
EndSplineSet
EndChar

StartChar: numbersign
Encoding: 35 35 17
Width: 643
Flags: HW
LayerCount: 2
Fore
SplineSet
68 486 m 1,0,-1
 206 486 l 1,1,-1
 253 696 l 1,2,-1
 329 696 l 1,3,-1
 282 486 l 1,4,-1
 432 486 l 1,5,-1
 479 696 l 1,6,-1
 555 696 l 1,7,-1
 508 486 l 1,8,-1
 613 486 l 1,9,-1
 613 410 l 1,10,-1
 491 410 l 1,11,-1
 457 255 l 1,12,-1
 573 255 l 1,13,-1
 573 179 l 1,14,-1
 440 179 l 1,15,-1
 400 0 l 1,16,-1
 324 0 l 1,17,-1
 364 179 l 1,18,-1
 214 179 l 1,19,-1
 174 0 l 1,20,-1
 98 0 l 1,21,-1
 138 179 l 1,22,-1
 28 179 l 1,23,-1
 28 255 l 1,24,-1
 155 255 l 1,25,-1
 189 410 l 1,26,-1
 68 410 l 1,27,-1
 68 486 l 1,0,-1
231 255 m 1,28,-1
 381 255 l 1,29,-1
 415 410 l 1,30,-1
 265 410 l 1,31,-1
 231 255 l 1,28,-1
EndSplineSet
EndChar

StartChar: dollar
Encoding: 36 36 18
Width: 546
Flags: HW
LayerCount: 2
Fore
SplineSet
268 105 m 0,0,1
 420 105 420 105 420 202 c 0,2,3
 420 241 420 241 392.5 261.5 c 128,-1,4
 365 282 365 282 323 295.5 c 128,-1,5
 281 309 281 309 233 320 c 128,-1,6
 185 331 185 331 143 351 c 128,-1,7
 101 371 101 371 73.5 405 c 128,-1,8
 46 439 46 439 46 489.5 c 128,-1,9
 46 540 46 540 61.5 571 c 128,-1,10
 77 602 77 602 103.5 623 c 0,11,12
 156.054205607 664.646728972 156.054205607 664.646728972 245 671 c 1,13,-1
 234 760 l 1,14,-1
 307 760 l 1,15,-1
 296 671 l 1,16,17
 385.472877358 666.739386792 385.472877358 666.739386792 439.5 624.5 c 0,18,19
 498 578.763636364 498 578.763636364 498 495 c 2,20,-1
 498 483 l 1,21,-1
 403 483 l 1,22,-1
 403 497 l 2,23,24
 403 541 403 541 366.5 563.5 c 128,-1,25
 330 586 330 586 274 586 c 128,-1,26
 218 586 218 586 179.5 566.5 c 128,-1,27
 141 547 141 547 141 505 c 0,28,29
 141 457.490566038 141 457.490566038 199.5 431 c 0,30,31
 226 419 226 419 259.5 410.5 c 128,-1,32
 293 402 293 402 327.5 392.5 c 128,-1,33
 362 383 362 383 395.5 370.5 c 128,-1,34
 429 358 429 358 455.5 338 c 0,35,36
 514 293.849056604 514 293.849056604 514 216 c 0,37,38
 514 118.74137931 514 118.74137931 452 68.5 c 0,39,40
 396.175346393 23.2627806976 396.175346393 23.2627806976 296 19 c 1,41,-1
 307 -66 l 1,42,-1
 234 -66 l 1,43,-1
 244 20 l 1,44,45
 92.6051660517 30.3223750419 92.6051660517 30.3223750419 47.5 126 c 0,46,47
 31 161 31 161 31 209 c 1,48,-1
 32 227 l 1,49,-1
 127 227 l 1,50,-1
 126 208 l 1,51,52
 126 155 126 155 166 130 c 128,-1,53
 206 105 206 105 268 105 c 0,0,1
EndSplineSet
EndChar

StartChar: percent
Encoding: 37 37 19
Width: 699
Flags: HW
LayerCount: 2
Fore
SplineSet
177 0 m 1,0,-1
 107 0 l 1,1,-1
 525 686 l 1,2,-1
 593 686 l 1,3,-1
 177 0 l 1,0,-1
279 457 m 2,4,5
 279 405.53125 279 405.53125 246 371.5 c 0,6,7
 211.575757576 336 211.575757576 336 158 336 c 2,8,-1
 151 336 l 2,9,10
 97.4242424242 336 97.4242424242 336 63 371.5 c 0,11,12
 30 405.53125 30 405.53125 30 457 c 2,13,-1
 30 564 l 2,14,15
 30 615.46875 30 615.46875 63 649.5 c 0,16,17
 97.4242424242 685 97.4242424242 685 151 685 c 2,18,-1
 158 685 l 2,19,20
 211.575757576 685 211.575757576 685 246 649.5 c 0,21,22
 279 615.46875 279 615.46875 279 564 c 2,23,-1
 279 457 l 2,4,5
215 571 m 2,24,25
 215 596 215 596 199.5 613 c 128,-1,26
 184 630 184 630 155 630 c 256,27,28
 126 630 126 630 110 613 c 128,-1,29
 94 596 94 596 94 571 c 2,30,-1
 94 450 l 2,31,32
 94 425 94 425 110 408 c 128,-1,33
 126 391 126 391 155 391 c 256,34,35
 184 391 184 391 199.5 408 c 128,-1,36
 215 425 215 425 215 450 c 2,37,-1
 215 571 l 2,24,25
669 120 m 2,38,39
 669 68.53125 669 68.53125 636 34.5 c 0,40,41
 601.575757576 -1 601.575757576 -1 548 -1 c 2,42,-1
 541 -1 l 2,43,44
 487.424242424 -1 487.424242424 -1 453 34.5 c 0,45,46
 420 68.53125 420 68.53125 420 120 c 2,47,-1
 420 227 l 2,48,49
 420 278.46875 420 278.46875 453 312.5 c 0,50,51
 487.424242424 348 487.424242424 348 541 348 c 2,52,-1
 548 348 l 2,53,54
 601.575757576 348 601.575757576 348 636 312.5 c 0,55,56
 669 278.46875 669 278.46875 669 227 c 2,57,-1
 669 120 l 2,38,39
605 234 m 2,58,59
 605 259 605 259 589.5 276 c 128,-1,60
 574 293 574 293 545 293 c 256,61,62
 516 293 516 293 500 276 c 128,-1,63
 484 259 484 259 484 234 c 2,64,-1
 484 113 l 2,65,66
 484 88 484 88 500 71 c 128,-1,67
 516 54 516 54 545 54 c 256,68,69
 574 54 574 54 589.5 71 c 128,-1,70
 605 88 605 88 605 113 c 2,71,-1
 605 234 l 2,58,59
EndSplineSet
EndChar

StartChar: ampersand
Encoding: 38 38 20
Width: 662
Flags: HW
LayerCount: 2
Fore
SplineSet
213 684 m 128,-1,1
 254 696 254 696 291.166666667 696 c 128,-1,2
 328.333333333 696 328.333333333 696 361 689 c 1,3,-1
 361 598 l 1,4,5
 331.75 607 331.75 607 304.375 607 c 128,-1,6
 277 607 277 607 252.5 600.5 c 128,-1,7
 228 594 228 594 210 581.5 c 0,8,9
 171 554.416666667 171 554.416666667 171 503 c 0,10,11
 171 457.571428571 171 457.571428571 208.5 426.5 c 0,12,13
 246.517241379 395 246.517241379 395 306 395 c 2,14,-1
 429 395 l 1,15,-1
 457 538 l 1,16,-1
 525 538 l 1,17,-1
 525 395 l 1,18,-1
 633 395 l 1,19,-1
 633 306 l 1,20,-1
 525 306 l 1,21,-1
 525 0 l 1,22,-1
 300 0 l 2,23,24
 196.787234043 0 196.787234043 0 130.5 46.5 c 0,25,26
 58 97.3582089552 58 97.3582089552 58 193 c 0,27,28
 58 315.75 58 315.75 184 354 c 1,29,-1
 187 356 l 1,30,31
 139 377 139 377 106.5 412.5 c 128,-1,32
 74 448 74 448 74 501 c 128,-1,33
 74 554 74 554 92.5 589 c 128,-1,34
 111 624 111 624 141.5 648 c 128,-1,0
 172 672 172 672 213 684 c 128,-1,1
313 306 m 2,35,36
 238 306 238 306 197 279 c 128,-1,37
 156 252 156 252 156 198 c 0,38,39
 156 142.11627907 156 142.11627907 202.5 114 c 0,40,41
 243.846153846 89 243.846153846 89 314 89 c 2,42,-1
 427 89 l 1,43,-1
 427 306 l 1,44,-1
 313 306 l 2,35,36
EndSplineSet
EndChar

StartChar: quotesingle
Encoding: 39 39 21
Width: 210
Flags: HW
LayerCount: 2
Fore
SplineSet
85 407 m 1,0,-1
 64 539 l 1,1,-1
 64 686 l 1,2,-1
 146 686 l 1,3,-1
 146 539 l 1,4,-1
 124 407 l 1,5,-1
 85 407 l 1,0,-1
EndSplineSet
EndChar

StartChar: parenleft
Encoding: 40 40 22
Width: 289
Flags: HW
LayerCount: 2
Fore
SplineSet
49 264 m 256,0,1
 49 381 49 381 90 489.5 c 128,-1,2
 131 598 131 598 208 686 c 1,3,-1
 260 686 l 1,4,5
 170.089269612 542.80883679 170.089269612 542.80883679 141 377 c 0,6,7
 131 320 131 320 131 264.5 c 128,-1,8
 131 209 131 209 141 152 c 128,-1,9
 151 95 151 95 168 41 c 0,10,11
 200.50343879 -62.2462173315 200.50343879 -62.2462173315 260 -157 c 1,12,-1
 208 -157 l 1,13,14
 131 -69 131 -69 90 39 c 128,-1,15
 49 147 49 147 49 264 c 256,0,1
EndSplineSet
EndChar

StartChar: parenright
Encoding: 41 41 23
Width: 288
Flags: HW
LayerCount: 2
Fore
SplineSet
199 489.5 m 128,-1,1
 240 381 240 381 240 264.5 c 128,-1,2
 240 148 240 148 199 39.5 c 128,-1,3
 158 -69 158 -69 81 -157 c 1,4,-1
 29 -157 l 1,5,6
 117.522993688 -16.0189359784 117.522993688 -16.0189359784 147 152 c 0,7,8
 157 209 157 209 157 264.5 c 128,-1,9
 157 320 157 320 147 377 c 128,-1,10
 137 434 137 434 120 488 c 0,11,12
 86.4910591472 594.440165062 86.4910591472 594.440165062 29 686 c 1,13,-1
 81 686 l 1,14,0
 158 598 158 598 199 489.5 c 128,-1,1
EndSplineSet
EndChar

StartChar: asterisk
Encoding: 42 42 24
Width: 468
Flags: HW
LayerCount: 2
Fore
SplineSet
275 468 m 1,0,-1
 384 343 l 1,1,-1
 320 294 l 1,2,-1
 232 438 l 1,3,-1
 145 296 l 1,4,-1
 81 344 l 1,5,-1
 192 469 l 1,6,-1
 29 509 l 1,7,-1
 54 586 l 1,8,-1
 209 520 l 1,9,-1
 196 686 l 1,10,-1
 275 686 l 1,11,-1
 259 519 l 1,12,-1
 417 584 l 1,13,-1
 440 506 l 1,14,-1
 275 468 l 1,0,-1
EndSplineSet
EndChar

StartChar: plus
Encoding: 43 43 25
Width: 615
Flags: HW
LayerCount: 2
Fore
SplineSet
348 297 m 1,0,-1
 563 297 l 1,1,-1
 563 213 l 1,2,-1
 348 213 l 1,3,-1
 348 0 l 1,4,-1
 265 0 l 1,5,-1
 265 213 l 1,6,-1
 51 213 l 1,7,-1
 51 297 l 1,8,-1
 265 297 l 1,9,-1
 265 511 l 1,10,-1
 348 511 l 1,11,-1
 348 297 l 1,0,-1
EndSplineSet
EndChar

StartChar: comma
Encoding: 44 44 26
Width: 238
Flags: HW
LayerCount: 2
Fore
SplineSet
83 -124 m 1,0,-1
 110 0 l 1,1,-1
 69 0 l 1,2,-1
 69 111 l 1,3,-1
 170 111 l 1,4,-1
 170 26 l 1,5,-1
 135 -124 l 1,6,-1
 83 -124 l 1,0,-1
EndSplineSet
EndChar

StartChar: hyphen
Encoding: 45 45 27
Width: 391
Flags: HW
LayerCount: 2
Fore
SplineSet
69 319 m 1,0,-1
 322 319 l 1,1,-1
 322 221 l 1,2,-1
 69 221 l 1,3,-1
 69 319 l 1,0,-1
EndSplineSet
EndChar

StartChar: period
Encoding: 46 46 28
Width: 239
Flags: HW
LayerCount: 2
Fore
SplineSet
69 111 m 1,0,-1
 170 111 l 1,1,-1
 170 0 l 1,2,-1
 69 0 l 1,3,-1
 69 111 l 1,0,-1
EndSplineSet
EndChar

StartChar: slash
Encoding: 47 47 29
Width: 600
Flags: HW
LayerCount: 2
Fore
SplineSet
96 -171 m 1,0,-1
 15 -171 l 1,1,-1
 505 686 l 1,2,-1
 585 686 l 1,3,-1
 96 -171 l 1,0,-1
EndSplineSet
EndChar

StartChar: zero
Encoding: 48 48 30
Width: 615
Flags: HW
LayerCount: 2
Fore
SplineSet
543 221 m 2,0,1
 543 121 543 121 477 55 c 0,2,3
 412 -10 412 -10 313 -10 c 2,4,-1
 300 -10 l 2,5,6
 200.451612903 -10 200.451612903 -10 136.5 55 c 0,7,8
 71 121.573770492 71 121.573770492 71 221 c 2,9,-1
 71 464 l 2,10,11
 71 565 71 565 136.5 630.5 c 128,-1,12
 202 696 202 696 300 696 c 2,13,-1
 313 696 l 2,14,15
 410.426229508 696 410.426229508 696 477 630.5 c 0,16,17
 543 565.564516129 543 565.564516129 543 464 c 2,18,-1
 543 221 l 2,0,1
445 472 m 2,19,20
 445 529 445 529 406 568 c 128,-1,21
 367 607 367 607 307 607 c 256,22,23
 247.583333333 607 247.583333333 607 207.5 568 c 0,24,25
 169 530.540540541 169 530.540540541 169 472 c 2,26,-1
 169 214 l 2,27,28
 169 155.459459459 169 155.459459459 207.5 118 c 0,29,30
 247.583333333 79 247.583333333 79 307 79 c 256,31,32
 367 79 367 79 406 118 c 128,-1,33
 445 157 445 157 445 214 c 2,34,-1
 445 472 l 2,19,20
EndSplineSet
EndChar

StartChar: one
Encoding: 49 49 31
Width: 615
Flags: HW
LayerCount: 2
Fore
SplineSet
97 619 m 1,0,1
 213.593950504 630.897341888 213.593950504 630.897341888 339 686 c 1,2,-1
 377 686 l 1,3,-1
 377 89 l 1,4,-1
 557 89 l 1,5,-1
 557 0 l 1,6,-1
 99 0 l 1,7,-1
 99 89 l 1,8,-1
 279 89 l 1,9,-1
 279 555 l 1,10,-1
 97 555 l 1,11,-1
 97 619 l 1,0,1
EndSplineSet
EndChar

StartChar: two
Encoding: 50 50 32
Width: 615
Flags: HW
LayerCount: 2
Fore
SplineSet
70 24 m 2,0,1
 70 87.1379310345 70 87.1379310345 105.5 141 c 0,2,3
 128.515873016 175.920634921 128.515873016 175.920634921 163 201 c 2,4,-1
 362 351 l 1,5,6
 427.652892562 402.975206612 427.652892562 402.975206612 437 457.5 c 0,7,8
 440 475 440 475 440 490.5 c 128,-1,9
 440 506 440 506 435 525.5 c 128,-1,10
 430 545 430 545 415.5 563 c 0,11,12
 380.055555556 607 380.055555556 607 311 607 c 0,13,14
 225.166666667 607 225.166666667 607 189 545 c 0,15,16
 168 509 168 509 168 475 c 2,17,-1
 168 461 l 2,18,19
 168 455 168 455 169 449 c 1,20,-1
 71 449 l 1,21,22
 70 456 70 456 70 459 c 2,23,-1
 70 467 l 2,24,25
 70 532.34375 70 532.34375 105 592.5 c 0,26,27
 140.282403433 653.141630901 140.282403433 653.141630901 215.5 681 c 0,28,29
 256 696 256 696 316 696 c 128,-1,30
 376 696 376 696 419 676 c 128,-1,31
 462 656 462 656 488.5 626 c 0,32,33
 538 569.962264151 538 569.962264151 538 495 c 0,34,35
 538 432 538 432 520 398 c 0,36,37
 487.45974026 336.535064935 487.45974026 336.535064935 416 282 c 2,38,-1
 225 136 l 1,39,40
 200.424657534 118.98630137 200.424657534 118.98630137 188.712328767 106.493150685 c 128,-1,41
 177 94 177 94 177 89 c 1,42,-1
 541 89 l 1,43,-1
 541 0 l 1,44,-1
 70 0 l 1,45,-1
 70 24 l 2,0,1
EndSplineSet
EndChar

StartChar: three
Encoding: 51 51 33
Width: 615
Flags: HW
LayerCount: 2
Fore
SplineSet
156 191 m 2,0,1
 156 136 156 136 193 107.5 c 128,-1,2
 230 79 230 79 298.5 79 c 128,-1,3
 367 79 367 79 408 107 c 128,-1,4
 449 135 449 135 449 194 c 0,5,6
 449 253.523809524 449 253.523809524 402 281.5 c 0,7,8
 364.2 304 364.2 304 295 304 c 2,9,-1
 220 304 l 1,10,-1
 220 394 l 1,11,-1
 297 394 l 2,12,13
 389 394 389 394 422 454 c 0,14,15
 433 474 433 474 433 502 c 128,-1,16
 433 530 433 530 422 550 c 128,-1,17
 411 570 411 570 392.5 583 c 0,18,19
 358.346153846 607 358.346153846 607 299 607 c 256,20,21
 212 607 212 607 182 547 c 0,22,23
 172 527 172 527 172 501 c 2,24,-1
 172 492 l 1,25,-1
 74 492 l 1,26,-1
 74 510 l 2,27,28
 74 594.245901639 74 594.245901639 138.5 645 c 0,29,30
 203.3125 696 203.3125 696 299 696 c 2,31,-1
 308 696 l 2,32,33
 405.163265306 696 405.163265306 696 467 645.5 c 0,34,35
 531 593.233333333 531 593.233333333 531 510 c 0,36,37
 531 449 531 449 500 413.5 c 128,-1,38
 469 378 469 378 422 356 c 1,39,-1
 423 353 l 1,40,41
 477 336 477 336 512 294.5 c 128,-1,42
 547 253 547 253 547 184 c 0,43,44
 547 97.6875 547 97.6875 479 43.5 c 0,45,46
 411.862745098 -10 411.862745098 -10 308 -10 c 2,47,-1
 296 -10 l 2,48,49
 183.888888889 -10 183.888888889 -10 119.5 47 c 0,50,51
 58 101.442622951 58 101.442622951 58 194 c 2,52,-1
 58 202 l 1,53,-1
 156 202 l 1,54,-1
 156 191 l 2,0,1
EndSplineSet
EndChar

StartChar: four
Encoding: 52 52 34
Width: 615
Flags: HW
LayerCount: 2
Fore
SplineSet
50 259 m 1,0,1
 185.983193277 462.974789916 185.983193277 462.974789916 263 696 c 1,2,-1
 368 696 l 1,3,4
 334.060686016 572.746701847 334.060686016 572.746701847 255 429 c 0,5,6
 193.093023256 316.441860465 193.093023256 316.441860465 143 258 c 1,7,-1
 373 258 l 1,8,-1
 373 457 l 1,9,10
 408.147308782 525.444759207 408.147308782 525.444759207 427 594 c 1,11,-1
 471 594 l 1,12,-1
 471 258 l 1,13,-1
 558 258 l 1,14,-1
 558 169 l 1,15,-1
 471 169 l 1,16,-1
 471 0 l 1,17,-1
 373 0 l 1,18,-1
 373 169 l 1,19,-1
 50 169 l 1,20,-1
 50 259 l 1,0,1
EndSplineSet
EndChar

StartChar: five
Encoding: 53 53 35
Width: 615
Flags: HW
LayerCount: 2
Fore
SplineSet
190 396 m 1,0,1
 254.304347826 447 254.304347826 447 319.652173913 447 c 128,-1,2
 385 447 385 447 426 428 c 128,-1,3
 467 409 467 409 493.5 378 c 0,4,5
 545 317.754716981 545 317.754716981 545 222 c 0,6,7
 545 119 545 119 480.5 54.5 c 128,-1,8
 416 -10 416 -10 308 -10 c 256,9,10
 202 -10 202 -10 136.5 55.5 c 0,11,12
 73.0217391304 118.97826087 73.0217391304 118.97826087 71 214 c 1,13,-1
 169 214 l 1,14,15
 170.939748201 153.867805755 170.939748201 153.867805755 211.5 115.5 c 0,16,17
 250.085714286 79 250.085714286 79 308 79 c 0,18,19
 368.472222222 79 368.472222222 79 406.5 116 c 0,20,21
 447 155.405405405 447 155.405405405 447 225 c 0,22,23
 447 284.472222222 447 284.472222222 410 322.5 c 0,24,25
 370.594594595 363 370.594594595 363 312 363 c 0,26,27
 226.125 363 226.125 363 183 294 c 1,28,-1
 95 307 l 1,29,-1
 123 686 l 1,30,-1
 509 686 l 1,31,-1
 509 597 l 1,32,-1
 205 597 l 1,33,-1
 190 396 l 1,0,1
EndSplineSet
EndChar

StartChar: six
Encoding: 54 54 36
Width: 615
Flags: HW
LayerCount: 2
Fore
SplineSet
177 366 m 1,0,1
 238.741935484 432 238.741935484 432 332 432 c 0,2,3
 422.714285714 432 422.714285714 432 487 372 c 0,4,5
 552 311.333333333 552 311.333333333 552 221 c 0,6,7
 552 114.109375 552 114.109375 483 50.5 c 0,8,9
 417.372881356 -10 417.372881356 -10 316 -10 c 256,10,11
 215.098360656 -10 215.098360656 -10 148.5 52.5 c 0,12,13
 79 117.723076923 79 117.723076923 79 223 c 2,14,-1
 79 465 l 2,15,16
 79 561 79 561 146.5 628.5 c 128,-1,17
 214 696 214 696 310 696 c 0,18,19
 412.396551724 696 412.396551724 696 475.5 636 c 0,20,21
 541 573.721311475 541 573.721311475 541 473 c 1,22,-1
 443 473 l 1,23,24
 443 536 443 536 406.5 571.5 c 128,-1,25
 370 607 370 607 310 607 c 0,26,27
 255 607 255 607 216 568 c 128,-1,28
 177 529 177 529 177 474 c 2,29,-1
 177 366 l 1,0,1
454 211 m 256,30,31
 454 271.210526316 454 271.210526316 414 307 c 0,32,33
 373.764705882 343 373.764705882 343 316 343 c 256,34,35
 256.676470588 343 256.676470588 343 217.5 307 c 0,36,37
 177 269.783783784 177 269.783783784 177 211 c 256,38,39
 177 152.216216216 177 152.216216216 217.5 115 c 0,40,41
 256.676470588 79 256.676470588 79 316 79 c 256,42,43
 373.764705882 79 373.764705882 79 414 115 c 0,44,45
 454 150.789473684 454 150.789473684 454 211 c 256,30,31
EndSplineSet
EndChar

StartChar: seven
Encoding: 55 55 37
Width: 615
Flags: HW
LayerCount: 2
Fore
SplineSet
180 0 m 1,0,1
 180 283.046511628 180 283.046511628 430 597 c 1,2,-1
 73 597 l 1,3,-1
 73 686 l 1,4,-1
 555 686 l 1,5,-1
 555 633 l 1,6,7
 380.071760236 426.973406501 380.071760236 426.973406501 316.5 215.5 c 0,8,9
 292 134 292 134 292 51 c 2,10,-1
 292 27.5 l 2,11,12
 292 18 292 18 294 0 c 1,13,-1
 180 0 l 1,0,1
EndSplineSet
EndChar

StartChar: eight
Encoding: 56 56 38
Width: 615
Flags: HW
LayerCount: 2
Fore
SplineSet
431 350 m 1,0,1
 483 326 483 326 515 289 c 128,-1,2
 547 252 547 252 547 185 c 0,3,4
 547 94 547 94 485 42 c 128,-1,5
 423 -10 423 -10 307 -10 c 0,6,7
 198.653061224 -10 198.653061224 -10 134 39.5 c 0,8,9
 67 90.796875 67 90.796875 67 185 c 0,10,11
 67 251 67 251 99 289.5 c 128,-1,12
 131 328 131 328 183 350 c 1,13,-1
 183 354 l 1,14,15
 135.666666667 382.4 135.666666667 382.4 119.833333333 405.2 c 0,16,17
 90 448.16 90 448.16 90 499.08 c 128,-1,18
 90 550 90 550 106 585.5 c 128,-1,19
 122 621 122 621 151 645.5 c 0,20,21
 210.775510204 696 210.775510204 696 307 696 c 256,22,23
 403.224489796 696 403.224489796 696 463 645.5 c 0,24,25
 524 593.965517241 524 593.965517241 524 505 c 0,26,27
 524 421.823529412 524 421.823529412 468 379 c 0,28,29
 451 366 451 366 431 354 c 1,30,-1
 431 350 l 1,0,1
188 501 m 256,31,32
 188 456 188 456 220 425.5 c 128,-1,33
 252 395 252 395 307 395 c 256,34,35
 362 395 362 395 394 425.5 c 128,-1,36
 426 456 426 456 426 501 c 256,37,38
 426 546 426 546 394 576.5 c 128,-1,39
 362 607 362 607 307 607 c 256,40,41
 252 607 252 607 220 576.5 c 128,-1,42
 188 546 188 546 188 501 c 256,31,32
176 241.5 m 0,43,44
 165 220 165 220 165 191.5 c 128,-1,45
 165 163 165 163 176 142 c 128,-1,46
 187 121 187 121 206.5 107 c 0,47,48
 245.5 79 245.5 79 307 79 c 256,49,50
 368.5 79 368.5 79 407.5 107 c 0,51,52
 449 136.794871795 449 136.794871795 449 192 c 0,53,54
 449 246.641025641 449 246.641025641 407.5 277.5 c 0,55,56
 369.172413793 306 369.172413793 306 307 306 c 256,57,58
 209 306 209 306 176 241.5 c 0,43,44
EndSplineSet
EndChar

StartChar: nine
Encoding: 57 57 39
Width: 615
Flags: HW
LayerCount: 2
Fore
SplineSet
438 320 m 1,0,1
 376.258064516 254 376.258064516 254 283 254 c 0,2,3
 192.285714286 254 192.285714286 254 128 314 c 0,4,5
 63 374.666666667 63 374.666666667 63 465 c 0,6,7
 63 571.890625 63 571.890625 132 635.5 c 0,8,9
 197.627118644 696 197.627118644 696 299 696 c 256,10,11
 399.901639344 696 399.901639344 696 466.5 633.5 c 0,12,13
 536 568.276923077 536 568.276923077 536 463 c 2,14,-1
 536 221 l 2,15,16
 536 125 536 125 468.5 57.5 c 128,-1,17
 401 -10 401 -10 305 -10 c 0,18,19
 202.603448276 -10 202.603448276 -10 139.5 50 c 0,20,21
 74 112.278688525 74 112.278688525 74 213 c 1,22,-1
 172 213 l 1,23,24
 172 150 172 150 208.5 114.5 c 128,-1,25
 245 79 245 79 305 79 c 0,26,27
 360 79 360 79 399 118 c 128,-1,28
 438 157 438 157 438 212 c 2,29,-1
 438 320 l 1,0,1
161 475 m 256,30,31
 161 414.789473684 161 414.789473684 201 379 c 0,32,33
 241.235294118 343 241.235294118 343 299 343 c 256,34,35
 358.323529412 343 358.323529412 343 397.5 379 c 0,36,37
 438 416.216216216 438 416.216216216 438 475 c 256,38,39
 438 533.783783784 438 533.783783784 397.5 571 c 0,40,41
 358.323529412 607 358.323529412 607 299 607 c 256,42,43
 241.235294118 607 241.235294118 607 201 571 c 0,44,45
 161 535.210526316 161 535.210526316 161 475 c 256,30,31
EndSplineSet
EndChar

StartChar: colon
Encoding: 58 58 40
Width: 239
Flags: HW
LayerCount: 2
Fore
SplineSet
69 111 m 1,0,-1
 170 111 l 1,1,-1
 170 0 l 1,2,-1
 69 0 l 1,3,-1
 69 111 l 1,0,-1
69 511 m 1,4,-1
 170 511 l 1,5,-1
 170 399 l 1,6,-1
 69 399 l 1,7,-1
 69 511 l 1,4,-1
EndSplineSet
EndChar

StartChar: semicolon
Encoding: 59 59 41
Width: 239
Flags: HW
LayerCount: 2
Fore
SplineSet
69 511 m 1,0,-1
 170 511 l 1,1,-1
 170 399 l 1,2,-1
 69 399 l 1,3,-1
 69 511 l 1,0,-1
83 -124 m 1,4,-1
 110 0 l 1,5,-1
 69 0 l 1,6,-1
 69 111 l 1,7,-1
 170 111 l 1,8,-1
 170 26 l 1,9,-1
 135 -124 l 1,10,-1
 83 -124 l 1,4,-1
EndSplineSet
EndChar

StartChar: less
Encoding: 60 60 42
Width: 615
Flags: HW
LayerCount: 2
Fore
SplineSet
44 307 m 1,0,-1
 553 504 l 1,1,-1
 553 414 l 1,2,-1
 124 254 l 1,3,-1
 553 94 l 1,4,-1
 553 4 l 1,5,-1
 44 200 l 1,6,-1
 44 307 l 1,0,-1
EndSplineSet
EndChar

StartChar: equal
Encoding: 61 61 43
Width: 615
Flags: HW
LayerCount: 2
Fore
SplineSet
55 318 m 1,0,-1
 55 402 l 1,1,-1
 559 402 l 1,2,-1
 559 318 l 1,3,-1
 55 318 l 1,0,-1
55 106 m 1,4,-1
 55 189 l 1,5,-1
 559 189 l 1,6,-1
 559 106 l 1,7,-1
 55 106 l 1,4,-1
EndSplineSet
EndChar

StartChar: greater
Encoding: 62 62 44
Width: 615
Flags: HW
LayerCount: 2
Fore
SplineSet
490 254 m 1,0,1
 177.675675676 369.675675676 177.675675676 369.675675676 62 414 c 1,2,-1
 62 504 l 1,3,-1
 571 307 l 1,4,-1
 571 200 l 1,5,-1
 62 4 l 1,6,-1
 62 94 l 1,7,8
 169 134 169 134 275.5 173.5 c 128,-1,9
 382 213 382 213 490 254 c 1,0,1
EndSplineSet
EndChar

StartChar: question
Encoding: 63 63 45
Width: 502
Flags: HW
LayerCount: 2
Fore
SplineSet
205 111 m 1,0,-1
 309 111 l 1,1,-1
 309 0 l 1,2,-1
 205 0 l 1,3,-1
 205 111 l 1,0,-1
29 458 m 1,4,5
 26 470 26 470 26 495.5 c 128,-1,6
 26 521 26 521 36.5 556.5 c 128,-1,7
 47 592 47 592 72.5 623 c 0,8,9
 132.548387097 696 132.548387097 696 246 696 c 2,10,-1
 252 696 l 2,11,12
 363.64516129 696 363.64516129 696 420.5 621 c 0,13,14
 444 590 444 590 453 557 c 128,-1,15
 462 524 462 524 462 491.5 c 128,-1,16
 462 459 462 459 450.5 429 c 128,-1,17
 439 399 439 399 422 377 c 128,-1,18
 405 355 405 355 384.5 339 c 128,-1,19
 364 323 364 323 347 307.5 c 0,20,21
 307 271.029411765 307 271.029411765 307 234 c 2,22,-1
 307 185 l 1,23,-1
 207 185 l 1,24,-1
 207 249 l 2,25,26
 207 296.342857143 207 296.342857143 247.5 338 c 0,27,28
 265 356 265 356 285 372 c 128,-1,29
 305 388 305 388 322.5 406.5 c 0,30,31
 363 449.314285714 363 449.314285714 363 498 c 0,32,33
 363 537.857142857 363 537.857142857 337 568.5 c 0,34,35
 304.333333333 607 304.333333333 607 245 607 c 0,36,37
 177.777777778 607 177.777777778 607 146 563 c 0,38,39
 125 533.923076923 125 533.923076923 125 495 c 1,40,-1
 127 458 l 1,41,-1
 29 458 l 1,4,5
EndSplineSet
EndChar

StartChar: at
Encoding: 64 64 46
Width: 885
Flags: HW
LayerCount: 2
Fore
SplineSet
562 251 m 1,0,1
 444.473684211 251 444.473684211 251 402.736842105 238 c 128,-1,2
 361 225 361 225 345 208 c 128,-1,3
 329 191 329 191 329 157.5 c 0,4,5
 329 92 329 92 428 92 c 0,6,7
 482.472222222 92 482.472222222 92 520.5 129 c 0,8,9
 562 169.378378378 562 169.378378378 562 233 c 2,10,-1
 562 251 l 1,0,1
259 364 m 1,11,12
 257 374 257 374 257 395 c 128,-1,13
 257 416 257 416 272 441 c 128,-1,14
 287 466 287 466 313 484 c 0,15,16
 366.444444444 521 366.444444444 521 454 521 c 2,17,-1
 463 521 l 2,18,19
 559 521 559 521 605 482.5 c 128,-1,20
 651 444 651 444 651 374 c 2,21,-1
 651 129 l 2,22,23
 651 91 651 91 688 91 c 0,24,25
 761.415730337 91 761.415730337 91 786.5 208.5 c 0,26,27
 796 253 796 253 796 329.5 c 128,-1,28
 796 406 796 406 771 467 c 128,-1,29
 746 528 746 528 701.5 567 c 0,30,31
 615.923076923 642 615.923076923 642 458 642 c 0,32,33
 288 642 288 642 194 548 c 0,34,35
 97 451 97 451 97 266 c 128,-1,36
 97 81 97 81 176.5 -8.5 c 128,-1,37
 256 -98 256 -98 424 -98 c 0,38,39
 479.545454545 -98 479.545454545 -98 527.272727273 -85.5 c 128,-1,40
 575 -73 575 -73 589 -66 c 1,41,-1
 589 -126 l 1,42,43
 541.64 -143.76 541.64 -143.76 490.82 -148.38 c 128,-1,44
 440 -153 440 -153 424 -153 c 0,45,46
 143.592356688 -153 143.592356688 -153 65 75.5 c 0,47,48
 38 154 38 154 38 267.5 c 128,-1,49
 38 381 38 381 72 464 c 128,-1,50
 106 547 106 547 163.5 598.5 c 0,51,52
 273.475728155 697 273.475728155 697 459 697 c 256,53,54
 738.776223776 697 738.776223776 697 825 491.5 c 0,55,56
 855 420 855 420 855 327.5 c 128,-1,57
 855 235 855 235 837 178 c 128,-1,58
 819 121 819 121 791.5 86.5 c 0,59,60
 740.086956522 22 740.086956522 22 668 22 c 0,61,62
 592.375 22 592.375 22 574.5 74 c 0,63,64
 569 90 569 90 567 109 c 1,65,-1
 564 106 l 1,66,67
 508.682926829 22 508.682926829 22 398 22 c 0,68,69
 288.886792453 22 288.886792453 22 254.5 89.5 c 0,70,71
 241 116 241 116 241 164 c 128,-1,72
 241 212 241 212 264.5 244 c 128,-1,73
 288 276 288 276 330.5 293 c 0,74,75
 398 320 398 320 562 320 c 1,76,-1
 562 364 l 2,77,78
 562 401.090909091 562 401.090909091 548.5 417.045454545 c 0,79,80
 519.769230769 451 519.769230769 451 452 451 c 0,81,82
 387.153846154 451 387.153846154 451 360.5 418 c 0,83,84
 345 398.80952381 345 398.80952381 345 375 c 2,85,-1
 345 364 l 1,86,-1
 259 364 l 1,11,12
EndSplineSet
EndChar

StartChar: A
Encoding: 65 65 47
Width: 652
Flags: HW
LayerCount: 2
Fore
SplineSet
484 149 m 1,0,-1
 156 149 l 1,1,-1
 99 0 l 1,2,-1
 4 0 l 1,3,-1
 272 686 l 1,4,-1
 380 686 l 1,5,-1
 648 0 l 1,6,-1
 542 0 l 1,7,-1
 484 149 l 1,0,-1
318 568 m 1,8,-1
 191 238 l 1,9,-1
 450 238 l 1,10,-1
 324 568 l 1,11,-1
 318 568 l 1,8,-1
EndSplineSet
EndChar

StartChar: B
Encoding: 66 66 48
Width: 651
Flags: HW
LayerCount: 2
Fore
SplineSet
92 686 m 1,0,-1
 396 686 l 2,1,2
 471.304347826 686 471.304347826 686 523.5 637 c 0,3,4
 576 587.714285714 576 587.714285714 576 518 c 0,5,6
 576 448.588235294 576 448.588235294 537 405 c 0,7,8
 508.323232323 372.949494949 508.323232323 372.949494949 456 358 c 1,9,-1
 456 353 l 1,10,11
 541.478510029 338.753581662 541.478510029 338.753581662 577.5 260.5 c 0,12,13
 592 229 592 229 592 187 c 128,-1,14
 592 145 592 145 577 111.5 c 128,-1,15
 562 78 562 78 536.5 53.5 c 0,16,17
 480.816326531 3.90798504668e-14 480.816326531 3.90798504668e-14 402 0 c 2,18,-1
 92 0 l 1,19,-1
 92 686 l 1,0,-1
376 394 m 2,20,21
 417.407407407 394 417.407407407 394 448 423.5 c 0,22,23
 478 452.428571429 478 452.428571429 478 495 c 256,24,25
 478 537 478 537 448 567 c 128,-1,26
 418 597 418 597 376 597 c 2,27,-1
 190 597 l 1,28,-1
 190 394 l 1,29,-1
 376 394 l 2,20,21
386 89 m 2,30,31
 431 89 431 89 462.5 120.5 c 128,-1,32
 494 152 494 152 494 197 c 128,-1,33
 494 242 494 242 462.5 273.5 c 128,-1,34
 431 305 431 305 386 305 c 2,35,-1
 190 305 l 1,36,-1
 190 89 l 1,37,-1
 386 89 l 2,30,31
EndSplineSet
EndChar

StartChar: C
Encoding: 67 67 49
Width: 663
Flags: HW
LayerCount: 2
Fore
SplineSet
609 261 m 1,0,1
 609 127.547945205 609 127.547945205 530.5 55.5 c 0,2,3
 459.134328358 -10 459.134328358 -10 344 -10 c 0,4,5
 216.5 -10 216.5 -10 141.5 66 c 0,6,7
 62 146.56 62 146.56 62 298 c 2,8,-1
 62 388 l 2,9,10
 62 538.426666667 62 538.426666667 142.5 620 c 0,11,12
 217.5 696 217.5 696 344 696 c 0,13,14
 460.970149254 696 460.970149254 696 532.5 628.5 c 0,15,16
 609 556.309859155 609 556.309859155 609 423 c 1,17,-1
 511 423 l 1,18,19
 511 515.431818182 511 515.431818182 464 563.5 c 0,20,21
 421.466666667 607 421.466666667 607 344 607 c 0,22,23
 211.75 607 211.75 607 173.5 488 c 0,24,25
 160 446 160 446 160 388 c 2,26,-1
 160 298 l 2,27,28
 160 131.573529412 160 131.573529412 269 91.5 c 0,29,30
 303 79 303 79 342 79 c 128,-1,31
 381 79 381 79 412.5 89.5 c 128,-1,32
 444 100 444 100 466.5 122.5 c 0,33,34
 515 171 515 171 515 261 c 1,35,-1
 609 261 l 1,0,1
EndSplineSet
EndChar

StartChar: D
Encoding: 68 68 50
Width: 675
Flags: HW
LayerCount: 2
Fore
SplineSet
330 89 m 2,0,1
 462.024096386 89 462.024096386 89 502 207.5 c 0,2,3
 516 249 516 249 516 308 c 2,4,-1
 516 378 l 2,5,6
 516 544.101449275 516 544.101449275 404.5 584.5 c 0,7,8
 370 597 370 597 330 597 c 2,9,-1
 190 597 l 1,10,-1
 190 89 l 1,11,-1
 330 89 l 2,0,1
92 0 m 1,12,-1
 92 686 l 1,13,-1
 330 686 l 2,14,15
 453.5 686 453.5 686 530.5 610 c 0,16,17
 614 527.584415584 614 527.584415584 614 378 c 2,18,-1
 614 308 l 2,19,20
 614 158.415584416 614 158.415584416 530.5 76 c 0,21,22
 453.5 0 453.5 0 330 0 c 2,23,-1
 92 0 l 1,12,-1
EndSplineSet
EndChar

StartChar: E
Encoding: 69 69 51
Width: 593
Flags: HW
LayerCount: 2
Fore
SplineSet
92 0 m 1,0,-1
 92 686 l 1,1,-1
 542 686 l 1,2,-1
 529 597 l 1,3,-1
 190 597 l 1,4,-1
 190 395 l 1,5,-1
 497 395 l 1,6,-1
 497 306 l 1,7,-1
 190 306 l 1,8,-1
 190 89 l 1,9,-1
 535 89 l 1,10,-1
 549 0 l 1,11,-1
 92 0 l 1,0,-1
EndSplineSet
EndChar

StartChar: F
Encoding: 70 70 52
Width: 550
Flags: HW
LayerCount: 2
Fore
SplineSet
511 597 m 1,0,-1
 190 597 l 1,1,-1
 190 388 l 1,2,-1
 470 388 l 1,3,-1
 470 299 l 1,4,-1
 190 299 l 1,5,-1
 190 0 l 1,6,-1
 92 0 l 1,7,-1
 92 686 l 1,8,-1
 524 686 l 1,9,-1
 511 597 l 1,0,-1
EndSplineSet
EndChar

StartChar: G
Encoding: 71 71 53
Width: 677
Flags: HW
LayerCount: 2
Fore
SplineSet
607 128 m 2,0,1
 607 45 607 45 613 0 c 1,2,-1
 555 0 l 1,3,4
 542.764705882 36.7058823529 542.764705882 36.7058823529 535 82 c 1,5,6
 471 -10 471 -10 344 -10 c 256,7,8
 216.5 -10 216.5 -10 141.5 66 c 0,9,10
 62 146.56 62 146.56 62 298 c 2,11,-1
 62 388 l 2,12,13
 62 538.426666667 62 538.426666667 142.5 620 c 0,14,15
 217.5 696 217.5 696 344 696 c 0,16,17
 457.571428571 696 457.571428571 696 529 633.5 c 0,18,19
 607 565.25 607 565.25 607 445 c 1,20,-1
 509 445 l 1,21,22
 509 526.954545455 509 526.954545455 461 569.5 c 0,23,24
 418.692307692 607 418.692307692 607 344 607 c 0,25,26
 211.75 607 211.75 607 173.5 488 c 0,27,28
 160 446 160 446 160 388 c 2,29,-1
 160 298 l 2,30,31
 160 131.573529412 160 131.573529412 269 91.5 c 0,32,33
 303 79 303 79 344 79 c 0,34,35
 430 79 430 79 470.5 122 c 128,-1,36
 511 165 511 165 511 261 c 2,37,-1
 511 274 l 1,38,-1
 317 274 l 1,39,-1
 317 362 l 1,40,-1
 607 362 l 1,41,-1
 607 128 l 2,0,1
EndSplineSet
EndChar

StartChar: H
Encoding: 72 72 54
Width: 693
Flags: HW
LayerCount: 2
Fore
SplineSet
503 0 m 1,0,-1
 503 306 l 1,1,-1
 190 306 l 1,2,-1
 190 0 l 1,3,-1
 92 0 l 1,4,-1
 92 686 l 1,5,-1
 190 686 l 1,6,-1
 190 395 l 1,7,-1
 503 395 l 1,8,-1
 503 686 l 1,9,-1
 601 686 l 1,10,-1
 601 0 l 1,11,-1
 503 0 l 1,0,-1
EndSplineSet
EndChar

StartChar: I
Encoding: 73 73 55
Width: 364
Flags: HW
LayerCount: 2
Fore
SplineSet
53 686 m 1,0,-1
 311 686 l 1,1,-1
 311 597 l 1,2,-1
 231 597 l 1,3,-1
 231 89 l 1,4,-1
 311 89 l 1,5,-1
 311 0 l 1,6,-1
 53 0 l 1,7,-1
 53 89 l 1,8,-1
 133 89 l 1,9,-1
 133 597 l 1,10,-1
 53 597 l 1,11,-1
 53 686 l 1,0,-1
EndSplineSet
EndChar

StartChar: J
Encoding: 74 74 56
Width: 526
Flags: HW
LayerCount: 2
Fore
SplineSet
29 208 m 1,0,-1
 127 208 l 1,1,-1
 127 181 l 2,2,3
 127 135.896551724 127 135.896551724 157.5 107.5 c 128,-1,4
 188.111111111 79 188.111111111 79 234.555555556 79 c 128,-1,5
 281 79 281 79 311 106.5 c 128,-1,6
 341 134 341 134 341 181 c 2,7,-1
 341 686 l 1,8,-1
 439 686 l 1,9,-1
 439 187 l 2,10,11
 439 91.6181818182 439 91.6181818182 380.5 39.5 c 0,12,13
 324.93877551 -10 324.93877551 -10 236 -10 c 2,14,-1
 227 -10 l 2,15,16
 89 -10 89 -10 44 101 c 0,17,18
 29 138 29 138 29 187 c 2,19,-1
 29 208 l 1,0,-1
EndSplineSet
EndChar

StartChar: K
Encoding: 75 75 57
Width: 623
Flags: HW
LayerCount: 2
Fore
SplineSet
92 686 m 1,0,-1
 190 686 l 1,1,-1
 190 329 l 1,2,-1
 488 686 l 1,3,-1
 601 686 l 1,4,-1
 349 383 l 1,5,-1
 609 0 l 1,6,-1
 495 0 l 1,7,-1
 287 308 l 1,8,-1
 190 206 l 1,9,-1
 190 0 l 1,10,-1
 92 0 l 1,11,-1
 92 686 l 1,0,-1
EndSplineSet
EndChar

StartChar: L
Encoding: 76 76 58
Width: 536
Flags: HW
LayerCount: 2
Fore
SplineSet
92 0 m 1,0,-1
 92 686 l 1,1,-1
 190 686 l 1,2,-1
 190 89 l 1,3,-1
 505 89 l 1,4,-1
 519 0 l 1,5,-1
 92 0 l 1,0,-1
EndSplineSet
EndChar

StartChar: M
Encoding: 77 77 59
Width: 938
Flags: HW
LayerCount: 2
Fore
SplineSet
748 0 m 1,0,-1
 748 571 l 1,1,-1
 742 571 l 1,2,-1
 505 0 l 1,3,-1
 422 0 l 1,4,-1
 186 571 l 1,5,-1
 181 571 l 1,6,-1
 181 0 l 1,7,-1
 92 0 l 1,8,-1
 92 686 l 1,9,-1
 246 686 l 1,10,-1
 467 146 l 1,11,-1
 471 146 l 1,12,-1
 693 686 l 1,13,-1
 846 686 l 1,14,-1
 846 0 l 1,15,-1
 748 0 l 1,0,-1
EndSplineSet
EndChar

StartChar: N
Encoding: 78 78 60
Width: 694
Flags: HW
LayerCount: 2
Fore
SplineSet
519 0 m 1,0,-1
 184 502 l 1,1,-1
 181 501 l 1,2,-1
 181 0 l 1,3,-1
 92 0 l 1,4,-1
 92 686 l 1,5,-1
 178 686 l 1,6,-1
 510 190 l 1,7,-1
 513 191 l 1,8,-1
 513 686 l 1,9,-1
 602 686 l 1,10,-1
 602 0 l 1,11,-1
 519 0 l 1,0,-1
EndSplineSet
EndChar

StartChar: O
Encoding: 79 79 61
Width: 690
Flags: HW
LayerCount: 2
Fore
SplineSet
531 388 m 2,0,1
 531 554.101449275 531 554.101449275 419.5 594.5 c 0,2,3
 385 607 385 607 344.5 607 c 128,-1,4
 304 607 304 607 270 594.5 c 128,-1,5
 236 582 236 582 211.5 556 c 0,6,7
 159 500.285714286 159 500.285714286 159 388 c 2,8,-1
 159 298 l 2,9,10
 159 132.308823529 159 132.308823529 270 91.5 c 0,11,12
 304 79 304 79 344.5 79 c 128,-1,13
 385 79 385 79 419.5 91.5 c 128,-1,14
 454 104 454 104 478.5 130 c 0,15,16
 531 185.714285714 531 185.714285714 531 298 c 2,17,-1
 531 388 l 2,0,1
629 298 m 2,18,19
 629 148.415584416 629 148.415584416 545.5 66 c 0,20,21
 468.5 -10 468.5 -10 345 -10 c 256,22,23
 221.5 -10 221.5 -10 144.5 66 c 0,24,25
 61 148.415584416 61 148.415584416 61 298 c 2,26,-1
 61 388 l 2,27,28
 61 537.584415584 61 537.584415584 144.5 620 c 0,29,30
 221.5 696 221.5 696 345 696 c 256,31,32
 468.5 696 468.5 696 545.5 620 c 0,33,34
 629 537.584415584 629 537.584415584 629 388 c 2,35,-1
 629 298 l 2,18,19
EndSplineSet
EndChar

StartChar: P
Encoding: 80 80 62
Width: 624
Flags: HW
LayerCount: 2
Fore
SplineSet
190 597 m 1,0,-1
 190 375 l 1,1,-1
 379 375 l 2,2,3
 425.8 375 425.8 375 461 408 c 0,4,5
 495 439.875 495 439.875 495 486 c 256,6,7
 495 531.580645161 495 531.580645161 461.5 564 c 0,8,9
 427.4 597 427.4 597 379 597 c 2,10,-1
 190 597 l 1,0,-1
190 286 m 1,11,-1
 190 0 l 1,12,-1
 92 0 l 1,13,-1
 92 686 l 1,14,-1
 388 686 l 2,15,16
 475.41509434 686 475.41509434 686 533 631.5 c 0,17,18
 593 574.714285714 593 574.714285714 593 486 c 256,19,20
 593 397.285714286 593 397.285714286 533 340.5 c 0,21,22
 475.41509434 286 475.41509434 286 388 286 c 2,23,-1
 190 286 l 1,11,-1
EndSplineSet
EndChar

StartChar: Q
Encoding: 81 81 63
Width: 690
Flags: HW
LayerCount: 2
Fore
SplineSet
618 -112 m 1,0,1
 558.6 -145 558.6 -145 498.3 -145 c 128,-1,2
 438 -145 438 -145 405.5 -132 c 128,-1,3
 373 -119 373 -119 352 -99 c 0,4,5
 314.637717122 -63.4168734491 314.637717122 -63.4168734491 305 -8 c 1,6,7
 195.589426322 4.62429696288 195.589426322 4.62429696288 131 79 c 0,8,9
 61 159.606060606 61 159.606060606 61 298 c 2,10,-1
 61 388 l 2,11,12
 61 537.584415584 61 537.584415584 144.5 620 c 0,13,14
 221.5 696 221.5 696 345 696 c 256,15,16
 468.5 696 468.5 696 545.5 620 c 0,17,18
 629 537.584415584 629 537.584415584 629 388 c 2,19,-1
 629 298 l 2,20,21
 629 166.360655738 629 166.360655738 564.5 86 c 0,22,23
 504.951483313 11.8084054388 504.951483313 11.8084054388 402 -5 c 1,24,25
 409.076923077 -33.3076923077 409.076923077 -33.3076923077 425.538461538 -45.6538461538 c 0,26,27
 458 -70 458 -70 501 -70 c 0,28,29
 546.444444444 -70 546.444444444 -70 606.5 -46.5 c 2,30,-1
 618 -42 l 1,31,-1
 618 -112 l 1,0,1
531 388 m 2,32,33
 531 554.101449275 531 554.101449275 419.5 594.5 c 0,34,35
 385 607 385 607 344.5 607 c 128,-1,36
 304 607 304 607 270 594.5 c 128,-1,37
 236 582 236 582 211.5 556 c 0,38,39
 159 500.285714286 159 500.285714286 159 388 c 2,40,-1
 159 298 l 2,41,42
 159 132.308823529 159 132.308823529 270 91.5 c 0,43,44
 304 79 304 79 344.5 79 c 128,-1,45
 385 79 385 79 419.5 91.5 c 128,-1,46
 454 104 454 104 478.5 130 c 0,47,48
 531 185.714285714 531 185.714285714 531 298 c 2,49,-1
 531 388 l 2,32,33
EndSplineSet
EndChar

StartChar: R
Encoding: 82 82 64
Width: 670
Flags: HW
LayerCount: 2
Fore
SplineSet
630 3 m 1,0,1
 587.621621622 -12.8918918919 587.621621622 -12.8918918919 542.5 0 c 0,2,3
 506.015822785 10.4240506329 506.015822785 10.4240506329 489.5 59 c 0,4,5
 481 84 481 84 481 130 c 128,-1,6
 481 176 481 176 469.5 210.5 c 128,-1,7
 458 245 458 245 440.5 265.5 c 0,8,9
 409.341463415 302 409.341463415 302 364 302 c 2,10,-1
 190 302 l 1,11,-1
 190 0 l 1,12,-1
 92 0 l 1,13,-1
 92 686 l 1,14,-1
 384 686 l 2,15,16
 525.0625 686 525.0625 686 575 592 c 0,17,18
 592 560 592 560 592 524.5 c 128,-1,19
 592 489 592 489 582.5 462 c 128,-1,20
 573 435 573 435 556.5 412.5 c 0,21,22
 520.92238806 363.985074627 520.92238806 363.985074627 469 354 c 1,23,-1
 469 349 l 1,24,25
 534.882352941 324.294117647 534.882352941 324.294117647 565 249 c 0,26,27
 579 214 579 214 579 169.5 c 128,-1,28
 579 125 579 125 582.5 102 c 128,-1,29
 586 79 586 79 592.5 65 c 0,30,31
 604.309859155 39.5633802817 604.309859155 39.5633802817 630 31 c 1,32,-1
 630 3 l 1,0,1
385 391 m 2,33,34
 429.222222222 391 429.222222222 391 462 420.5 c 0,35,36
 494 449.3 494 449.3 494 492 c 2,37,-1
 494 496 l 2,38,39
 494 539 494 539 464.5 568 c 128,-1,40
 435 597 435 597 385 597 c 2,41,-1
 190 597 l 1,42,-1
 190 391 l 1,43,-1
 385 391 l 2,33,34
EndSplineSet
EndChar

StartChar: S
Encoding: 83 83 65
Width: 627
Flags: HW
LayerCount: 2
Fore
SplineSet
151 215 m 1,0,-1
 150 194 l 1,1,2
 150 135 150 135 194.5 107 c 128,-1,3
 239 79 239 79 314 79 c 128,-1,4
 389 79 389 79 432.5 106.5 c 128,-1,5
 476 134 476 134 476 182 c 128,-1,6
 476 230 476 230 446 252.5 c 128,-1,7
 416 275 416 275 370.5 289 c 128,-1,8
 325 303 325 303 272 315 c 128,-1,9
 219 327 219 327 173.5 349 c 128,-1,10
 128 371 128 371 98 408 c 128,-1,11
 68 445 68 445 68 501 c 128,-1,12
 68 557 68 557 87.5 592 c 128,-1,13
 107 627 107 627 140.5 650.5 c 0,14,15
 205.361702128 696 205.361702128 696 314 696 c 0,16,17
 420.434782609 696 420.434782609 696 485 651 c 0,18,19
 556 601.515151515 556 601.515151515 556 504 c 2,20,-1
 556 492 l 1,21,-1
 458 492 l 1,22,-1
 458 507 l 2,23,24
 458 556 458 556 418 581.5 c 128,-1,25
 378 607 378 607 316 607 c 0,26,27
 211.323529412 607 211.323529412 607 177.5 557 c 0,28,29
 166 540 166 540 166 516 c 0,30,31
 166 476 166 476 196 455 c 128,-1,32
 226 434 226 434 271.5 420 c 128,-1,33
 317 406 317 406 370 393.5 c 128,-1,34
 423 381 423 381 468.5 359.5 c 128,-1,35
 514 338 514 338 544 301.5 c 128,-1,36
 574 265 574 265 574 204.5 c 128,-1,37
 574 144 574 144 554 103.5 c 128,-1,38
 534 63 534 63 499 38 c 0,39,40
 431.8 -10 431.8 -10 313 -10 c 0,41,42
 132.230769231 -10 132.230769231 -10 73 100 c 0,43,44
 52 139 52 139 52 195 c 1,45,-1
 53 215 l 1,46,-1
 151 215 l 1,0,-1
EndSplineSet
EndChar

StartChar: U
Encoding: 85 85 66
Width: 680
Flags: HW
LayerCount: 2
Fore
SplineSet
594 686 m 1,0,-1
 594 219 l 2,1,2
 594 115.230769231 594 115.230769231 525.5 52 c 0,3,4
 458.333333333 -10 458.333333333 -10 346 -10 c 2,5,-1
 333 -10 l 2,6,7
 220.666666667 -10 220.666666667 -10 153.5 52 c 0,8,9
 86 114.307692308 86 114.307692308 86 219 c 2,10,-1
 86 686 l 1,11,-1
 184 686 l 1,12,-1
 184 221 l 2,13,14
 184 159.390243902 184 159.390243902 226.5 120 c 0,15,16
 270.736842105 79 270.736842105 79 341.868421053 79 c 128,-1,17
 413 79 413 79 454.5 118.5 c 128,-1,18
 496 158 496 158 496 221 c 2,19,-1
 496 686 l 1,20,-1
 594 686 l 1,0,-1
EndSplineSet
EndChar

StartChar: V
Encoding: 86 86 67
Width: 603
Flags: HW
LayerCount: 2
Fore
SplineSet
309 133 m 1,0,-1
 503 686 l 1,1,-1
 598 686 l 1,2,-1
 354 0 l 1,3,-1
 249 0 l 1,4,-1
 5 686 l 1,5,-1
 110 686 l 1,6,-1
 303 133 l 1,7,-1
 309 133 l 1,0,-1
EndSplineSet
EndChar

StartChar: W
Encoding: 87 87 68
Width: 916
Flags: HW
LayerCount: 2
Fore
SplineSet
455 496 m 1,0,-1
 310 0 l 1,1,-1
 210 0 l 1,2,-1
 14 686 l 1,3,-1
 119 686 l 1,4,-1
 264 169 l 1,5,-1
 270 169 l 1,6,-1
 416 686 l 1,7,-1
 511 686 l 1,8,-1
 656 169 l 1,9,-1
 662 169 l 1,10,-1
 808 686 l 1,11,-1
 903 686 l 1,12,-1
 702 0 l 1,13,-1
 602 0 l 1,14,-1
 462 496 l 1,15,-1
 455 496 l 1,0,-1
EndSplineSet
EndChar

StartChar: X
Encoding: 88 88 69
Width: 631
Flags: HW
LayerCount: 2
Fore
SplineSet
313 276 m 1,0,-1
 118 0 l 1,1,-1
 9 0 l 1,2,-1
 259 355 l 1,3,-1
 32 685 l 1,4,-1
 150 685 l 1,5,-1
 318 440 l 1,6,7
 353 489 353 489 384 533.5 c 128,-1,8
 415 578 415 578 438.5 611.5 c 128,-1,9
 462 645 462 645 476 665 c 2,10,-1
 490 685 l 1,11,-1
 599 685 l 1,12,-1
 580 657.5 l 2,13,14
 546.843137255 609.509803922 546.843137255 609.509803922 480.921568627 516.254901961 c 128,-1,15
 415 423 415 423 372 361 c 1,16,-1
 621 0 l 1,17,-1
 503 0 l 1,18,-1
 313 276 l 1,0,-1
EndSplineSet
EndChar

StartChar: Y
Encoding: 89 89 70
Width: 572
Flags: HW
LayerCount: 2
Fore
SplineSet
335 265 m 1,0,-1
 335 0 l 1,1,-1
 237 0 l 1,2,-1
 237 265 l 1,3,-1
 -5 686 l 1,4,-1
 107 686 l 1,5,-1
 290 367 l 1,6,-1
 294 367 l 1,7,-1
 475 686 l 1,8,-1
 576 686 l 1,9,-1
 335 265 l 1,0,-1
EndSplineSet
EndChar

StartChar: Z
Encoding: 90 90 71
Width: 596
Flags: HW
LayerCount: 2
Fore
SplineSet
32 0 m 1,0,-1
 32 38 l 1,1,-1
 397 597 l 1,2,-1
 56 597 l 1,3,-1
 56 686 l 1,4,-1
 547 686 l 1,5,-1
 547 648 l 1,6,-1
 181 89 l 1,7,-1
 555 89 l 1,8,-1
 555 0 l 1,9,-1
 32 0 l 1,0,-1
EndSplineSet
EndChar

StartChar: bracketleft
Encoding: 91 91 72
Width: 293
Flags: HW
LayerCount: 2
Fore
SplineSet
85 -161 m 1,0,-1
 85 686 l 1,1,-1
 254 686 l 1,2,-1
 254 631 l 1,3,-1
 166 631 l 1,4,-1
 166 -106 l 1,5,-1
 254 -106 l 1,6,-1
 254 -161 l 1,7,-1
 85 -161 l 1,0,-1
EndSplineSet
EndChar

StartChar: backslash
Encoding: 92 92 73
Width: 600
Flags: HW
LayerCount: 2
Fore
SplineSet
15 686 m 1,0,-1
 95 686 l 1,1,-1
 585 -171 l 1,2,-1
 504 -171 l 1,3,-1
 15 686 l 1,0,-1
EndSplineSet
EndChar

StartChar: bracketright
Encoding: 93 93 74
Width: 293
Flags: HW
LayerCount: 2
Fore
SplineSet
39 -161 m 1,0,-1
 39 -106 l 1,1,-1
 127 -106 l 1,2,-1
 127 631 l 1,3,-1
 39 631 l 1,4,-1
 39 686 l 1,5,-1
 208 686 l 1,6,-1
 208 -161 l 1,7,-1
 39 -161 l 1,0,-1
EndSplineSet
EndChar

StartChar: asciicircum
Encoding: 94 94 75
Width: 596
Flags: HW
LayerCount: 2
Fore
SplineSet
298 421 m 1,0,-1
 133 0 l 1,1,-1
 49 0 l 1,2,-1
 246 511 l 1,3,-1
 349 511 l 1,4,-1
 546 0 l 1,5,-1
 462 0 l 1,6,7
 413.264150943 123 413.264150943 123 298 421 c 1,0,-1
EndSplineSet
EndChar

StartChar: underscore
Encoding: 95 95 76
Width: 694
Flags: HW
LayerCount: 2
Fore
SplineSet
97 -124 m 1,0,-1
 97 -64 l 1,1,-1
 597 -64 l 1,2,-1
 597 -124 l 1,3,-1
 97 -124 l 1,0,-1
EndSplineSet
EndChar

StartChar: grave
Encoding: 96 96 77
Width: 333
Flags: HW
LayerCount: 2
Fore
SplineSet
183 575 m 1,0,-1
 68 717 l 1,1,-1
 69 720 l 1,2,-1
 158 720 l 1,3,-1
 253 575 l 1,4,-1
 183 575 l 1,0,-1
EndSplineSet
EndChar

StartChar: a
Encoding: 97 97 78
Width: 585
Flags: HW
LayerCount: 2
Fore
SplineSet
390 234 m 1,0,1
 262.4 234 262.4 234 219.2 220.5 c 128,-1,2
 176 207 176 207 159 188.5 c 128,-1,3
 142 170 142 170 142 134.5 c 0,4,5
 142 65 142 65 247 65 c 0,6,7
 303.421052632 65 303.421052632 65 345.5 104 c 0,8,9
 390 145.243902439 390 145.243902439 390 214 c 2,10,-1
 390 234 l 1,0,1
394 82 m 1,11,12
 332.666666667 -10 332.666666667 -10 215 -10 c 0,13,14
 99.3859649123 -10 99.3859649123 -10 62.5 62.5 c 0,15,16
 48 91 48 91 48 142 c 128,-1,17
 48 193 48 193 73 226.5 c 128,-1,18
 98 260 98 260 143 278 c 0,19,20
 215.5 307 215.5 307 390 307 c 1,21,-1
 390 354 l 2,22,23
 390 392.956521739 390 392.956521739 375.5 409.97826087 c 0,24,25
 344.814814815 446 344.814814815 446 273 446 c 256,26,27
 203.111111111 446 203.111111111 446 175 411.5 c 0,28,29
 159 391.863636364 159 391.863636364 159 366 c 2,30,-1
 159 354 l 1,31,-1
 67 354 l 1,32,33
 65 364 65 364 65 386.5 c 128,-1,34
 65 409 65 409 81 436 c 128,-1,35
 97 463 97 463 125 481.5 c 0,36,37
 184.783783784 521 184.783783784 521 275 521 c 2,38,-1
 284 521 l 2,39,40
 386 521 386 521 435 480.5 c 128,-1,41
 484 440 484 440 484 365 c 2,42,-1
 484 100 l 2,43,44
 484 81 484 81 492.5 73 c 128,-1,45
 501 65 501 65 512 65 c 256,46,47
 535.6 65 535.6 65 558 79 c 1,48,-1
 558 10 l 1,49,50
 524.666666667 -10 524.666666667 -10 480.333333333 -10 c 128,-1,51
 436 -10 436 -10 416 16 c 128,-1,52
 396 42 396 42 394 82 c 1,11,12
EndSplineSet
EndChar

StartChar: b
Encoding: 98 98 79
Width: 583
Flags: HW
LayerCount: 2
Fore
SplineSet
152 81 m 1,0,-1
 119 0 l 1,1,-1
 83 0 l 1,2,-1
 83 720 l 1,3,-1
 177 720 l 1,4,-1
 177 446 l 1,5,6
 199 477 199 477 238 499 c 128,-1,7
 277 521 277 521 325 521 c 128,-1,8
 373 521 373 521 409.5 505 c 128,-1,9
 446 489 446 489 473 457 c 0,10,11
 531 388.259259259 531 388.259259259 531 267 c 2,12,-1
 531 256 l 2,13,14
 531 124.303571429 531 124.303571429 470 53.5 c 0,15,16
 415.292307692 -10 415.292307692 -10 324 -10 c 0,17,18
 210 -10 210 -10 152 81 c 1,0,-1
176 255 m 256,19,20
 176 104.979166667 176 104.979166667 253 74.5 c 0,21,22
 277 65 277 65 306 65 c 256,23,24
 437 65 437 65 437 255 c 256,25,26
 437 405.625 437 405.625 359 436.5 c 0,27,28
 335 446 335 446 306 446 c 256,29,30
 243.681818182 446 243.681818182 446 212 405 c 0,31,32
 176 358.411764706 176 358.411764706 176 255 c 256,19,20
EndSplineSet
EndChar

StartChar: c
Encoding: 99 99 80
Width: 544
Flags: HW
LayerCount: 2
Fore
SplineSet
495 200 m 1,0,1
 495 101.285714286 495 101.285714286 435 44.5 c 0,2,3
 377.41509434 -10 377.41509434 -10 284 -10 c 2,4,-1
 276 -10 l 2,5,6
 175.461538462 -10 175.461538462 -10 115 55.5 c 0,7,8
 51 124.833333333 51 124.833333333 51 243 c 2,9,-1
 51 267 l 2,10,11
 51 385.166666667 51 385.166666667 115 454.5 c 0,12,13
 176.384615385 521 176.384615385 521 275 521 c 2,14,-1
 283 521 l 2,15,16
 375.909090909 521 375.909090909 521 435.5 463.5 c 128,-1,17
 495 406.087719298 495 406.087719298 495 310 c 1,18,-1
 402 310 l 1,19,20
 402 404.446808511 402 404.446808511 332.5 435.5 c 0,21,22
 309 446 309 446 279.5 446 c 128,-1,23
 250 446 250 446 225.5 436 c 128,-1,24
 201 426 201 426 183 406.5 c 0,25,26
 145 365.333333333 145 365.333333333 145 291 c 2,27,-1
 145 237 l 2,28,29
 145 148 145 148 182 106.5 c 128,-1,30
 219 65 219 65 282.5 65 c 128,-1,31
 346 65 346 65 375.5 103 c 128,-1,32
 405 141 405 141 405 200 c 1,33,-1
 495 200 l 1,0,1
EndSplineSet
EndChar

StartChar: d
Encoding: 100 100 81
Width: 583
Flags: HW
LayerCount: 2
Fore
SplineSet
406 446 m 1,0,-1
 406 720 l 1,1,-1
 500 720 l 1,2,-1
 500 0 l 1,3,-1
 430 0 l 1,4,5
 425.428571429 19.4285714286 425.428571429 19.4285714286 417 70 c 1,6,7
 360.157894737 -10 360.157894737 -10 259 -10 c 0,8,9
 167.707692308 -10 167.707692308 -10 113 53.5 c 0,10,11
 52 124.303571429 52 124.303571429 52 256 c 2,12,-1
 52 267 l 2,13,14
 52 388.259259259 52 388.259259259 110 457 c 0,15,16
 164 521 164 521 258.863636364 521 c 128,-1,17
 353.727272727 521 353.727272727 521 406 446 c 1,0,-1
146 255 m 256,18,19
 146 104.979166667 146 104.979166667 223 74.5 c 0,20,21
 247 65 247 65 276 65 c 256,22,23
 407 65 407 65 407 255 c 256,24,25
 407 405.625 407 405.625 329 436.5 c 0,26,27
 305 446 305 446 276 446 c 256,28,29
 213.681818182 446 213.681818182 446 182 405 c 0,30,31
 146 358.411764706 146 358.411764706 146 255 c 256,18,19
EndSplineSet
EndChar

StartChar: e
Encoding: 101 101 82
Width: 556
Flags: HW
LayerCount: 2
Fore
SplineSet
145 234 m 1,0,1
 148.376811594 115.811594203 148.376811594 115.811594203 224 78 c 0,2,3
 250 65 250 65 289.5 65 c 128,-1,4
 329 65 329 65 354 80 c 128,-1,5
 379 95 379 95 392 115 c 0,6,7
 413 147.307692308 413 147.307692308 413 190 c 1,8,-1
 502 190 l 1,9,10
 502 99.1929824561 502 99.1929824561 441.5 44 c 0,11,12
 382.307692308 -10 382.307692308 -10 288 -10 c 2,13,-1
 284 -10 l 2,14,15
 178.907692308 -10 178.907692308 -10 116.5 56.5 c 0,16,17
 51 126.295081967 51 126.295081967 51 245 c 2,18,-1
 51 265 l 2,19,20
 51 384.213114754 51 384.213114754 115.5 454 c 0,21,22
 177.424242424 521 177.424242424 521 281 521 c 2,23,-1
 288 521 l 2,24,25
 383.464285714 521 383.464285714 521 442.5 463 c 0,26,27
 502 404.543859649 502 404.543859649 502 305 c 2,28,-1
 502 234 l 1,29,-1
 145 234 l 1,0,1
191 411.5 m 128,-1,31
 155 377 155 377 147 307 c 1,32,-1
 409 307 l 1,33,-1
 409 319 l 2,34,35
 409 379.176470588 409 379.176470588 372 414 c 0,36,37
 338 446 338 446 282.5 446 c 128,-1,30
 227 446 227 446 191 411.5 c 128,-1,31
EndSplineSet
EndChar

StartChar: f
Encoding: 102 102 83
Width: 338
Flags: HW
LayerCount: 2
Fore
SplineSet
103 580 m 2,0,1
 103 728 103 728 221.5 728 c 0,2,3
 278 728 278 728 316 709 c 1,4,-1
 316 640 l 1,5,6
 284.8 653 284.8 653 264.4 653 c 128,-1,7
 244 653 244 653 234 651 c 128,-1,8
 224 649 224 649 215.5 642.5 c 0,9,10
 197 628.352941176 197 628.352941176 197 590 c 2,11,-1
 197 511 l 1,12,-1
 316 511 l 1,13,-1
 316 436 l 1,14,-1
 197 436 l 1,15,-1
 197 0 l 1,16,-1
 103 0 l 1,17,-1
 103 436 l 1,18,-1
 47 436 l 1,19,-1
 47 511 l 1,20,-1
 103 511 l 1,21,-1
 103 580 l 2,0,1
EndSplineSet
EndChar

StartChar: g
Encoding: 103 103 84
Width: 568
Flags: HW
LayerCount: 2
Fore
SplineSet
447 470 m 1,0,1
 497 426.52173913 497 426.52173913 497 360 c 256,2,3
 497 291 497 291 447 247 c 0,4,5
 393.590909091 200 393.590909091 200 296 200 c 2,6,-1
 228 200 l 2,7,8
 198 200 198 200 178 184.5 c 128,-1,9
 158 169 158 169 158 145 c 128,-1,10
 158 121 158 121 177 107 c 128,-1,11
 196 93 196 93 228 93 c 2,12,-1
 421 93 l 2,13,14
 481.142857143 93 481.142857143 93 516.5 55.5 c 0,15,16
 551 18.9090909091 551 18.9090909091 551 -38 c 0,17,18
 551 -108.647058824 551 -108.647058824 495.5 -150 c 0,19,20
 444.5 -188 444.5 -188 361 -188 c 2,21,-1
 160 -188 l 2,22,23
 107.8 -188 107.8 -188 71.5 -149.5 c 0,24,25
 36 -111.848484848 36 -111.848484848 36 -68.4242424242 c 128,-1,26
 36 -25 36 -25 57 6 c 128,-1,27
 78 37 78 37 111 51 c 1,28,29
 65 80 65 80 65 134 c 0,30,31
 65 171 65 171 86.5 196.5 c 128,-1,32
 108 222 108 222 145 235 c 1,33,34
 78 273.285714286 78 273.285714286 78 360 c 0,35,36
 78 431.294117647 78 431.294117647 127.5 474 c 0,37,38
 181.977272727 521 181.977272727 521 284 521 c 2,39,-1
 288 521 l 2,40,41
 345 521 345 521 390 504 c 1,42,43
 461.105476673 538.685598377 461.105476673 538.685598377 471 603 c 1,44,-1
 551 603 l 1,45,46
 551 553 551 553 524 518 c 128,-1,47
 497 483 497 483 449 473 c 1,48,-1
 447 470 l 1,0,1
171 360 m 256,49,50
 171 313 171 313 204.5 294 c 128,-1,51
 238 275 238 275 287 275 c 256,52,53
 336 275 336 275 370 294 c 128,-1,54
 404 313 404 313 404 360 c 256,55,56
 404 407 404 407 370 426.5 c 128,-1,57
 336 446 336 446 287 446 c 256,58,59
 238 446 238 446 204.5 426.5 c 128,-1,60
 171 407 171 407 171 360 c 256,49,50
380 -113 m 2,61,62
 412 -113 412 -113 435 -94.5 c 128,-1,63
 458 -76 458 -76 458 -52 c 128,-1,64
 458 -28 458 -28 441.5 -12.5 c 128,-1,65
 425 3 425 3 393 3 c 2,66,-1
 187 3 l 2,67,68
 163 3 163 3 146 -14 c 128,-1,69
 129 -31 129 -31 129 -55 c 256,70,71
 129 -79 129 -79 146 -96 c 128,-1,72
 163 -113 163 -113 187 -113 c 2,73,-1
 380 -113 l 2,61,62
EndSplineSet
EndChar

StartChar: h
Encoding: 104 104 85
Width: 593
Flags: HW
LayerCount: 2
Fore
SplineSet
177 447 m 1,0,1
 239.9 521 239.9 521 335 521 c 0,2,3
 460.253731343 521 460.253731343 521 501 423.5 c 0,4,5
 515 390 515 390 515 344 c 2,6,-1
 515 0 l 1,7,-1
 421 0 l 1,8,-1
 421 327 l 2,9,10
 421 392 421 392 391 419 c 128,-1,11
 361 446 361 446 313 446 c 0,12,13
 259 446 259 446 218 405 c 128,-1,14
 177 364 177 364 177 304 c 2,15,-1
 177 0 l 1,16,-1
 83 0 l 1,17,-1
 83 720 l 1,18,-1
 177 720 l 1,19,-1
 177 447 l 1,0,1
EndSplineSet
EndChar

StartChar: i
Encoding: 105 105 86
Width: 260
Flags: HW
LayerCount: 2
Fore
SplineSet
83 0 m 1,0,-1
 83 511 l 1,1,-1
 177 511 l 1,2,-1
 177 0 l 1,3,-1
 83 0 l 1,0,-1
81 720 m 1,4,-1
 179 720 l 1,5,-1
 179 633 l 1,6,-1
 81 633 l 1,7,-1
 81 720 l 1,4,-1
EndSplineSet
EndChar

StartChar: j
Encoding: 106 106 87
Width: 260
Flags: HW
LayerCount: 2
Fore
SplineSet
-34 -97 m 1,0,1
 -1 -112 -1 -112 18 -112 c 128,-1,2
 37 -112 37 -112 47.5 -109.5 c 128,-1,3
 58 -107 58 -107 65.5 -100 c 0,4,5
 83 -83.6666666667 83 -83.6666666667 83 -44 c 2,6,-1
 83 511 l 1,7,-1
 177 511 l 1,8,-1
 177 -15 l 2,9,10
 177 -104 177 -104 149.5 -145 c 128,-1,11
 122 -186 122 -186 52 -186 c 0,12,13
 -0.222222222222 -186 -0.222222222222 -186 -34 -167 c 1,14,-1
 -34 -97 l 1,0,1
81 720 m 1,15,-1
 179 720 l 1,16,-1
 179 633 l 1,17,-1
 81 633 l 1,18,-1
 81 720 l 1,15,-1
EndSplineSet
EndChar

StartChar: k
Encoding: 107 107 88
Width: 535
Flags: HW
LayerCount: 2
Fore
SplineSet
407 0 m 1,0,-1
 254 190 l 1,1,-1
 177 110 l 1,2,-1
 177 0 l 1,3,-1
 83 0 l 1,4,-1
 83 720 l 1,5,-1
 177 720 l 1,6,-1
 177 226 l 1,7,-1
 405 511 l 1,8,-1
 508 511 l 1,9,-1
 311 263 l 1,10,-1
 521 0 l 1,11,-1
 407 0 l 1,0,-1
EndSplineSet
EndChar

StartChar: l
Encoding: 108 108 89
Width: 268
Flags: HW
LayerCount: 2
Fore
SplineSet
87 0 m 1,0,-1
 87 720 l 1,1,-1
 181 720 l 1,2,-1
 181 0 l 1,3,-1
 87 0 l 1,0,-1
EndSplineSet
EndChar

StartChar: m
Encoding: 109 109 90
Width: 867
Flags: HW
LayerCount: 2
Fore
SplineSet
389 327 m 2,0,1
 389 446 389 446 297 446 c 0,2,3
 248.105263158 446 248.105263158 446 212.5 405 c 128,-1,4
 177 364.121212121 177 364.121212121 177 304 c 2,5,-1
 177 0 l 1,6,-1
 83 0 l 1,7,-1
 83 511 l 1,8,-1
 151 511 l 1,9,-1
 164 436 l 1,10,11
 223.130434783 521 223.130434783 521 324.747035573 521 c 128,-1,12
 426.363636364 521 426.363636364 521 465 436 c 1,13,14
 502 488 502 488 542.5 504.5 c 128,-1,15
 583 521 583 521 621.5 521 c 128,-1,16
 660 521 660 521 690 510.5 c 128,-1,17
 720 500 720 500 742 478.5 c 0,18,19
 789 432.568181818 789 432.568181818 789 344 c 2,20,-1
 789 0 l 1,21,-1
 695 0 l 1,22,-1
 695 327 l 2,23,24
 695 446 695 446 603 446 c 0,25,26
 554.105263158 446 554.105263158 446 518.5 405 c 128,-1,27
 483 364.121212121 483 364.121212121 483 304 c 2,28,-1
 483 0 l 1,29,-1
 389 0 l 1,30,-1
 389 327 l 2,0,1
EndSplineSet
EndChar

StartChar: n
Encoding: 110 110 91
Width: 593
Flags: HW
LayerCount: 2
Fore
SplineSet
164 436 m 1,0,1
 228.673913043 521 228.673913043 521 335 521 c 0,2,3
 460.253731343 521 460.253731343 521 501 423.5 c 0,4,5
 515 390 515 390 515 344 c 2,6,-1
 515 0 l 1,7,-1
 421 0 l 1,8,-1
 421 327 l 2,9,10
 421 392 421 392 391 419 c 128,-1,11
 361 446 361 446 313 446 c 0,12,13
 259 446 259 446 218 405 c 128,-1,14
 177 364 177 364 177 304 c 2,15,-1
 177 0 l 1,16,-1
 83 0 l 1,17,-1
 83 511 l 1,18,-1
 151 511 l 1,19,-1
 164 436 l 1,0,1
EndSplineSet
EndChar

StartChar: o
Encoding: 111 111 92
Width: 574
Flags: HW
LayerCount: 2
Fore
SplineSet
428 265 m 2,0,1
 428 356.526315789 428 356.526315789 387 404 c 0,2,3
 350.727272727 446 350.727272727 446 287 446 c 256,4,5
 188.405797101 446 188.405797101 446 157 347.5 c 0,6,7
 146 313 146 313 146 265 c 2,8,-1
 146 246 l 2,9,10
 146 154.473684211 146 154.473684211 187 107 c 0,11,12
 223.272727273 65 223.272727273 65 287 65 c 256,13,14
 385.594202899 65 385.594202899 65 417 163.5 c 0,15,16
 428 198 428 198 428 246 c 2,17,-1
 428 265 l 2,0,1
522 237 m 2,18,19
 522 116.265625 522 116.265625 453 50.5 c 0,20,21
 389.524590164 -10 389.524590164 -10 287 -10 c 256,22,23
 184.475409836 -10 184.475409836 -10 121 50.5 c 0,24,25
 52 116.265625 52 116.265625 52 237 c 2,26,-1
 52 274 l 2,27,28
 52 394.734375 52 394.734375 121 460.5 c 0,29,30
 184.475409836 521 184.475409836 521 287 521 c 256,31,32
 389.524590164 521 389.524590164 521 453 460.5 c 0,33,34
 522 394.734375 522 394.734375 522 274 c 2,35,-1
 522 237 l 2,18,19
EndSplineSet
EndChar

StartChar: p
Encoding: 112 112 93
Width: 583
Flags: HW
LayerCount: 2
Fore
SplineSet
177 65 m 1,0,-1
 177 -181 l 1,1,-1
 83 -181 l 1,2,-1
 83 511 l 1,3,-1
 153 511 l 1,4,5
 157.571428571 491.571428571 157.571428571 491.571428571 166 441 c 1,6,7
 222.842105263 521 222.842105263 521 324 521 c 0,8,9
 415.292307692 521 415.292307692 521 470 457.5 c 0,10,11
 531 386.696428571 531 386.696428571 531 255 c 2,12,-1
 531 244 l 2,13,14
 531 122.740740741 531 122.740740741 473 54 c 0,15,16
 419 -10 419 -10 324.136363636 -10 c 128,-1,17
 229.272727273 -10 229.272727273 -10 177 65 c 1,0,-1
437 256 m 256,18,19
 437 406.020833333 437 406.020833333 360 436.5 c 0,20,21
 336 446 336 446 307 446 c 256,22,23
 243.681818182 446 243.681818182 446 212 405 c 0,24,25
 176 358.411764706 176 358.411764706 176 256 c 256,26,27
 176 104.551020408 176 104.551020408 253.5 74.5 c 0,28,29
 278 65 278 65 307 65 c 256,30,31
 369.318181818 65 369.318181818 65 401 106 c 0,32,33
 437 152.588235294 437 152.588235294 437 256 c 256,18,19
EndSplineSet
EndChar

StartChar: q
Encoding: 113 113 94
Width: 583
Flags: HW
LayerCount: 2
Fore
SplineSet
431 430 m 1,0,-1
 464 511 l 1,1,-1
 500 511 l 1,2,-1
 500 -180 l 1,3,-1
 406 -180 l 1,4,-1
 406 65 l 1,5,6
 384 34 384 34 345 12 c 128,-1,7
 306 -10 306 -10 258 -10 c 128,-1,8
 210 -10 210 -10 173.5 6 c 128,-1,9
 137 22 137 22 110 54 c 0,10,11
 52 122.740740741 52 122.740740741 52 244 c 2,12,-1
 52 255 l 2,13,14
 52 386.696428571 52 386.696428571 113 457.5 c 0,15,16
 167.707692308 521 167.707692308 521 259 521 c 0,17,18
 373 521 373 521 431 430 c 1,0,-1
407 256 m 256,19,20
 407 406.020833333 407 406.020833333 330 436.5 c 0,21,22
 306 446 306 446 277 446 c 256,23,24
 213.681818182 446 213.681818182 446 182 405 c 0,25,26
 146 358.411764706 146 358.411764706 146 256 c 256,27,28
 146 104.551020408 146 104.551020408 223.5 74.5 c 0,29,30
 248 65 248 65 277 65 c 256,31,32
 339.318181818 65 339.318181818 65 371 106 c 0,33,34
 407 152.588235294 407 152.588235294 407 256 c 256,19,20
EndSplineSet
EndChar

StartChar: r
Encoding: 114 114 95
Width: 490
Flags: HW
LayerCount: 2
Fore
SplineSet
464 361 m 1,0,-1
 461 323 l 1,1,-1
 378 323 l 1,2,-1
 378 345 l 2,3,4
 378 379.791666667 378 379.791666667 360.5 402.395833333 c 0,5,6
 326.741935484 446 326.741935484 446 279 446 c 0,7,8
 226.219512195 446 226.219512195 446 199 399.5 c 0,9,10
 177 361.916666667 177 361.916666667 177 305 c 2,11,-1
 177 0 l 1,12,-1
 83 0 l 1,13,-1
 83 511 l 1,14,-1
 150 511 l 1,15,-1
 164 435 l 1,16,17
 178.852348993 479.55704698 178.852348993 479.55704698 246 508.5 c 0,18,19
 275 521 275 521 313 521 c 128,-1,20
 351 521 351 521 378.5 508.5 c 128,-1,21
 406 496 406 496 425 474.5 c 0,22,23
 464 430.368421053 464 430.368421053 464 361 c 1,0,-1
EndSplineSet
EndChar

StartChar: s
Encoding: 115 115 96
Width: 534
Flags: HW
LayerCount: 2
Fore
SplineSet
45 138 m 1,0,-1
 46 160 l 1,1,-1
 139 160 l 1,2,-1
 139 150 l 2,3,4
 139 86.6666666667 139 86.6666666667 219 70 c 0,5,6
 243 65 243 65 282 65 c 128,-1,7
 321 65 321 65 356 83.5 c 128,-1,8
 391 102 391 102 391 136 c 128,-1,9
 391 170 391 170 366.5 185.5 c 128,-1,10
 342 201 342 201 305 209.5 c 128,-1,11
 268 218 268 218 225.5 225 c 128,-1,12
 183 232 183 232 146 247.5 c 128,-1,13
 109 263 109 263 84.5 290.5 c 128,-1,14
 60 318 60 318 60 369 c 0,15,16
 60 440 60 440 116 480.5 c 128,-1,17
 172 521 172 521 269 521 c 2,18,-1
 278 521 l 2,19,20
 367.052631579 521 367.052631579 521 421 480 c 0,21,22
 473 440.48 473 440.48 473 382 c 1,23,-1
 472 364 l 1,24,-1
 379 364 l 1,25,-1
 379 373 l 2,26,27
 379 446 379 446 266 446 c 0,28,29
 175.375 446 175.375 446 158.5 401 c 0,30,31
 154 389 154 389 154 379 c 0,32,33
 154 351 154 351 178.5 337 c 128,-1,34
 203 323 203 323 240 315 c 128,-1,35
 277 307 277 307 319.5 299.5 c 128,-1,36
 362 292 362 292 399 276.5 c 0,37,38
 485 240.472972973 485 240.472972973 485 154 c 0,39,40
 485 66.8983050847 485 66.8983050847 421.5 26 c 0,41,42
 365.605263158 -10 365.605263158 -10 268 -10 c 2,43,-1
 253 -10 l 2,44,45
 151.357142857 -10 151.357142857 -10 95.5 36 c 0,46,47
 45 77.5882352941 45 77.5882352941 45 138 c 1,0,-1
EndSplineSet
EndChar

StartChar: t
Encoding: 116 116 97
Width: 346
Flags: HW
LayerCount: 2
Fore
SplineSet
250 63 m 256,0,1
 276 63 276 63 312 78 c 1,2,-1
 312 8 l 1,3,4
 276 -10 276 -10 218.5 -10 c 128,-1,5
 161 -10 161 -10 130 24 c 128,-1,6
 99 58 99 58 99 136 c 2,7,-1
 99 436 l 1,8,-1
 43 436 l 1,9,-1
 43 511 l 1,10,-1
 102 511 l 1,11,-1
 134 674 l 1,12,-1
 193 674 l 1,13,-1
 193 511 l 1,14,-1
 312 511 l 1,15,-1
 312 436 l 1,16,-1
 193 436 l 1,17,-1
 193 131 l 2,18,19
 193 74.5 193 74.5 229 65.5 c 0,20,21
 239 63 239 63 250 63 c 256,0,1
EndSplineSet
EndChar

StartChar: u
Encoding: 117 117 98
Width: 618
Flags: HW
LayerCount: 2
Fore
SplineSet
583 10 m 1,0,1
 553 -10 553 -10 519.5 -10 c 128,-1,2
 486 -10 486 -10 469.5 -3 c 128,-1,3
 453 4 453 4 442.5 15.5 c 0,4,5
 423.19760479 36.6407185629 423.19760479 36.6407185629 421 74 c 1,6,7
 382.133333333 17.4666666667 382.133333333 17.4666666667 310.5 -3 c 0,8,9
 286 -10 286 -10 253.5 -10 c 128,-1,10
 221 -10 221 -10 188 0.5 c 128,-1,11
 155 11 155 11 130.5 32.5 c 0,12,13
 78 78.5714285714 78 78.5714285714 78 167 c 2,14,-1
 78 511 l 1,15,-1
 172 511 l 1,16,-1
 172 184 l 2,17,18
 172 119 172 119 202 92 c 128,-1,19
 232 65 232 65 280 65 c 0,20,21
 334 65 334 65 375 106 c 128,-1,22
 416 147 416 147 416 207 c 2,23,-1
 416 511 l 1,24,-1
 510 511 l 1,25,-1
 510 100 l 2,26,27
 510 81 510 81 518.5 73 c 128,-1,28
 527 65 527 65 538 65 c 256,29,30
 560.6 65 560.6 65 583 79 c 1,31,-1
 583 10 l 1,0,1
EndSplineSet
EndChar

StartChar: v
Encoding: 118 118 99
Width: 512
Flags: HW
LayerCount: 2
Fore
SplineSet
306 0 m 1,0,-1
 206 0 l 1,1,-1
 12 511 l 1,2,-1
 112 511 l 1,3,-1
 258 120 l 1,4,-1
 262 120 l 1,5,-1
 408 511 l 1,6,-1
 500 511 l 1,7,-1
 306 0 l 1,0,-1
EndSplineSet
EndChar

StartChar: w
Encoding: 119 119 100
Width: 811
Flags: HW
LayerCount: 2
Fore
SplineSet
402 357 m 1,0,-1
 286 0 l 1,1,-1
 188 0 l 1,2,-1
 20 511 l 1,3,-1
 117 511 l 1,4,-1
 236 137 l 1,5,-1
 240 137 l 1,6,-1
 361 511 l 1,7,-1
 453 511 l 1,8,-1
 572 137 l 1,9,-1
 576 137 l 1,10,-1
 697 511 l 1,11,-1
 789 511 l 1,12,-1
 622 0 l 1,13,-1
 524 0 l 1,14,-1
 406 357 l 1,15,-1
 402 357 l 1,0,-1
EndSplineSet
EndChar

StartChar: x
Encoding: 120 120 101
Width: 519
Flags: HW
LayerCount: 2
Fore
SplineSet
18 0 m 1,0,-1
 206 259 l 1,1,-1
 28 511 l 1,2,-1
 140 511 l 1,3,-1
 263 337 l 1,4,-1
 389 511 l 1,5,-1
 492 511 l 1,6,-1
 313 265 l 1,7,-1
 501 0 l 1,8,-1
 389 0 l 1,9,-1
 256 187 l 1,10,-1
 121 0 l 1,11,-1
 18 0 l 1,0,-1
EndSplineSet
EndChar

StartChar: y
Encoding: 121 121 102
Width: 512
Flags: HW
LayerCount: 2
Fore
SplineSet
47 -95 m 1,0,1
 77.8 -109 77.8 -109 96.9 -109 c 128,-1,2
 116 -109 116 -109 129 -105.5 c 128,-1,3
 142 -102 142 -102 156 -90 c 0,4,5
 190.278350515 -60.618556701 190.278350515 -60.618556701 211 5 c 1,6,-1
 12 511 l 1,7,-1
 112 511 l 1,8,-1
 259 134 l 1,9,-1
 263 134 l 1,10,-1
 408 511 l 1,11,-1
 500 511 l 1,12,-1
 309 20 l 1,13,14
 267.369936034 -82.8507462687 267.369936034 -82.8507462687 239.184968017 -117.925373134 c 128,-1,15
 211 -153 211 -153 183 -169.5 c 128,-1,16
 155 -186 155 -186 116.5 -186 c 128,-1,17
 78 -186 78 -186 47 -172 c 1,18,-1
 47 -95 l 1,0,1
EndSplineSet
EndChar

StartChar: z
Encoding: 122 122 103
Width: 463
Flags: HW
LayerCount: 2
Fore
SplineSet
36 0 m 1,0,-1
 36 38 l 1,1,-1
 285 436 l 1,2,-1
 51 436 l 1,3,-1
 51 511 l 1,4,-1
 415 511 l 1,5,-1
 415 474 l 1,6,-1
 165 75 l 1,7,-1
 423 75 l 1,8,-1
 423 0 l 1,9,-1
 36 0 l 1,0,-1
EndSplineSet
EndChar

StartChar: braceleft
Encoding: 123 123 104
Width: 315
Flags: HW
LayerCount: 2
Fore
SplineSet
40 303 m 1,0,1
 90.9090909091 303 90.9090909091 303 110 333 c 0,2,3
 117 344 117 344 117 360 c 2,4,-1
 117 546 l 2,5,6
 117 663.719298246 117 663.719298246 215.5 681 c 0,7,8
 244 686 244 686 275 686 c 1,9,-1
 275 636 l 1,10,11
 241.25 636 241.25 636 226.125 625 c 0,12,13
 196 603.090909091 196 603.090909091 196 559.545454545 c 128,-1,14
 196 516 196 516 193.5 468 c 128,-1,15
 191 420 191 420 189 371 c 256,16,17
 187 322 187 322 168 295 c 128,-1,18
 149 268 149 268 100 268 c 1,19,-1
 100 259 l 1,20,21
 149 259 149 259 168 232 c 128,-1,22
 187 205 187 205 189 156 c 256,23,24
 191 107 191 107 193.5 59 c 128,-1,25
 196 11 196 11 196 -24.5 c 128,-1,26
 196 -60 196 -60 203.5 -73.5 c 128,-1,27
 211 -87 211 -87 222 -95 c 0,28,29
 241.25 -109 241.25 -109 275 -109 c 1,30,-1
 275 -159 l 1,31,32
 201.666666667 -159 201.666666667 -159 165 -134 c 0,33,34
 117 -101.272727273 117 -101.272727273 117 -19 c 2,35,-1
 117 167 l 2,36,37
 117 195.090909091 117 195.090909091 92 211 c 0,38,39
 71.5714285714 224 71.5714285714 224 40 224 c 1,40,-1
 40 303 l 1,0,1
EndSplineSet
EndChar

StartChar: bar
Encoding: 124 124 105
Width: 248
Flags: HW
LayerCount: 2
Fore
SplineSet
84 -199 m 1,0,-1
 84 721 l 1,1,-1
 164 721 l 1,2,-1
 164 -199 l 1,3,-1
 84 -199 l 1,0,-1
EndSplineSet
EndChar

StartChar: braceright
Encoding: 125 125 106
Width: 315
Flags: HW
LayerCount: 2
Fore
SplineSet
275 224 m 1,0,1
 225.333333333 224 225.333333333 224 205 193.5 c 0,2,3
 198 183 198 183 198 167 c 2,4,-1
 198 -19 l 2,5,6
 198 -136.719298246 198 -136.719298246 99.5 -154 c 0,7,8
 71 -159 71 -159 40 -159 c 1,9,-1
 40 -109 l 1,10,11
 73.75 -109 73.75 -109 88.875 -98 c 0,12,13
 119 -76.0909090909 119 -76.0909090909 119 -32.5454545455 c 128,-1,14
 119 11 119 11 121.5 59 c 128,-1,15
 124 107 124 107 126 156 c 256,16,17
 128 205 128 205 147 232 c 128,-1,18
 166 259 166 259 215 259 c 1,19,-1
 215 268 l 1,20,21
 166 268 166 268 147 295 c 128,-1,22
 128 322 128 322 126 371 c 256,23,24
 124 420 124 420 121.5 468 c 128,-1,25
 119 516 119 516 119 551.5 c 128,-1,26
 119 587 119 587 111.5 600.5 c 128,-1,27
 104 614 104 614 93 622 c 0,28,29
 73.75 636 73.75 636 40 636 c 1,30,-1
 40 686 l 1,31,32
 113.333333333 686 113.333333333 686 150 661 c 0,33,34
 198 628.272727273 198 628.272727273 198 546 c 2,35,-1
 198 360 l 2,36,37
 198 317 198 317 247.5 306 c 0,38,39
 261 303 261 303 275 303 c 1,40,-1
 275 224 l 1,0,1
EndSplineSet
EndChar

StartChar: asciitilde
Encoding: 126 126 107
Width: 689
Flags: HW
LayerCount: 2
Fore
SplineSet
628 301 m 1,0,1
 589.714285714 258.885714286 589.714285714 258.885714286 530 235 c 0,2,3
 500 223 500 223 466.5 223 c 128,-1,4
 433 223 433 223 404.5 233.5 c 128,-1,5
 376 244 376 244 347.5 256 c 128,-1,6
 319 268 319 268 289.5 278.5 c 128,-1,7
 260 289 260 289 225.5 289 c 0,8,9
 171.285714286 289 171.285714286 289 110 250 c 1,10,11
 84 232 84 232 64 211 c 1,12,-1
 64 296 l 1,13,14
 84 317 84 317 108 333 c 0,15,16
 169.5 374 169.5 374 227 374 c 0,17,18
 259 374 259 374 287.5 363.5 c 128,-1,19
 316 353 316 353 344.5 341 c 128,-1,20
 373 329 373 329 402.5 318.5 c 128,-1,21
 432 308 432 308 466 308 c 0,22,23
 524.8 308 524.8 308 582 347 c 0,24,25
 608 364 608 364 628 386 c 1,26,-1
 628 301 l 1,0,1
EndSplineSet
EndChar

StartChar: dagger
Encoding: 8224 8224 108
Width: 510
Flags: HW
LayerCount: 2
Fore
SplineSet
282 435 m 1,0,-1
 302 -170 l 1,1,-1
 208 -170 l 1,2,-1
 228 435 l 1,3,-1
 23 417 l 1,4,-1
 23 510 l 1,5,-1
 228 493 l 1,6,-1
 211 686 l 1,7,-1
 299 686 l 1,8,-1
 282 493 l 1,9,-1
 487 510 l 1,10,-1
 487 417 l 1,11,-1
 282 435 l 1,0,-1
EndSplineSet
EndChar

StartChar: degree
Encoding: 176 176 109
Width: 394
Flags: HW
LayerCount: 2
Fore
SplineSet
347 546 m 256,0,1
 347 483.414634146 347 483.414634146 302.5 440 c 0,2,3
 257.4 396 257.4 396 197 396 c 256,4,5
 136.6 396 136.6 396 91.5 440 c 0,6,7
 47 483.414634146 47 483.414634146 47 546 c 256,8,9
 47 606.4 47 606.4 91 651.5 c 0,10,11
 134.414634146 696 134.414634146 696 197 696 c 256,12,13
 258 696 258 696 302.5 651.5 c 128,-1,14
 347 607 347 607 347 546 c 256,0,1
290 545 m 256,15,16
 290 582.6 290 582.6 262.5 609 c 0,17,18
 235.416666667 635 235.416666667 635 196 635 c 256,19,20
 157.583333333 635 157.583333333 635 130.5 609 c 0,21,22
 103 582.6 103 582.6 103 545 c 256,23,24
 103 507.4 103 507.4 130.5 481 c 0,25,26
 157.583333333 455 157.583333333 455 197 455 c 0,27,28
 235.416666667 455 235.416666667 455 262.5 481 c 0,29,30
 290 507.4 290 507.4 290 545 c 256,15,16
EndSplineSet
EndChar

StartChar: cent
Encoding: 162 162 110
Width: 527
Flags: HW
LayerCount: 2
Fore
SplineSet
492 288 m 1,0,1
 492 195.68 492 195.68 439 139.5 c 0,2,3
 387.776569451 85.2031636184 387.776569451 85.2031636184 303 79 c 1,4,-1
 314 -7 l 1,5,-1
 241 -7 l 1,6,-1
 251 79 l 1,7,8
 160.546345139 85.1672946496 160.546345139 85.1672946496 105 151 c 0,9,10
 48 218.555555556 48 218.555555556 48 331 c 2,11,-1
 48 355 l 2,12,13
 48 466.888888889 48 466.888888889 105 535.5 c 0,14,15
 160.080800593 601.800963677 160.080800593 601.800963677 251 608 c 1,16,-1
 241 693 l 1,17,-1
 314 693 l 1,18,-1
 303 608 l 1,19,20
 435.096774194 595.419354839 435.096774194 595.419354839 478 480.5 c 0,21,22
 492 443 492 443 492 398 c 1,23,-1
 399 398 l 1,24,25
 399 492.446808511 399 492.446808511 329.5 523.5 c 0,26,27
 306 534 306 534 276.5 534 c 128,-1,28
 247 534 247 534 222.5 524 c 128,-1,29
 198 514 198 514 180 494.5 c 0,30,31
 142 453.333333333 142 453.333333333 142 379 c 2,32,-1
 142 325 l 2,33,34
 142 236 142 236 179 194.5 c 128,-1,35
 216 153 216 153 279.5 153 c 128,-1,36
 343 153 343 153 372.5 191 c 128,-1,37
 402 229 402 229 402 288 c 1,38,-1
 492 288 l 1,0,1
EndSplineSet
EndChar

StartChar: sterling
Encoding: 163 163 111
Width: 597
Flags: HW
LayerCount: 2
Fore
SplineSet
29 382 m 1,0,-1
 155 382 l 1,1,-1
 155 499 l 2,2,3
 155 594.381818182 155 594.381818182 213.5 646.5 c 0,4,5
 269.06122449 696 269.06122449 696 358 696 c 2,6,-1
 367 696 l 2,7,8
 505 696 505 696 550 585 c 0,9,10
 565 548 565 548 565 499 c 2,11,-1
 565 490 l 1,12,-1
 467 490 l 1,13,-1
 467 505 l 2,14,15
 467 550.103448276 467 550.103448276 436.5 578.5 c 128,-1,16
 405.888888889 607 405.888888889 607 359.444444444 607 c 128,-1,17
 313 607 313 607 283 579.5 c 128,-1,18
 253 552 253 552 253 505 c 2,19,-1
 253 382 l 1,20,-1
 440 382 l 1,21,-1
 440 293 l 1,22,-1
 253 293 l 1,23,-1
 236 89 l 1,24,-1
 539 89 l 1,25,-1
 539 0 l 1,26,-1
 65 0 l 1,27,-1
 65 89 l 1,28,-1
 155 89 l 1,29,-1
 155 293 l 1,30,-1
 29 293 l 1,31,-1
 29 382 l 1,0,-1
EndSplineSet
EndChar

StartChar: section
Encoding: 167 167 112
Width: 514
Flags: HW
LayerCount: 2
Fore
SplineSet
38 262 m 0,0,1
 38 361 38 361 123 412 c 1,2,3
 91 435 91 435 70.5 466 c 128,-1,4
 50 497 50 497 50 544 c 0,5,6
 50 615 50 615 106 655.5 c 128,-1,7
 162 696 162 696 259 696 c 2,8,-1
 268 696 l 2,9,10
 357.052631579 696 357.052631579 696 411 655 c 0,11,12
 463 615.48 463 615.48 463 557 c 1,13,-1
 462 539 l 1,14,-1
 369 539 l 1,15,-1
 369 548 l 2,16,17
 369 621 369 621 256 621 c 0,18,19
 165.375 621 165.375 621 148.5 576 c 0,20,21
 144 564 144 564 144 554 c 0,22,23
 144 519 144 519 168.5 496 c 128,-1,24
 193 473 193 473 230 454.5 c 128,-1,25
 267 436 267 436 309.5 419 c 128,-1,26
 352 402 352 402 389 380 c 0,27,28
 475 328.864864865 475 328.864864865 475 248 c 0,29,30
 475 149.6 475 149.6 389 98 c 1,31,32
 463 44.8125 463 44.8125 463 -30.09375 c 128,-1,33
 463 -105 463 -105 407 -145.5 c 128,-1,34
 351 -186 351 -186 254 -186 c 2,35,-1
 245 -186 l 2,36,37
 155.947368421 -186 155.947368421 -186 102 -145 c 0,38,39
 50 -105.48 50 -105.48 50 -47 c 1,40,-1
 51 -29 l 1,41,-1
 144 -29 l 1,42,-1
 144 -38 l 2,43,44
 144 -111 144 -111 257 -111 c 0,45,46
 347.625 -111 347.625 -111 364.5 -66 c 0,47,48
 369 -54 369 -54 369 -44 c 0,49,50
 369 -9 369 -9 344.5 14 c 128,-1,51
 320 37 320 37 283 55.5 c 128,-1,52
 246 74 246 74 203.5 91 c 128,-1,53
 161 108 161 108 124 130 c 0,54,55
 38 181.135135135 38 181.135135135 38 262 c 0,0,1
324 134 m 1,56,57
 382 172.666666667 382 172.666666667 382 222 c 0,58,59
 382 274.363636364 382 274.363636364 319.5 313 c 0,60,61
 292 330 292 330 257.5 344.5 c 128,-1,62
 223 359 223 359 189 375 c 1,63,64
 170 364 170 364 150.5 342.5 c 128,-1,65
 131 321 131 321 131 289 c 128,-1,66
 131 257 131 257 148.5 235 c 128,-1,67
 166 213 166 213 193.5 196 c 128,-1,68
 221 179 221 179 255.5 164.5 c 128,-1,69
 290 150 290 150 324 134 c 1,56,57
EndSplineSet
EndChar

StartChar: bullet
Encoding: 8226 8226 113
Width: 600
Flags: HW
LayerCount: 2
Fore
SplineSet
450 343.5 m 0,0,1
 450 312 450 312 438 284.5 c 128,-1,2
 426 257 426 257 405.5 236 c 0,3,4
 361.571428571 191 361.571428571 191 299 191 c 256,5,6
 237.428571429 191 237.428571429 191 193.5 236 c 0,7,8
 150 280.56097561 150 280.56097561 150 344 c 0,9,10
 150 408 150 408 193.5 451.5 c 0,11,12
 238 496 238 496 299 496 c 256,13,14
 361 496 361 496 405.5 451.5 c 128,-1,15
 450 407 450 407 450 343.5 c 0,0,1
EndSplineSet
EndChar

StartChar: paragraph
Encoding: 182 182 114
Width: 524
Flags: HW
LayerCount: 2
Fore
SplineSet
217 250 m 1,0,1
 134.651558074 260.042492918 134.651558074 260.042492918 80 321 c 0,2,3
 25 382.346153846 25 382.346153846 25 467 c 0,4,5
 25 557.423728814 25 557.423728814 88.5 622 c 0,6,7
 151.433333333 686 151.433333333 686 243 686 c 2,8,-1
 481 686 l 1,9,-1
 481 625 l 1,10,-1
 415 625 l 1,11,-1
 415 -169 l 1,12,-1
 352 -169 l 1,13,-1
 352 625 l 1,14,-1
 280 625 l 1,15,-1
 280 -169 l 1,16,-1
 217 -169 l 1,17,-1
 217 250 l 1,0,1
EndSplineSet
EndChar

StartChar: germandbls
Encoding: 223 223 115
Width: 614
Flags: HW
LayerCount: 2
Fore
SplineSet
565 200 m 0,0,1
 565 162 565 162 547.5 123.5 c 128,-1,2
 530 85 530 85 500 57.5 c 0,3,4
 437.272727273 -1.7763568394e-14 437.272727273 -1.7763568394e-14 342 0 c 2,5,-1
 259 0 l 1,6,-1
 259 75 l 1,7,-1
 332 75 l 2,8,9
 391.552631579 75 391.552631579 75 430.5 115 c 0,10,11
 471 156.594594595 471 156.594594595 471 214 c 0,12,13
 471 267.594594595 471 267.594594595 430.5 307 c 0,14,15
 390.416666667 346 390.416666667 346 332 346 c 2,16,-1
 259 346 l 1,17,-1
 259 420 l 1,18,-1
 324 420 l 2,19,20
 376.4375 420 376.4375 420 411.5 454 c 0,21,22
 448 489.393939394 448 489.393939394 448 539.696969697 c 128,-1,23
 448 590 448 590 416 621.5 c 128,-1,24
 384 653 384 653 327 653 c 128,-1,25
 270 653 270 653 234 614.5 c 128,-1,26
 198 576 198 576 198 513 c 2,27,-1
 198 -66 l 1,28,-1
 104 -66 l 1,29,-1
 104 436 l 1,30,-1
 46 436 l 1,31,-1
 46 511 l 1,32,-1
 104 511 l 1,33,34
 105.965872505 611.259497746 105.965872505 611.259497746 171 670 c 0,35,36
 235.214285714 728 235.214285714 728 331 728 c 0,37,38
 421.3125 728 421.3125 728 479.5 679 c 0,39,40
 542 626.368421053 542 626.368421053 542 543 c 0,41,42
 542 493 542 493 514 450.5 c 128,-1,43
 486 408 486 408 442 391 c 1,44,-1
 444 387 l 1,45,46
 497.061116965 367.347734457 497.061116965 367.347734457 531 317.5 c 128,-1,47
 565 267.5625 565 267.5625 565 200 c 0,0,1
EndSplineSet
EndChar

StartChar: registered
Encoding: 174 174 116
Width: 780
Flags: HW
LayerCount: 2
Fore
SplineSet
716 481 m 128,-1,1
 744 417 744 417 744 343.5 c 128,-1,2
 744 270 744 270 716 205.5 c 128,-1,3
 688 141 688 141 640 93 c 128,-1,4
 592 45 592 45 527.5 17.5 c 128,-1,5
 463 -10 463 -10 389.5 -10 c 128,-1,6
 316 -10 316 -10 251.5 17.5 c 128,-1,7
 187 45 187 45 139 93 c 128,-1,8
 91 141 91 141 63.5 205.5 c 128,-1,9
 36 270 36 270 36 343.5 c 128,-1,10
 36 417 36 417 63.5 481 c 128,-1,11
 91 545 91 545 139 593 c 128,-1,12
 187 641 187 641 251.5 668.5 c 128,-1,13
 316 696 316 696 389.5 696 c 128,-1,14
 463 696 463 696 527.5 668.5 c 128,-1,15
 592 641 592 641 640 593 c 128,-1,0
 688 545 688 545 716 481 c 128,-1,1
704 343.5 m 0,16,17
 704 411 704 411 680 468 c 128,-1,18
 656 525 656 525 613.5 567 c 0,19,20
 523.44047619 656 523.44047619 656 390 656 c 0,21,22
 255 656 255 656 166 567 c 0,23,24
 76 477 76 477 76 344 c 0,25,26
 76 209 76 209 166 119 c 0,27,28
 255 30 255 30 390 30 c 0,29,30
 523.44047619 30 523.44047619 30 613.5 119 c 0,31,32
 704 208.435294118 704 208.435294118 704 343.5 c 0,16,17
571 138 m 1,33,34
 556 132 556 132 540.5 132 c 128,-1,35
 525 132 525 132 514 135 c 128,-1,36
 503 138 503 138 494.5 147 c 0,37,38
 476 166.588235294 476 166.588235294 476 204.294117647 c 128,-1,39
 476 242 476 242 469.5 262.5 c 128,-1,40
 463 283 463 283 453.5 295.5 c 0,41,42
 435.64 319 435.64 319 409 319 c 2,43,-1
 310 319 l 1,44,-1
 310 135 l 1,45,-1
 246 135 l 1,46,-1
 246 547 l 1,47,-1
 433 547 l 2,48,49
 478.222222222 547 478.222222222 547 512 518.5 c 0,50,51
 547 488.96875 547 488.96875 547 448.984375 c 128,-1,52
 547 409 547 409 526.5 383 c 128,-1,53
 506 357 506 357 480 347 c 1,54,55
 520.106382979 330.957446809 520.106382979 330.957446809 534.5 276 c 0,56,57
 540 255 540 255 540 228 c 128,-1,58
 540 201 540 201 544 182.5 c 128,-1,59
 548 164 548 164 571 156 c 1,60,-1
 571 138 l 1,33,34
484 435 m 2,61,62
 484 459 484 459 465.5 475.5 c 128,-1,63
 447 492 447 492 421 492 c 2,64,-1
 310 492 l 1,65,-1
 310 373 l 1,66,-1
 421 373 l 2,67,68
 447 373 447 373 465.5 390 c 128,-1,69
 484 407 484 407 484 431 c 2,70,-1
 484 435 l 2,61,62
EndSplineSet
EndChar

StartChar: copyright
Encoding: 169 169 117
Width: 780
Flags: HW
LayerCount: 2
Fore
SplineSet
491 401 m 2,0,1
 491 447.888888889 491 447.888888889 460.5 475 c 0,2,3
 433.5 499 433.5 499 393 499 c 0,4,5
 321.540540541 499 321.540540541 499 296.5 444.5 c 0,6,7
 288 426 288 426 288 401 c 2,8,-1
 288 286 l 2,9,10
 288 236.4 288 236.4 321 210 c 0,11,12
 349.75 187 349.75 187 393.375 187 c 128,-1,13
 437 187 437 187 465 215 c 128,-1,14
 493 243 493 243 493 296 c 1,15,-1
 558 296 l 1,16,17
 558 214.295454545 558 214.295454545 511 170.5 c 0,18,19
 466.463414634 129 466.463414634 129 396 129 c 2,20,-1
 391 129 l 2,21,22
 317 129 317 129 271 171 c 0,23,24
 221 216.652173913 221 216.652173913 221 300 c 2,25,-1
 221 386 l 2,26,27
 221 468.347826087 221 468.347826087 271 514 c 0,28,29
 317 556 317 556 390 556 c 2,30,-1
 395 556 l 2,31,32
 509.171875 556 509.171875 556 545.5 463 c 0,33,34
 558 431 558 431 558 388 c 1,35,-1
 491 388 l 1,36,-1
 491 401 l 2,0,1
716 481 m 128,-1,38
 744 417 744 417 744 343.5 c 128,-1,39
 744 270 744 270 716 205.5 c 128,-1,40
 688 141 688 141 640 93 c 128,-1,41
 592 45 592 45 527.5 17.5 c 128,-1,42
 463 -10 463 -10 389.5 -10 c 128,-1,43
 316 -10 316 -10 251.5 17.5 c 128,-1,44
 187 45 187 45 139 93 c 128,-1,45
 91 141 91 141 63.5 205.5 c 128,-1,46
 36 270 36 270 36 343.5 c 128,-1,47
 36 417 36 417 63.5 481 c 128,-1,48
 91 545 91 545 139 593 c 128,-1,49
 187 641 187 641 251.5 668.5 c 128,-1,50
 316 696 316 696 389.5 696 c 128,-1,51
 463 696 463 696 527.5 668.5 c 128,-1,52
 592 641 592 641 640 593 c 128,-1,37
 688 545 688 545 716 481 c 128,-1,38
703 343 m 0,53,54
 703 410 703 410 679 467 c 128,-1,55
 655 524 655 524 612.5 566 c 0,56,57
 522.44047619 655 522.44047619 655 390 655 c 0,58,59
 255 655 255 655 166 566 c 0,60,61
 76 476 76 476 76 344 c 0,62,63
 76 209 76 209 166 119 c 0,64,65
 255 30 255 30 390 30 c 0,66,67
 522.44047619 30 522.44047619 30 612.5 119 c 0,68,69
 703 208.435294118 703 208.435294118 703 343 c 0,53,54
EndSplineSet
EndChar

StartChar: trademark
Encoding: 8482 8482 118
Width: 897
Flags: HW
LayerCount: 2
Fore
SplineSet
236 626 m 1,0,-1
 236 288 l 1,1,-1
 171 288 l 1,2,-1
 171 626 l 1,3,-1
 46 626 l 1,4,-1
 46 686 l 1,5,-1
 360 686 l 1,6,-1
 360 626 l 1,7,-1
 236 626 l 1,0,-1
758 603 m 1,8,-1
 630 288 l 1,9,-1
 568 288 l 1,10,11
 536 366 536 366 505 444 c 128,-1,12
 474 522 474 522 442 600 c 1,13,-1
 442 288 l 1,14,-1
 384 288 l 1,15,-1
 384 686 l 1,16,-1
 483 686 l 1,17,18
 513 611 513 611 543 535.5 c 128,-1,19
 573 460 573 460 604 385 c 1,20,-1
 727 686 l 1,21,-1
 825 686 l 1,22,-1
 825 288 l 1,23,-1
 760 288 l 1,24,-1
 760 445.5 l 2,25,26
 760 524 760 524 758 603 c 1,8,-1
EndSplineSet
EndChar

StartChar: acute
Encoding: 180 180 119
Width: 333
Flags: HW
LayerCount: 2
Fore
SplineSet
68 575 m 1,0,-1
 162 720 l 1,1,-1
 252 720 l 1,2,-1
 253 717 l 1,3,-1
 137 575 l 1,4,-1
 68 575 l 1,0,-1
EndSplineSet
EndChar

StartChar: dieresis
Encoding: 168 168 120
Width: 440
Flags: HW
LayerCount: 2
Fore
SplineSet
81 731 m 1,0,-1
 171 731 l 1,1,-1
 171 633 l 1,2,-1
 81 633 l 1,3,-1
 81 731 l 1,0,-1
269 731 m 1,4,-1
 360 731 l 1,5,-1
 360 633 l 1,6,-1
 269 633 l 1,7,-1
 269 731 l 1,4,-1
EndSplineSet
EndChar

StartChar: AE
Encoding: 198 198 121
Width: 983
Flags: HW
LayerCount: 2
Fore
SplineSet
507 149 m 1,0,-1
 179 149 l 1,1,-1
 101 0 l 1,2,-1
 7 0 l 1,3,-1
 371 686 l 1,4,-1
 932 686 l 1,5,-1
 919 597 l 1,6,-1
 501 597 l 1,7,-1
 551 395 l 1,8,-1
 887 395 l 1,9,-1
 887 306 l 1,10,-1
 573 306 l 1,11,-1
 627 89 l 1,12,-1
 925 89 l 1,13,-1
 939 0 l 1,14,-1
 544 0 l 1,15,-1
 507 149 l 1,0,-1
400 568 m 1,16,-1
 227 238 l 1,17,-1
 486 238 l 1,18,-1
 406 568 l 1,19,-1
 400 568 l 1,16,-1
EndSplineSet
EndChar

StartChar: Oslash
Encoding: 216 216 122
Width: 690
Flags: HW
LayerCount: 2
Fore
SplineSet
345 696 m 0,0,1
 434.619047619 696 434.619047619 696 501 655 c 1,2,-1
 560 754 l 1,3,-1
 624 754 l 1,4,-1
 544 621 l 1,5,6
 629 540.25 629 540.25 629 388 c 2,7,-1
 629 298 l 2,8,9
 629 148.415584416 629 148.415584416 545.5 66 c 0,10,11
 468.5 -10 468.5 -10 345 -10 c 0,12,13
 257 -10 257 -10 190 30 c 1,14,-1
 134 -65 l 1,15,-1
 70 -65 l 1,16,-1
 147 63 l 1,17,18
 61 144.7 61 144.7 61 298 c 2,19,-1
 61 388 l 2,20,21
 61 537.584415584 61 537.584415584 144.5 620 c 0,22,23
 221.5 696 221.5 696 345 696 c 0,0,1
159 298 m 2,24,25
 159 200 159 200 197 147 c 1,26,-1
 454 577 l 1,27,28
 409 607 409 607 356.5 607 c 128,-1,29
 304 607 304 607 270 594.5 c 128,-1,30
 236 582 236 582 211.5 556 c 0,31,32
 159 500.285714286 159 500.285714286 159 388 c 2,33,-1
 159 298 l 2,24,25
237 108 m 1,34,35
 281.466666667 79 281.466666667 79 333.233333333 79 c 128,-1,36
 385 79 385 79 419.5 91.5 c 128,-1,37
 454 104 454 104 478.5 130 c 0,38,39
 531 185.714285714 531 185.714285714 531 298 c 2,40,-1
 531 388 l 2,41,42
 531 480.411764706 531 480.411764706 494 537 c 1,43,-1
 237 108 l 1,34,35
EndSplineSet
EndChar

StartChar: plusminus
Encoding: 177 177 123
Width: 615
Flags: HW
LayerCount: 2
Fore
SplineSet
55 0 m 1,0,-1
 55 83 l 1,1,-1
 558 83 l 1,2,-1
 558 0 l 1,3,-1
 55 0 l 1,0,-1
348 364 m 1,4,-1
 563 364 l 1,5,-1
 563 280 l 1,6,-1
 348 280 l 1,7,-1
 348 134 l 1,8,-1
 265 134 l 1,9,-1
 265 280 l 1,10,-1
 51 280 l 1,11,-1
 51 364 l 1,12,-1
 265 364 l 1,13,-1
 265 511 l 1,14,-1
 348 511 l 1,15,-1
 348 364 l 1,4,-1
EndSplineSet
EndChar

StartChar: yen
Encoding: 165 165 124
Width: 634
Flags: HW
LayerCount: 2
Fore
SplineSet
59 440 m 1,0,-1
 167 440 l 1,1,-1
 26 686 l 1,2,-1
 138 686 l 1,3,-1
 321 367 l 1,4,-1
 325 367 l 1,5,-1
 506 686 l 1,6,-1
 607 686 l 1,7,-1
 466 440 l 1,8,-1
 577 440 l 1,9,-1
 577 376 l 1,10,-1
 429 376 l 1,11,-1
 388 303 l 1,12,-1
 577 303 l 1,13,-1
 577 239 l 1,14,-1
 366 239 l 1,15,-1
 366 0 l 1,16,-1
 268 0 l 1,17,-1
 268 239 l 1,18,-1
 59 239 l 1,19,-1
 59 303 l 1,20,-1
 246 303 l 1,21,-1
 204 376 l 1,22,-1
 59 376 l 1,23,-1
 59 440 l 1,0,-1
EndSplineSet
EndChar

StartChar: mu
Encoding: 181 181 125
Width: 612
Flags: HW
LayerCount: 2
Fore
SplineSet
587 10 m 1,0,1
 557 -10 557 -10 523.5 -10 c 128,-1,2
 490 -10 490 -10 473.5 -3 c 128,-1,3
 457 4 457 4 446.5 15.5 c 0,4,5
 427.19760479 36.6407185629 427.19760479 36.6407185629 425 74 c 1,6,7
 386.133333333 17.4666666667 386.133333333 17.4666666667 314.5 -3 c 0,8,9
 290 -10 290 -10 264.5 -10 c 0,10,11
 210.909090909 -10 210.909090909 -10 170 15 c 1,12,-1
 176 -32 l 1,13,-1
 176 -161 l 1,14,-1
 82 -161 l 1,15,-1
 82 511 l 1,16,-1
 176 511 l 1,17,-1
 176 184 l 2,18,19
 176 119 176 119 206 92 c 128,-1,20
 236 65 236 65 284 65 c 0,21,22
 338 65 338 65 379 106 c 128,-1,23
 420 147 420 147 420 207 c 2,24,-1
 420 511 l 1,25,-1
 514 511 l 1,26,-1
 514 100 l 2,27,28
 514 81 514 81 522.5 73 c 128,-1,29
 531 65 531 65 542 65 c 256,30,31
 564.6 65 564.6 65 587 79 c 1,32,-1
 587 10 l 1,0,1
EndSplineSet
EndChar

StartChar: ordfeminine
Encoding: 170 170 126
Width: 415
Flags: HW
LayerCount: 2
Fore
SplineSet
263 522 m 1,0,1
 192 522 192 522 152 511 c 128,-1,2
 112 500 112 500 112 465 c 0,3,4
 112 439 112 439 128 429 c 128,-1,5
 144 419 144 419 176.5 419 c 128,-1,6
 209 419 209 419 236 442.5 c 128,-1,7
 263 466 263 466 263 509 c 2,8,-1
 263 522 l 1,0,1
157 373 m 0,9,10
 55 373 55 373 55 462 c 0,11,12
 55 526.545454545 55 526.545454545 112.5 548.5 c 0,13,14
 158.333333333 566 158.333333333 566 263 566 c 1,15,-1
 263 594 l 2,16,17
 263 650 263 650 192 650 c 256,18,19
 150.375 650 150.375 650 132 629 c 0,20,21
 122 617.571428571 122 617.571428571 122 602 c 2,22,-1
 122 594 l 1,23,-1
 67 594 l 1,24,25
 65 602 65 602 65 608 c 0,26,27
 65 648 65 648 101 672 c 128,-1,28
 137 696 137 696 193 696 c 2,29,-1
 198 696 l 2,30,31
 320 696 320 696 320 601 c 2,32,-1
 320 440 l 2,33,34
 320 429 320 429 325.5 424 c 128,-1,35
 331 419 331 419 338 419 c 128,-1,36
 345 419 345 419 365 427 c 1,37,-1
 365 385 l 1,38,39
 341 373 341 373 319 373 c 0,40,41
 269.666666667 373 269.666666667 373 265 429 c 1,42,43
 228 373 228 373 157 373 c 0,9,10
EndSplineSet
EndChar

StartChar: ordmasculine
Encoding: 186 186 127
Width: 392
Flags: HW
LayerCount: 2
Fore
SplineSet
282 540 m 2,0,1
 282 599 282 599 256.5 624.5 c 128,-1,2
 231 650 231 650 196 650 c 256,3,4
 161 650 161 650 135.5 624.5 c 128,-1,5
 110 599 110 599 110 540 c 2,6,-1
 110 529 l 2,7,8
 110 470 110 470 135.5 444.5 c 128,-1,9
 161 419 161 419 196 419 c 256,10,11
 231 419 231 419 256.5 444.5 c 128,-1,12
 282 470 282 470 282 529 c 2,13,-1
 282 540 l 2,0,1
339 523 m 2,14,15
 339 448.871794872 339 448.871794872 297.5 409.5 c 0,16,17
 259.027027027 373 259.027027027 373 196 373 c 256,18,19
 132.972972973 373 132.972972973 373 94.5 409.5 c 0,20,21
 53 448.871794872 53 448.871794872 53 523 c 2,22,-1
 53 546 l 2,23,24
 53 620.128205128 53 620.128205128 94.5 659.5 c 0,25,26
 132.972972973 696 132.972972973 696 196 696 c 256,27,28
 259.027027027 696 259.027027027 696 297.5 659.5 c 0,29,30
 339 620.128205128 339 620.128205128 339 546 c 2,31,-1
 339 523 l 2,14,15
EndSplineSet
EndChar

StartChar: ae
Encoding: 230 230 128
Width: 895
Flags: HW
LayerCount: 2
Fore
SplineSet
457 457 m 1,0,1
 517 521 517 521 620 521 c 2,2,-1
 627 521 l 2,3,4
 722.464285714 521 722.464285714 521 781.5 463 c 0,5,6
 841 404.543859649 841 404.543859649 841 305 c 2,7,-1
 841 234 l 1,8,-1
 484 234 l 1,9,10
 487.376811594 115.811594203 487.376811594 115.811594203 563 78 c 0,11,12
 589 65 589 65 628.5 65 c 128,-1,13
 668 65 668 65 693 80 c 128,-1,14
 718 95 718 95 731 115 c 0,15,16
 752 147.307692308 752 147.307692308 752 190 c 1,17,-1
 841 190 l 1,18,19
 841 99.1929824561 841 99.1929824561 780.5 44 c 0,20,21
 721.307692308 -10 721.307692308 -10 627 -10 c 2,22,-1
 623 -10 l 2,23,24
 556 -10 556 -10 504.5 18.5 c 128,-1,25
 453 47 453 47 423 101 c 1,26,27
 389 47 389 47 332 18.5 c 128,-1,28
 275 -10 275 -10 215 -10 c 0,29,30
 99.3859649123 -10 99.3859649123 -10 62.5 62.5 c 0,31,32
 48 91 48 91 48 142 c 128,-1,33
 48 193 48 193 73 226.5 c 128,-1,34
 98 260 98 260 143 278 c 0,35,36
 215.5 307 215.5 307 390 307 c 1,37,-1
 390 354 l 2,38,39
 390 392.956521739 390 392.956521739 375.5 409.97826087 c 0,40,41
 344.814814815 446 344.814814815 446 273 446 c 256,42,43
 203.111111111 446 203.111111111 446 175 411.5 c 0,44,45
 159 391.863636364 159 391.863636364 159 366 c 2,46,-1
 159 354 l 1,47,-1
 67 354 l 1,48,49
 65 364 65 364 65 386.5 c 128,-1,50
 65 409 65 409 81 436 c 128,-1,51
 97 463 97 463 125 481.5 c 0,52,53
 184.783783784 521 184.783783784 521 275 521 c 2,54,-1
 284 521 l 2,55,56
 409.516129032 521 409.516129032 521 457 457 c 1,0,1
390 234 m 1,57,58
 262.4 234 262.4 234 219.2 220.5 c 128,-1,59
 176 207 176 207 159 188.5 c 128,-1,60
 142 170 142 170 142 134.5 c 0,61,62
 142 65 142 65 247 65 c 0,63,64
 303.421052632 65 303.421052632 65 345.5 104 c 0,65,66
 390 145.243902439 390 145.243902439 390 214 c 2,67,-1
 390 234 l 1,57,58
530 411.5 m 128,-1,69
 494 377 494 377 486 307 c 1,70,-1
 748 307 l 1,71,-1
 748 319 l 2,72,73
 748 379.176470588 748 379.176470588 711 414 c 0,74,75
 677 446 677 446 621.5 446 c 128,-1,68
 566 446 566 446 530 411.5 c 128,-1,69
EndSplineSet
EndChar

StartChar: oslash
Encoding: 248 248 129
Width: 574
Flags: HW
LayerCount: 2
Fore
SplineSet
447 466 m 1,0,1
 522 399.571428571 522 399.571428571 522 274 c 2,2,-1
 522 237 l 2,3,4
 522 116.265625 522 116.265625 453 50.5 c 0,5,6
 389.524590164 -10 389.524590164 -10 287 -10 c 0,7,8
 219 -10 219 -10 167 17 c 1,9,-1
 122 -55 l 1,10,-1
 63 -55 l 1,11,-1
 126 45 l 1,12,13
 52 110.542857143 52 110.542857143 52 237 c 2,14,-1
 52 274 l 2,15,16
 52 394.734375 52 394.734375 121 460.5 c 0,17,18
 184.475409836 521 184.475409836 521 287 521 c 0,19,20
 353 521 353 521 406 494 c 1,21,-1
 452 568 l 1,22,-1
 511 568 l 1,23,-1
 447 466 l 1,0,1
428 265 m 2,24,25
 428 340.857142857 428 340.857142857 398 388 c 1,26,-1
 210 86 l 1,27,28
 241 65 241 65 278.5 65 c 128,-1,29
 316 65 316 65 342 75 c 128,-1,30
 368 85 368 85 387 107 c 0,31,32
 428 154.473684211 428 154.473684211 428 246 c 2,33,-1
 428 265 l 2,24,25
146 246 m 2,34,35
 146 169.571428571 146 169.571428571 175 124 c 1,36,-1
 363 425 l 1,37,38
 330 446 330 446 294 446 c 128,-1,39
 258 446 258 446 232 436 c 128,-1,40
 206 426 206 426 187 404 c 0,41,42
 146 356.526315789 146 356.526315789 146 265 c 2,43,-1
 146 246 l 2,34,35
EndSplineSet
EndChar

StartChar: questiondown
Encoding: 191 191 130
Width: 495
Flags: HW
LayerCount: 2
Fore
SplineSet
292 400 m 1,0,-1
 188 400 l 1,1,-1
 188 511 l 1,2,-1
 292 511 l 1,3,-1
 292 400 l 1,0,-1
468 53 m 1,4,5
 471 41 471 41 471 15 c 128,-1,6
 471 -11 471 -11 460.5 -46 c 128,-1,7
 450 -81 450 -81 424.5 -112 c 0,8,9
 364.451612903 -185 364.451612903 -185 251 -185 c 2,10,-1
 245 -185 l 2,11,12
 133.35483871 -185 133.35483871 -185 76.5 -110 c 0,13,14
 53 -79 53 -79 44 -46 c 128,-1,15
 35 -13 35 -13 35 19.5 c 128,-1,16
 35 52 35 52 46.5 82 c 128,-1,17
 58 112 58 112 75 134 c 128,-1,18
 92 156 92 156 112.5 172 c 128,-1,19
 133 188 133 188 150 203.5 c 128,-1,20
 167 219 167 219 178.5 236 c 128,-1,21
 190 253 190 253 190 277 c 2,22,-1
 190 326 l 1,23,-1
 290 326 l 1,24,-1
 290 262 l 2,25,26
 290 214.657142857 290 214.657142857 249.5 173 c 0,27,28
 232 155 232 155 212 139 c 128,-1,29
 192 123 192 123 174.5 105 c 0,30,31
 134 63.3428571429 134 63.3428571429 134 13 c 0,32,33
 134 -26.8571428571 134 -26.8571428571 160 -57.5 c 0,34,35
 192.666666667 -96 192.666666667 -96 252 -96 c 0,36,37
 319.222222222 -96 319.222222222 -96 351 -52 c 0,38,39
 372 -22.9230769231 372 -22.9230769231 372 16 c 1,40,-1
 370 53 l 1,41,-1
 468 53 l 1,4,5
EndSplineSet
EndChar

StartChar: exclamdown
Encoding: 161 161 131
Width: 254
Flags: HW
LayerCount: 2
Fore
SplineSet
76 510 m 1,0,-1
 177 510 l 1,1,-1
 177 399 l 1,2,-1
 76 399 l 1,3,-1
 76 510 l 1,0,-1
160 335 m 1,4,5
 161.627906977 305 161.627906977 305 184 -176 c 1,6,-1
 69 -176 l 1,7,-1
 94 335 l 1,8,-1
 160 335 l 1,4,5
EndSplineSet
EndChar

StartChar: logicalnot
Encoding: 172 172 132
Width: 617
Flags: HW
LayerCount: 2
Fore
SplineSet
556 174 m 1,0,-1
 472 174 l 1,1,-1
 472 360 l 1,2,-1
 37 360 l 1,3,-1
 37 453 l 1,4,-1
 556 453 l 1,5,-1
 556 174 l 1,0,-1
EndSplineSet
EndChar

StartChar: florin
Encoding: 402 402 133
Width: 360
Flags: HW
LayerCount: 2
Fore
SplineSet
-72 -96 m 1,0,1
 -41.2 -110 -41.2 -110 -21.1 -110 c 128,-1,2
 -1 -110 -1 -110 9 -108 c 128,-1,3
 19 -106 19 -106 28 -99.5 c 0,4,5
 48.7478991597 -84.5154061625 48.7478991597 -84.5154061625 54 -46 c 2,6,-1
 125 436 l 1,7,-1
 66 436 l 1,8,-1
 75 511 l 1,9,-1
 134 511 l 1,10,-1
 147 602 l 2,11,12
 165.805970149 728 165.805970149 728 290 728 c 0,13,14
 342.333333333 728 342.333333333 728 374 709 c 1,15,-1
 365 640 l 1,16,17
 334.2 654 334.2 654 305 654 c 256,18,19
 278.230769231 654 278.230769231 654 267.115384615 645.5 c 0,20,21
 244.176119403 627.958208955 244.176119403 627.958208955 239 590 c 2,22,-1
 227 511 l 1,23,-1
 347 511 l 1,24,-1
 338 436 l 1,25,-1
 218 436 l 1,26,-1
 147 -58 l 2,27,28
 137 -125 137 -125 98 -154.5 c 128,-1,29
 59 -184 59 -184 4 -184 c 0,30,31
 -50.4444444444 -184 -50.4444444444 -184 -80 -165 c 1,32,-1
 -72 -96 l 1,0,1
EndSplineSet
EndChar

StartChar: guillemotleft
Encoding: 171 171 134
Width: 460
Flags: HW
LayerCount: 2
Fore
SplineSet
354 163 m 1,0,-1
 231 337 l 1,1,-1
 354 511 l 1,2,-1
 404 511 l 1,3,-1
 311 337 l 1,4,-1
 404 163 l 1,5,-1
 354 163 l 1,0,-1
171 163 m 1,6,-1
 49 337 l 1,7,-1
 171 511 l 1,8,-1
 222 511 l 1,9,-1
 128 337 l 1,10,-1
 222 163 l 1,11,-1
 171 163 l 1,6,-1
EndSplineSet
EndChar

StartChar: guillemotright
Encoding: 187 187 135
Width: 460
Flags: HW
LayerCount: 2
Fore
SplineSet
56 163 m 1,0,-1
 150 337 l 1,1,-1
 56 511 l 1,2,-1
 107 511 l 1,3,-1
 230 337 l 1,4,-1
 107 163 l 1,5,-1
 56 163 l 1,0,-1
239 163 m 1,6,-1
 332 337 l 1,7,-1
 239 511 l 1,8,-1
 289 511 l 1,9,-1
 411 337 l 1,10,-1
 289 163 l 1,11,-1
 239 163 l 1,6,-1
EndSplineSet
EndChar

StartChar: ellipsis
Encoding: 8230 8230 136
Width: 735
Flags: HW
LayerCount: 2
Fore
SplineSet
69 111 m 1,0,-1
 171 111 l 1,1,-1
 171 0 l 1,2,-1
 69 0 l 1,3,-1
 69 111 l 1,0,-1
317 111 m 1,4,-1
 419 111 l 1,5,-1
 419 0 l 1,6,-1
 317 0 l 1,7,-1
 317 111 l 1,4,-1
564 111 m 1,8,-1
 666 111 l 1,9,-1
 666 0 l 1,10,-1
 564 0 l 1,11,-1
 564 111 l 1,8,-1
EndSplineSet
EndChar

StartChar: OE
Encoding: 338 338 137
Width: 1032
Flags: HW
LayerCount: 2
Fore
SplineSet
531 58 m 1,0,1
 461.057142857 -10 461.057142857 -10 345 -10 c 0,2,3
 221.5 -10 221.5 -10 144.5 66 c 0,4,5
 61 148.415584416 61 148.415584416 61 298 c 2,6,-1
 61 388 l 2,7,8
 61 537.584415584 61 537.584415584 144.5 620 c 0,9,10
 221.5 696 221.5 696 339.75 696 c 128,-1,11
 458 696 458 696 531 628 c 1,12,-1
 531 686 l 1,13,-1
 981 686 l 1,14,-1
 968 597 l 1,15,-1
 629 597 l 1,16,-1
 629 395 l 1,17,-1
 936 395 l 1,18,-1
 936 306 l 1,19,-1
 629 306 l 1,20,-1
 629 89 l 1,21,-1
 974 89 l 1,22,-1
 988 0 l 1,23,-1
 531 0 l 1,24,-1
 531 58 l 1,0,1
531 388 m 2,25,26
 531 554.101449275 531 554.101449275 419.5 594.5 c 0,27,28
 385 607 385 607 344.5 607 c 128,-1,29
 304 607 304 607 270 594.5 c 128,-1,30
 236 582 236 582 211.5 556 c 0,31,32
 159 500.285714286 159 500.285714286 159 388 c 2,33,-1
 159 298 l 2,34,35
 159 132.308823529 159 132.308823529 270 91.5 c 0,36,37
 304 79 304 79 344.5 79 c 128,-1,38
 385 79 385 79 419.5 91.5 c 128,-1,39
 454 104 454 104 478.5 130 c 0,40,41
 531 185.714285714 531 185.714285714 531 298 c 2,42,-1
 531 388 l 2,25,26
EndSplineSet
EndChar

StartChar: oe
Encoding: 339 339 138
Width: 933
Flags: HW
LayerCount: 2
Fore
SplineSet
476 434 m 1,0,1
 540.214285714 521 540.214285714 521 658 521 c 2,2,-1
 665 521 l 2,3,4
 760.464285714 521 760.464285714 521 819.5 463 c 0,5,6
 879 404.543859649 879 404.543859649 879 305 c 2,7,-1
 879 234 l 1,8,-1
 522 234 l 1,9,10
 525.376811594 115.811594203 525.376811594 115.811594203 601 78 c 0,11,12
 627 65 627 65 666.5 65 c 128,-1,13
 706 65 706 65 731 80 c 128,-1,14
 756 95 756 95 769 115 c 0,15,16
 790 147.307692308 790 147.307692308 790 190 c 1,17,-1
 879 190 l 1,18,19
 879 99.1929824561 879 99.1929824561 818.5 44 c 0,20,21
 759.307692308 -10 759.307692308 -10 665 -10 c 2,22,-1
 661 -10 l 2,23,24
 540.744186047 -10 540.744186047 -10 476 77 c 1,25,26
 414.133333333 -10 414.133333333 -10 287 -10 c 0,27,28
 184.475409836 -10 184.475409836 -10 121 50.5 c 0,29,30
 52 116.265625 52 116.265625 52 237 c 2,31,-1
 52 274 l 2,32,33
 52 394.734375 52 394.734375 121 460.5 c 0,34,35
 184.475409836 521 184.475409836 521 287 521 c 0,36,37
 414.133333333 521 414.133333333 521 476 434 c 1,0,1
428 265 m 2,38,39
 428 356.526315789 428 356.526315789 387 404 c 0,40,41
 350.727272727 446 350.727272727 446 287 446 c 256,42,43
 188.405797101 446 188.405797101 446 157 347.5 c 0,44,45
 146 313 146 313 146 265 c 2,46,-1
 146 246 l 2,47,48
 146 154.473684211 146 154.473684211 187 107 c 0,49,50
 223.272727273 65 223.272727273 65 287 65 c 256,51,52
 385.594202899 65 385.594202899 65 417 163.5 c 0,53,54
 428 198 428 198 428 246 c 2,55,-1
 428 265 l 2,38,39
568 411.5 m 128,-1,57
 532 377 532 377 524 307 c 1,58,-1
 786 307 l 1,59,-1
 786 319 l 2,60,61
 786 379.176470588 786 379.176470588 749 414 c 0,62,63
 715 446 715 446 659.5 446 c 128,-1,56
 604 446 604 446 568 411.5 c 128,-1,57
EndSplineSet
EndChar

StartChar: endash
Encoding: 8211 8211 139
Width: 638
Flags: HW
LayerCount: 2
Fore
SplineSet
69 223 m 1,0,-1
 69 318 l 1,1,-1
 569 318 l 1,2,-1
 569 223 l 1,3,-1
 69 223 l 1,0,-1
EndSplineSet
EndChar

StartChar: emdash
Encoding: 8212 8212 140
Width: 1058
Flags: HW
LayerCount: 2
Fore
SplineSet
72 223 m 1,0,-1
 72 317 l 1,1,-1
 982 317 l 1,2,-1
 982 223 l 1,3,-1
 72 223 l 1,0,-1
EndSplineSet
EndChar

StartChar: quotedblleft
Encoding: 8220 8220 141
Width: 366
Flags: HW
LayerCount: 2
Fore
SplineSet
148 686 m 1,0,-1
 121 562 l 1,1,-1
 162 562 l 1,2,-1
 162 451 l 1,3,-1
 61 451 l 1,4,-1
 61 536 l 1,5,-1
 96 686 l 1,6,-1
 148 686 l 1,0,-1
290 686 m 1,7,-1
 263 562 l 1,8,-1
 304 562 l 1,9,-1
 304 451 l 1,10,-1
 203 451 l 1,11,-1
 203 536 l 1,12,-1
 238 686 l 1,13,-1
 290 686 l 1,7,-1
EndSplineSet
EndChar

StartChar: quotedblright
Encoding: 8221 8221 142
Width: 361
Flags: HW
LayerCount: 2
Fore
SplineSet
217 451 m 1,0,-1
 244 575 l 1,1,-1
 203 575 l 1,2,-1
 203 686 l 1,3,-1
 304 686 l 1,4,-1
 304 601 l 1,5,-1
 269 451 l 1,6,-1
 217 451 l 1,0,-1
75 451 m 1,7,-1
 102 575 l 1,8,-1
 61 575 l 1,9,-1
 61 686 l 1,10,-1
 162 686 l 1,11,-1
 162 601 l 1,12,-1
 127 451 l 1,13,-1
 75 451 l 1,7,-1
EndSplineSet
EndChar

StartChar: quoteleft
Encoding: 8216 8216 143
Width: 224
Flags: HW
LayerCount: 2
Fore
SplineSet
148 686 m 1,0,-1
 121 562 l 1,1,-1
 162 562 l 1,2,-1
 162 451 l 1,3,-1
 61 451 l 1,4,-1
 61 536 l 1,5,-1
 96 686 l 1,6,-1
 148 686 l 1,0,-1
EndSplineSet
EndChar

StartChar: quoteright
Encoding: 8217 8217 144
Width: 219
Flags: HW
LayerCount: 2
Fore
SplineSet
75 451 m 1,0,-1
 102 575 l 1,1,-1
 61 575 l 1,2,-1
 61 686 l 1,3,-1
 162 686 l 1,4,-1
 162 601 l 1,5,-1
 127 451 l 1,6,-1
 75 451 l 1,0,-1
EndSplineSet
EndChar

StartChar: divide
Encoding: 247 247 145
Width: 615
Flags: HW
LayerCount: 2
Fore
SplineSet
51 213 m 1,0,-1
 51 297 l 1,1,-1
 563 297 l 1,2,-1
 563 213 l 1,3,-1
 51 213 l 1,0,-1
266 141 m 1,4,-1
 349 141 l 1,5,-1
 349 51 l 1,6,-1
 266 51 l 1,7,-1
 266 141 l 1,4,-1
266 460 m 1,8,-1
 349 460 l 1,9,-1
 349 369 l 1,10,-1
 266 369 l 1,11,-1
 266 460 l 1,8,-1
EndSplineSet
EndChar

StartChar: fraction
Encoding: 8260 8260 146
Width: 476
Flags: HW
LayerCount: 2
Fore
SplineSet
61 0 m 1,0,-1
 2 0 l 1,1,-1
 422 686 l 1,2,-1
 478 686 l 1,3,-1
 61 0 l 1,0,-1
EndSplineSet
EndChar

StartChar: guilsinglleft
Encoding: 8249 8249 147
Width: 278
Flags: HW
LayerCount: 2
Fore
SplineSet
171 163 m 1,0,-1
 49 337 l 1,1,-1
 171 511 l 1,2,-1
 222 511 l 1,3,-1
 128 337 l 1,4,-1
 222 163 l 1,5,-1
 171 163 l 1,0,-1
EndSplineSet
EndChar

StartChar: guilsinglright
Encoding: 8250 8250 148
Width: 278
Flags: HW
LayerCount: 2
Fore
SplineSet
56 163 m 1,0,-1
 150 337 l 1,1,-1
 56 511 l 1,2,-1
 107 511 l 1,3,-1
 229 337 l 1,4,-1
 107 163 l 1,5,-1
 56 163 l 1,0,-1
EndSplineSet
EndChar

StartChar: daggerdbl
Encoding: 8225 8225 149
Width: 533
Flags: HW
LayerCount: 2
Fore
SplineSet
293 434 m 1,0,1
 298.888888889 381 298.888888889 381 310 256 c 1,2,3
 306 211 306 211 302 166 c 128,-1,4
 298 121 298 121 293 76 c 1,5,6
 439.714285714 87.2857142857 439.714285714 87.2857142857 498 93 c 1,7,-1
 498 0 l 1,8,-1
 293 18 l 1,9,10
 298.754716981 -37.2452830189 298.754716981 -37.2452830189 310 -175 c 1,11,-1
 223 -175 l 1,12,13
 234.245283019 -37.2452830189 234.245283019 -37.2452830189 240 18 c 1,14,-1
 35 0 l 1,15,-1
 35 93 l 1,16,17
 86 88 86 88 137.5 84 c 128,-1,18
 189 80 189 80 240 76 c 1,19,20
 235 121 235 121 231 166 c 128,-1,21
 227 211 227 211 223 256 c 1,22,23
 234.111111111 381 234.111111111 381 240 434 c 1,24,25
 193 429.392156863 193 429.392156863 35 417 c 1,26,-1
 35 510 l 1,27,-1
 240 492 l 1,28,29
 234.622641509 543.622641509 234.622641509 543.622641509 223 686 c 1,30,-1
 310 686 l 1,31,32
 298.377358491 543.622641509 298.377358491 543.622641509 293 492 c 1,33,-1
 498 510 l 1,34,-1
 498 417 l 1,35,36
 450 421 450 421 401.5 425 c 128,-1,37
 353 429 353 429 293 434 c 1,0,1
EndSplineSet
EndChar

StartChar: periodcentered
Encoding: 183 183 150
Width: 239
Flags: HW
LayerCount: 2
Fore
SplineSet
69 344 m 1,0,-1
 170 344 l 1,1,-1
 170 232 l 1,2,-1
 69 232 l 1,3,-1
 69 344 l 1,0,-1
EndSplineSet
EndChar

StartChar: quotesinglbase
Encoding: 8218 8218 151
Width: 238
Flags: HW
LayerCount: 2
Fore
SplineSet
83 -124 m 1,0,-1
 110 0 l 1,1,-1
 69 0 l 1,2,-1
 69 111 l 1,3,-1
 170 111 l 1,4,-1
 170 26 l 1,5,-1
 135 -124 l 1,6,-1
 83 -124 l 1,0,-1
EndSplineSet
EndChar

StartChar: quotedblbase
Encoding: 8222 8222 152
Width: 380
Flags: HW
LayerCount: 2
Fore
SplineSet
225 -124 m 1,0,-1
 252 0 l 1,1,-1
 211 0 l 1,2,-1
 211 111 l 1,3,-1
 312 111 l 1,4,-1
 312 26 l 1,5,-1
 277 -124 l 1,6,-1
 225 -124 l 1,0,-1
83 -124 m 1,7,-1
 110 0 l 1,8,-1
 69 0 l 1,9,-1
 69 111 l 1,10,-1
 170 111 l 1,11,-1
 170 26 l 1,12,-1
 135 -124 l 1,13,-1
 83 -124 l 1,7,-1
EndSplineSet
EndChar

StartChar: perthousand
Encoding: 8240 8240 153
Width: 1033
Flags: HW
LayerCount: 2
Fore
SplineSet
180 0 m 1,0,-1
 110 0 l 1,1,-1
 528 686 l 1,2,-1
 596 686 l 1,3,-1
 180 0 l 1,0,-1
282 457 m 2,4,5
 282 405.53125 282 405.53125 249 371.5 c 0,6,7
 214.575757576 336 214.575757576 336 161 336 c 2,8,-1
 154 336 l 2,9,10
 100.424242424 336 100.424242424 336 66 371.5 c 0,11,12
 33 405.53125 33 405.53125 33 457 c 2,13,-1
 33 564 l 2,14,15
 33 615.46875 33 615.46875 66 649.5 c 0,16,17
 100.424242424 685 100.424242424 685 154 685 c 2,18,-1
 161 685 l 2,19,20
 214.575757576 685 214.575757576 685 249 649.5 c 0,21,22
 282 615.46875 282 615.46875 282 564 c 2,23,-1
 282 457 l 2,4,5
218 571 m 2,24,25
 218 596 218 596 202.5 613 c 128,-1,26
 187 630 187 630 158 630 c 256,27,28
 129 630 129 630 113 613 c 128,-1,29
 97 596 97 596 97 571 c 2,30,-1
 97 450 l 2,31,32
 97 425 97 425 113 408 c 128,-1,33
 129 391 129 391 158 391 c 256,34,35
 187 391 187 391 202.5 408 c 128,-1,36
 218 425 218 425 218 450 c 2,37,-1
 218 571 l 2,24,25
672 120 m 2,38,39
 672 68.53125 672 68.53125 639 34.5 c 0,40,41
 604.575757576 -1 604.575757576 -1 551 -1 c 2,42,-1
 544 -1 l 2,43,44
 490.424242424 -1 490.424242424 -1 456 34.5 c 0,45,46
 423 68.53125 423 68.53125 423 120 c 2,47,-1
 423 227 l 2,48,49
 423 278.46875 423 278.46875 456 312.5 c 0,50,51
 490.424242424 348 490.424242424 348 544 348 c 2,52,-1
 551 348 l 2,53,54
 604.575757576 348 604.575757576 348 639 312.5 c 0,55,56
 672 278.46875 672 278.46875 672 227 c 2,57,-1
 672 120 l 2,38,39
608 234 m 2,58,59
 608 259 608 259 592.5 276 c 128,-1,60
 577 293 577 293 548 293 c 256,61,62
 519 293 519 293 503 276 c 128,-1,63
 487 259 487 259 487 234 c 2,64,-1
 487 113 l 2,65,66
 487 88 487 88 503 71 c 128,-1,67
 519 54 519 54 548 54 c 256,68,69
 577 54 577 54 592.5 71 c 128,-1,70
 608 88 608 88 608 113 c 2,71,-1
 608 234 l 2,58,59
1004 120 m 2,72,73
 1004 68.53125 1004 68.53125 971 34.5 c 0,74,75
 936.575757576 -1 936.575757576 -1 883 -1 c 2,76,-1
 877 -1 l 2,77,78
 823.424242424 -1 823.424242424 -1 789 34.5 c 0,79,80
 756 68.53125 756 68.53125 756 120 c 2,81,-1
 756 227 l 2,82,83
 756 278.46875 756 278.46875 789 312.5 c 0,84,85
 823.424242424 348 823.424242424 348 877 348 c 2,86,-1
 883 348 l 2,87,88
 936.575757576 348 936.575757576 348 971 312.5 c 0,89,90
 1004 278.46875 1004 278.46875 1004 227 c 2,91,-1
 1004 120 l 2,72,73
940 234 m 2,92,93
 940 259 940 259 924.5 276 c 128,-1,94
 909 293 909 293 880.5 293 c 128,-1,95
 852 293 852 293 836 276 c 128,-1,96
 820 259 820 259 820 234 c 2,97,-1
 820 113 l 2,98,99
 820 88 820 88 836 71 c 128,-1,100
 852 54 852 54 880.5 54 c 128,-1,101
 909 54 909 54 924.5 71 c 128,-1,102
 940 88 940 88 940 113 c 2,103,-1
 940 234 l 2,92,93
EndSplineSet
EndChar

StartChar: dotlessi
Encoding: 305 305 154
Width: 260
Flags: HW
LayerCount: 2
Fore
SplineSet
83 0 m 1,0,-1
 83 511 l 1,1,-1
 177 511 l 1,2,-1
 177 0 l 1,3,-1
 83 0 l 1,0,-1
EndSplineSet
EndChar

StartChar: circumflex
Encoding: 710 710 155
Width: 536
Flags: HW
LayerCount: 2
Fore
SplineSet
228 720 m 1,0,-1
 306 720 l 1,1,-1
 441 575 l 1,2,-1
 361 575 l 1,3,-1
 267 664 l 1,4,-1
 172 575 l 1,5,-1
 92 575 l 1,6,-1
 228 720 l 1,0,-1
EndSplineSet
EndChar

StartChar: tilde
Encoding: 732 732 156
Width: 364
Flags: HW
LayerCount: 2
Fore
SplineSet
385 717 m 1,0,1
 385 676.444444444 385 676.444444444 358.5 647 c 0,2,3
 327.9 613 327.9 613 273 613 c 0,4,5
 242.583333333 613 242.583333333 613 203.291666667 624.5 c 128,-1,6
 164 636 164 636 144 641.5 c 128,-1,7
 124 647 124 647 104 647 c 0,8,9
 59 647 59 647 49 613 c 1,10,-1
 -1 613 l 1,11,12
 -1 677.930232558 -1 677.930232558 61.5 707 c 0,13,14
 83 717 83 717 109.5 717 c 128,-1,15
 136 717 136 717 157.5 711.5 c 128,-1,16
 179 706 179 706 199.5 699.5 c 0,17,18
 254.692307692 682 254.692307692 682 280 682 c 0,19,20
 324 682 324 682 335 717 c 1,21,-1
 385 717 l 1,0,1
EndSplineSet
EndChar

StartChar: macron
Encoding: 175 175 157
Width: 460
Flags: HW
LayerCount: 2
Fore
SplineSet
71 662 m 1,0,-1
 71 736 l 1,1,-1
 389 736 l 1,2,-1
 389 662 l 1,3,-1
 71 662 l 1,0,-1
EndSplineSet
EndChar

StartChar: breve
Encoding: 728 728 158
Width: 520
Flags: HW
LayerCount: 2
Fore
SplineSet
260 613 m 256,0,1
 183.222222222 613 183.222222222 613 124 654 c 0,2,3
 68 692.769230769 68 692.769230769 68 737 c 1,4,-1
 135 737 l 1,5,6
 143 710 143 710 178 692.5 c 128,-1,7
 213 675 213 675 259.5 675 c 128,-1,8
 306 675 306 675 341.5 692.5 c 128,-1,9
 377 710 377 710 385 737 c 1,10,-1
 453 737 l 1,11,12
 453 692.377358491 453 692.377358491 396.5 654 c 0,13,14
 336.138888889 613 336.138888889 613 260 613 c 256,0,1
EndSplineSet
EndChar

StartChar: dotaccent
Encoding: 729 729 159
Width: 280
Flags: HW
LayerCount: 2
Fore
SplineSet
187 716.5 m 128,-1,1
 206 697 206 697 206 669 c 128,-1,2
 206 641 206 641 186.5 622.5 c 128,-1,3
 167 604 167 604 140 604 c 128,-1,4
 113 604 113 604 93.5 623.5 c 128,-1,5
 74 643 74 643 74 670.5 c 128,-1,6
 74 698 74 698 93 717 c 128,-1,7
 112 736 112 736 140 736 c 256,8,0
 168 736 168 736 187 716.5 c 128,-1,1
EndSplineSet
EndChar

StartChar: ring
Encoding: 730 730 160
Width: 340
Flags: HW
LayerCount: 2
Fore
SplineSet
271 645 m 256,0,1
 271 604 271 604 241.5 574.5 c 128,-1,2
 212 545 212 545 170 545 c 256,3,4
 128.555555556 545 128.555555556 545 99 573.5 c 0,5,6
 69 602.428571429 69 602.428571429 69 645 c 256,7,8
 69 687 69 687 98.5 716.5 c 128,-1,9
 128 746 128 746 170 746 c 256,10,11
 210.407407407 746 210.407407407 746 241 716.5 c 0,12,13
 271 687.571428571 271 687.571428571 271 645 c 256,0,1
209.5 607.5 m 128,-1,15
 226 623 226 623 226 645.5 c 128,-1,16
 226 668 226 668 209.5 683.5 c 128,-1,17
 193 699 193 699 170 699 c 256,18,19
 147 699 147 699 130.5 683.5 c 128,-1,20
 114 668 114 668 114 645 c 256,21,22
 114 622 114 622 130.5 607 c 128,-1,23
 147 592 147 592 170 592 c 256,24,14
 193 592 193 592 209.5 607.5 c 128,-1,15
EndSplineSet
EndChar

StartChar: cedilla
Encoding: 184 184 161
Width: 350
Flags: HW
LayerCount: 2
Fore
SplineSet
169 -17 m 2,0,1
 280 -17 280 -17 280 -106 c 256,2,3
 280 -154.882352941 280 -154.882352941 239 -179 c 0,4,5
 208.4 -197 208.4 -197 174.7 -197 c 0,6,7
 110 -197 110 -197 70 -175 c 1,8,-1
 79 -126 l 1,9,10
 119 -146 119 -146 151.5 -146 c 0,11,12
 218 -146 218 -146 218 -101 c 0,13,14
 218 -81 218 -81 202.5 -70.5 c 128,-1,15
 187 -60 187 -60 166 -60 c 2,16,-1
 145 -60 l 1,17,-1
 145 -17 l 1,18,-1
 169 -17 l 2,0,1
EndSplineSet
EndChar

StartChar: hungarumlaut
Encoding: 733 733 162
Width: 442
Flags: HW
LayerCount: 2
Fore
SplineSet
51 575 m 1,0,-1
 146 720 l 1,1,-1
 235 720 l 1,2,-1
 236 717 l 1,3,-1
 121 575 l 1,4,-1
 51 575 l 1,0,-1
206 575 m 1,5,-1
 300 720 l 1,6,-1
 390 720 l 1,7,-1
 391 717 l 1,8,-1
 276 575 l 1,9,-1
 206 575 l 1,5,-1
EndSplineSet
EndChar

StartChar: ogonek
Encoding: 731 731 163
Width: 340
Flags: HW
LayerCount: 2
Fore
SplineSet
242 -82 m 1,0,-1
 255 -119 l 1,1,2
 214 -143 214 -143 166 -143 c 0,3,4
 101.111111111 -143 101.111111111 -143 77.5 -105.5 c 0,5,6
 69 -92 69 -92 69 -69.5 c 128,-1,7
 69 -47 69 -47 87 -29.5 c 128,-1,8
 105 -12 105 -12 123 0 c 1,9,-1
 177 0 l 1,10,11
 162 -8 162 -8 146.5 -24.5 c 128,-1,12
 131 -41 131 -41 131 -58 c 0,13,14
 131 -96 131 -96 175 -96 c 0,15,16
 197.2 -96 197.2 -96 242 -82 c 1,0,-1
EndSplineSet
EndChar

StartChar: caron
Encoding: 711 711 164
Width: 536
Flags: HW
LayerCount: 2
Fore
SplineSet
92 720 m 1,0,-1
 172 720 l 1,1,-1
 267 631 l 1,2,-1
 361 720 l 1,3,-1
 441 720 l 1,4,-1
 306 575 l 1,5,-1
 228 575 l 1,6,-1
 92 720 l 1,0,-1
EndSplineSet
EndChar

StartChar: Eth
Encoding: 208 208 165
Width: 681
Flags: HW
LayerCount: 2
Fore
SplineSet
5 375 m 1,0,-1
 98 375 l 1,1,-1
 98 686 l 1,2,-1
 336 686 l 2,3,4
 459.5 686 459.5 686 536.5 610 c 0,5,6
 620 527.584415584 620 527.584415584 620 378 c 2,7,-1
 620 308 l 2,8,9
 620 158.415584416 620 158.415584416 536.5 76 c 0,10,11
 459.5 0 459.5 0 336 0 c 2,12,-1
 98 0 l 1,13,-1
 98 310 l 1,14,-1
 5 310 l 1,15,-1
 5 375 l 1,0,-1
336 89 m 2,16,17
 468.024096386 89 468.024096386 89 508 207.5 c 0,18,19
 522 249 522 249 522 308 c 2,20,-1
 522 378 l 2,21,22
 522 544.101449275 522 544.101449275 410.5 584.5 c 0,23,24
 376 597 376 597 336 597 c 2,25,-1
 196 597 l 1,26,-1
 196 375 l 1,27,-1
 341 375 l 1,28,-1
 341 310 l 1,29,-1
 196 310 l 1,30,-1
 196 89 l 1,31,-1
 336 89 l 2,16,17
EndSplineSet
EndChar

StartChar: Euro
Encoding: 8364 8364 166
Width: 562
Flags: HW
LayerCount: 2
Fore
SplineSet
525 2 m 1,0,1
 481 -8 481 -8 429.5 -8 c 128,-1,2
 378 -8 378 -8 329 8.5 c 128,-1,3
 280 25 280 25 240.5 56.5 c 0,4,5
 154.961218116 124.714471629 154.961218116 124.714471629 130 238 c 1,6,-1
 30 238 l 1,7,-1
 30 303 l 1,8,-1
 120 303 l 1,9,10
 119 312 119 312 119 321.5 c 2,11,-1
 119 359.5 l 2,12,13
 119 368 119 368 120 377 c 1,14,-1
 30 377 l 1,15,-1
 30 441 l 1,16,-1
 129 441 l 1,17,18
 154.446326276 558.444582814 154.446326276 558.444582814 240.5 627.5 c 0,19,20
 322.123076923 693 322.123076923 693 437 693 c 0,21,22
 471.666666667 693 471.666666667 693 525 685 c 1,23,-1
 525 594 l 1,24,25
 491 604 491 604 446 604 c 0,26,27
 365 604 365 604 307.5 559.5 c 128,-1,28
 250 515 250 515 228 441 c 1,29,-1
 426 441 l 1,30,-1
 426 377 l 1,31,-1
 216 377 l 1,32,33
 214 369 214 369 214 359.5 c 2,34,-1
 214 321.5 l 2,35,36
 214 312 214 312 216 303 c 1,37,-1
 426 303 l 1,38,-1
 426 238 l 1,39,-1
 230 238 l 1,40,41
 254 164 254 164 313 122 c 128,-1,42
 372 80 372 80 453 80 c 0,43,44
 480.8 80 480.8 80 525 93 c 1,45,-1
 525 2 l 1,0,1
EndSplineSet
EndChar

StartChar: T
Encoding: 84 84 167
Width: 578
Flags: HW
LayerCount: 2
Fore
SplineSet
338 597 m 1,0,-1
 338 0 l 1,1,-1
 240 0 l 1,2,-1
 240 597 l 1,3,-1
 25 597 l 1,4,-1
 25 686 l 1,5,-1
 553 686 l 1,6,-1
 553 597 l 1,7,-1
 338 597 l 1,0,-1
EndSplineSet
EndChar

StartChar: eth
Encoding: 240 240 169
Width: 575
Flags: HW
LayerCount: 2
Fore
SplineSet
114 700 m 1,0,-1
 173 729 l 1,1,2
 218 706 218 706 268 673 c 1,3,-1
 362 717 l 1,4,5
 370 708 370 708 378 700 c 128,-1,6
 386 692 386 692 394 683 c 1,7,-1
 307 643 l 1,8,9
 456.13740458 522.269720102 456.13740458 522.269720102 504 384 c 0,10,11
 522 332 522 332 522 274 c 2,12,-1
 522 237 l 2,13,14
 522 116.265625 522 116.265625 453 50.5 c 0,15,16
 389.524590164 -10 389.524590164 -10 287 -10 c 256,17,18
 184.475409836 -10 184.475409836 -10 121 50.5 c 0,19,20
 52 116.265625 52 116.265625 52 237 c 2,21,-1
 52 274 l 2,22,23
 52 394.734375 52 394.734375 121 460.5 c 0,24,25
 184.475409836 521 184.475409836 521 287 521 c 0,26,27
 302 521 302 521 319 518 c 1,28,29
 282.71875 562.34375 282.71875 562.34375 236 605 c 1,30,-1
 145 562 l 1,31,32
 135 570 135 570 126.5 578.5 c 128,-1,33
 118 587 118 587 109 595 c 1,34,35
 155 617 155 617 203 639 c 1,36,37
 180 659 180 659 155 674 c 128,-1,38
 130 689 130 689 114 700 c 1,0,-1
428 265 m 2,39,40
 428 356.526315789 428 356.526315789 387 404 c 0,41,42
 350.727272727 446 350.727272727 446 287 446 c 256,43,44
 188.405797101 446 188.405797101 446 157 347.5 c 0,45,46
 146 313 146 313 146 265 c 2,47,-1
 146 246 l 2,48,49
 146 154.473684211 146 154.473684211 187 107 c 0,50,51
 223.272727273 65 223.272727273 65 287 65 c 256,52,53
 385.594202899 65 385.594202899 65 417 163.5 c 0,54,55
 428 198 428 198 428 246 c 2,56,-1
 428 265 l 2,39,40
EndSplineSet
EndChar

StartChar: Agrave
Encoding: 192 192 170
Width: 652
Flags: HW
LayerCount: 2
Fore
SplineSet
484 149 m 1,0,-1
 156 149 l 1,1,-1
 99 0 l 1,2,-1
 4 0 l 1,3,-1
 272 686 l 1,4,-1
 380 686 l 1,5,-1
 648 0 l 1,6,-1
 542 0 l 1,7,-1
 484 149 l 1,0,-1
318 568 m 1,8,-1
 191 238 l 1,9,-1
 450 238 l 1,10,-1
 324 568 l 1,11,-1
 318 568 l 1,8,-1
290 750 m 1,12,-1
 175 892 l 1,13,-1
 176 895 l 1,14,-1
 265 895 l 1,15,-1
 360 750 l 1,16,-1
 290 750 l 1,12,-1
EndSplineSet
EndChar

StartChar: Aacute
Encoding: 193 193 171
Width: 652
Flags: HW
LayerCount: 2
Fore
SplineSet
484 149 m 1,0,-1
 156 149 l 1,1,-1
 99 0 l 1,2,-1
 4 0 l 1,3,-1
 272 686 l 1,4,-1
 380 686 l 1,5,-1
 648 0 l 1,6,-1
 542 0 l 1,7,-1
 484 149 l 1,0,-1
318 568 m 1,8,-1
 191 238 l 1,9,-1
 450 238 l 1,10,-1
 324 568 l 1,11,-1
 318 568 l 1,8,-1
292 750 m 1,12,-1
 386 895 l 1,13,-1
 476 895 l 1,14,-1
 477 892 l 1,15,-1
 361 750 l 1,16,-1
 292 750 l 1,12,-1
EndSplineSet
EndChar

StartChar: Acircumflex
Encoding: 194 194 172
Width: 652
Flags: HW
LayerCount: 2
Fore
SplineSet
484 149 m 1,0,-1
 156 149 l 1,1,-1
 99 0 l 1,2,-1
 4 0 l 1,3,-1
 272 686 l 1,4,-1
 380 686 l 1,5,-1
 648 0 l 1,6,-1
 542 0 l 1,7,-1
 484 149 l 1,0,-1
318 568 m 1,8,-1
 191 238 l 1,9,-1
 450 238 l 1,10,-1
 324 568 l 1,11,-1
 318 568 l 1,8,-1
285 895 m 1,12,-1
 363 895 l 1,13,-1
 498 750 l 1,14,-1
 418 750 l 1,15,-1
 324 839 l 1,16,-1
 229 750 l 1,17,-1
 149 750 l 1,18,-1
 285 895 l 1,12,-1
EndSplineSet
EndChar

StartChar: Atilde
Encoding: 195 195 173
Width: 652
Flags: HW
LayerCount: 2
Fore
SplineSet
484 149 m 1,0,-1
 156 149 l 1,1,-1
 99 0 l 1,2,-1
 4 0 l 1,3,-1
 272 686 l 1,4,-1
 380 686 l 1,5,-1
 648 0 l 1,6,-1
 542 0 l 1,7,-1
 484 149 l 1,0,-1
318 568 m 1,8,-1
 191 238 l 1,9,-1
 450 238 l 1,10,-1
 324 568 l 1,11,-1
 318 568 l 1,8,-1
517 854 m 1,12,13
 517 813.444444444 517 813.444444444 490.5 784 c 0,14,15
 459.9 750 459.9 750 405 750 c 0,16,17
 374.583333333 750 374.583333333 750 335.291666667 761.5 c 128,-1,18
 296 773 296 773 276 778.5 c 128,-1,19
 256 784 256 784 236 784 c 0,20,21
 191 784 191 784 181 750 c 1,22,-1
 131 750 l 1,23,24
 131 814.930232558 131 814.930232558 193.5 844 c 0,25,26
 215 854 215 854 241.5 854 c 128,-1,27
 268 854 268 854 289.5 848.5 c 128,-1,28
 311 843 311 843 331.5 836.5 c 0,29,30
 386.692307692 819 386.692307692 819 412 819 c 0,31,32
 456 819 456 819 467 854 c 1,33,-1
 517 854 l 1,12,13
EndSplineSet
EndChar

StartChar: Adieresis
Encoding: 196 196 174
Width: 652
Flags: HW
LayerCount: 2
Fore
SplineSet
484 149 m 1,0,-1
 156 149 l 1,1,-1
 99 0 l 1,2,-1
 4 0 l 1,3,-1
 272 686 l 1,4,-1
 380 686 l 1,5,-1
 648 0 l 1,6,-1
 542 0 l 1,7,-1
 484 149 l 1,0,-1
318 568 m 1,8,-1
 191 238 l 1,9,-1
 450 238 l 1,10,-1
 324 568 l 1,11,-1
 318 568 l 1,8,-1
184 847 m 1,12,-1
 274 847 l 1,13,-1
 274 749 l 1,14,-1
 184 749 l 1,15,-1
 184 847 l 1,12,-1
372 847 m 1,16,-1
 463 847 l 1,17,-1
 463 749 l 1,18,-1
 372 749 l 1,19,-1
 372 847 l 1,16,-1
EndSplineSet
EndChar

StartChar: Aring
Encoding: 197 197 175
Width: 652
Flags: HW
LayerCount: 2
Fore
SplineSet
484 149 m 1,0,-1
 156 149 l 1,1,-1
 99 0 l 1,2,-1
 4 0 l 1,3,-1
 272 686 l 1,4,-1
 380 686 l 1,5,-1
 648 0 l 1,6,-1
 542 0 l 1,7,-1
 484 149 l 1,0,-1
318 568 m 1,8,-1
 191 238 l 1,9,-1
 450 238 l 1,10,-1
 324 568 l 1,11,-1
 318 568 l 1,8,-1
427 825 m 256,12,13
 427 784 427 784 397.5 754.5 c 128,-1,14
 368 725 368 725 326 725 c 256,15,16
 284.555555556 725 284.555555556 725 255 753.5 c 0,17,18
 225 782.428571429 225 782.428571429 225 825 c 256,19,20
 225 867 225 867 254.5 896.5 c 128,-1,21
 284 926 284 926 326 926 c 256,22,23
 366.407407407 926 366.407407407 926 397 896.5 c 0,24,25
 427 867.571428571 427 867.571428571 427 825 c 256,12,13
365.5 787.5 m 128,-1,27
 382 803 382 803 382 825.5 c 128,-1,28
 382 848 382 848 365.5 863.5 c 128,-1,29
 349 879 349 879 326 879 c 256,30,31
 303 879 303 879 286.5 863.5 c 128,-1,32
 270 848 270 848 270 825 c 256,33,34
 270 802 270 802 286.5 787 c 128,-1,35
 303 772 303 772 326 772 c 256,36,26
 349 772 349 772 365.5 787.5 c 128,-1,27
EndSplineSet
EndChar

StartChar: Ccedilla
Encoding: 199 199 176
Width: 663
Flags: HW
LayerCount: 2
Fore
SplineSet
609 261 m 1,0,1
 609 127.547945205 609 127.547945205 530.5 55.5 c 0,2,3
 459.134328358 -10 459.134328358 -10 344 -10 c 0,4,5
 216.5 -10 216.5 -10 141.5 66 c 0,6,7
 62 146.56 62 146.56 62 298 c 2,8,-1
 62 388 l 2,9,10
 62 538.426666667 62 538.426666667 142.5 620 c 0,11,12
 217.5 696 217.5 696 344 696 c 0,13,14
 460.970149254 696 460.970149254 696 532.5 628.5 c 0,15,16
 609 556.309859155 609 556.309859155 609 423 c 1,17,-1
 511 423 l 1,18,19
 511 515.431818182 511 515.431818182 464 563.5 c 0,20,21
 421.466666667 607 421.466666667 607 344 607 c 0,22,23
 211.75 607 211.75 607 173.5 488 c 0,24,25
 160 446 160 446 160 388 c 2,26,-1
 160 298 l 2,27,28
 160 131.573529412 160 131.573529412 269 91.5 c 0,29,30
 303 79 303 79 342 79 c 128,-1,31
 381 79 381 79 412.5 89.5 c 128,-1,32
 444 100 444 100 466.5 122.5 c 0,33,34
 515 171 515 171 515 261 c 1,35,-1
 609 261 l 1,0,1
338 -17 m 2,36,37
 449 -17 449 -17 449 -106 c 256,38,39
 449 -154.882352941 449 -154.882352941 408 -179 c 0,40,41
 377.4 -197 377.4 -197 343.7 -197 c 0,42,43
 279 -197 279 -197 239 -175 c 1,44,-1
 248 -126 l 1,45,46
 288 -146 288 -146 320.5 -146 c 0,47,48
 387 -146 387 -146 387 -101 c 0,49,50
 387 -81 387 -81 371.5 -70.5 c 128,-1,51
 356 -60 356 -60 335 -60 c 2,52,-1
 314 -60 l 1,53,-1
 314 -17 l 1,54,-1
 338 -17 l 2,36,37
EndSplineSet
EndChar

StartChar: Egrave
Encoding: 200 200 177
Width: 593
Flags: HW
LayerCount: 2
Fore
SplineSet
92 0 m 1,0,-1
 92 686 l 1,1,-1
 542 686 l 1,2,-1
 529 597 l 1,3,-1
 190 597 l 1,4,-1
 190 395 l 1,5,-1
 497 395 l 1,6,-1
 497 306 l 1,7,-1
 190 306 l 1,8,-1
 190 89 l 1,9,-1
 535 89 l 1,10,-1
 549 0 l 1,11,-1
 92 0 l 1,0,-1
295 750 m 1,12,-1
 180 892 l 1,13,-1
 181 895 l 1,14,-1
 270 895 l 1,15,-1
 365 750 l 1,16,-1
 295 750 l 1,12,-1
EndSplineSet
EndChar

StartChar: Eacute
Encoding: 201 201 178
Width: 593
Flags: HW
LayerCount: 2
Fore
SplineSet
92 0 m 1,0,-1
 92 686 l 1,1,-1
 542 686 l 1,2,-1
 529 597 l 1,3,-1
 190 597 l 1,4,-1
 190 395 l 1,5,-1
 497 395 l 1,6,-1
 497 306 l 1,7,-1
 190 306 l 1,8,-1
 190 89 l 1,9,-1
 535 89 l 1,10,-1
 549 0 l 1,11,-1
 92 0 l 1,0,-1
284 750 m 1,12,-1
 378 895 l 1,13,-1
 468 895 l 1,14,-1
 469 892 l 1,15,-1
 353 750 l 1,16,-1
 284 750 l 1,12,-1
EndSplineSet
EndChar

StartChar: Ecircumflex
Encoding: 202 202 179
Width: 593
Flags: HW
LayerCount: 2
Fore
SplineSet
92 0 m 1,0,-1
 92 686 l 1,1,-1
 542 686 l 1,2,-1
 529 597 l 1,3,-1
 190 597 l 1,4,-1
 190 395 l 1,5,-1
 497 395 l 1,6,-1
 497 306 l 1,7,-1
 190 306 l 1,8,-1
 190 89 l 1,9,-1
 535 89 l 1,10,-1
 549 0 l 1,11,-1
 92 0 l 1,0,-1
276 895 m 1,12,-1
 354 895 l 1,13,-1
 489 750 l 1,14,-1
 409 750 l 1,15,-1
 315 839 l 1,16,-1
 220 750 l 1,17,-1
 140 750 l 1,18,-1
 276 895 l 1,12,-1
EndSplineSet
EndChar

StartChar: Edieresis
Encoding: 203 203 180
Width: 593
Flags: HW
LayerCount: 2
Fore
SplineSet
92 0 m 1,0,-1
 92 686 l 1,1,-1
 542 686 l 1,2,-1
 529 597 l 1,3,-1
 190 597 l 1,4,-1
 190 395 l 1,5,-1
 497 395 l 1,6,-1
 497 306 l 1,7,-1
 190 306 l 1,8,-1
 190 89 l 1,9,-1
 535 89 l 1,10,-1
 549 0 l 1,11,-1
 92 0 l 1,0,-1
178 848 m 1,12,-1
 268 848 l 1,13,-1
 268 750 l 1,14,-1
 178 750 l 1,15,-1
 178 848 l 1,12,-1
366 848 m 1,16,-1
 457 848 l 1,17,-1
 457 750 l 1,18,-1
 366 750 l 1,19,-1
 366 848 l 1,16,-1
EndSplineSet
EndChar

StartChar: Igrave
Encoding: 204 204 181
Width: 364
Flags: HW
LayerCount: 2
Fore
SplineSet
53 686 m 1,0,-1
 311 686 l 1,1,-1
 311 597 l 1,2,-1
 231 597 l 1,3,-1
 231 89 l 1,4,-1
 311 89 l 1,5,-1
 311 0 l 1,6,-1
 53 0 l 1,7,-1
 53 89 l 1,8,-1
 133 89 l 1,9,-1
 133 597 l 1,10,-1
 53 597 l 1,11,-1
 53 686 l 1,0,-1
147 750 m 1,12,-1
 32 892 l 1,13,-1
 33 895 l 1,14,-1
 122 895 l 1,15,-1
 217 750 l 1,16,-1
 147 750 l 1,12,-1
EndSplineSet
EndChar

StartChar: Iacute
Encoding: 205 205 182
Width: 364
Flags: HW
LayerCount: 2
Fore
SplineSet
53 686 m 1,0,-1
 311 686 l 1,1,-1
 311 597 l 1,2,-1
 231 597 l 1,3,-1
 231 89 l 1,4,-1
 311 89 l 1,5,-1
 311 0 l 1,6,-1
 53 0 l 1,7,-1
 53 89 l 1,8,-1
 133 89 l 1,9,-1
 133 597 l 1,10,-1
 53 597 l 1,11,-1
 53 686 l 1,0,-1
144 750 m 1,12,-1
 238 895 l 1,13,-1
 328 895 l 1,14,-1
 329 892 l 1,15,-1
 213 750 l 1,16,-1
 144 750 l 1,12,-1
EndSplineSet
EndChar

StartChar: Icircumflex
Encoding: 206 206 183
Width: 364
Flags: HW
LayerCount: 2
Fore
SplineSet
53 686 m 1,0,-1
 311 686 l 1,1,-1
 311 597 l 1,2,-1
 231 597 l 1,3,-1
 231 89 l 1,4,-1
 311 89 l 1,5,-1
 311 0 l 1,6,-1
 53 0 l 1,7,-1
 53 89 l 1,8,-1
 133 89 l 1,9,-1
 133 597 l 1,10,-1
 53 597 l 1,11,-1
 53 686 l 1,0,-1
144 895 m 1,12,-1
 222 895 l 1,13,-1
 357 750 l 1,14,-1
 277 750 l 1,15,-1
 183 839 l 1,16,-1
 88 750 l 1,17,-1
 8 750 l 1,18,-1
 144 895 l 1,12,-1
EndSplineSet
EndChar

StartChar: Idieresis
Encoding: 207 207 184
Width: 364
Flags: HW
LayerCount: 2
Fore
SplineSet
53 686 m 1,0,-1
 311 686 l 1,1,-1
 311 597 l 1,2,-1
 231 597 l 1,3,-1
 231 89 l 1,4,-1
 311 89 l 1,5,-1
 311 0 l 1,6,-1
 53 0 l 1,7,-1
 53 89 l 1,8,-1
 133 89 l 1,9,-1
 133 597 l 1,10,-1
 53 597 l 1,11,-1
 53 686 l 1,0,-1
43 848 m 1,12,-1
 133 848 l 1,13,-1
 133 750 l 1,14,-1
 43 750 l 1,15,-1
 43 848 l 1,12,-1
231 848 m 1,16,-1
 322 848 l 1,17,-1
 322 750 l 1,18,-1
 231 750 l 1,19,-1
 231 848 l 1,16,-1
EndSplineSet
EndChar

StartChar: Ntilde
Encoding: 209 209 185
Width: 694
Flags: HW
LayerCount: 2
Fore
SplineSet
519 0 m 1,0,-1
 184 502 l 1,1,-1
 181 501 l 1,2,-1
 181 0 l 1,3,-1
 92 0 l 1,4,-1
 92 686 l 1,5,-1
 178 686 l 1,6,-1
 510 190 l 1,7,-1
 513 191 l 1,8,-1
 513 686 l 1,9,-1
 602 686 l 1,10,-1
 602 0 l 1,11,-1
 519 0 l 1,0,-1
541 854 m 1,12,13
 541 813.444444444 541 813.444444444 514.5 784 c 0,14,15
 483.9 750 483.9 750 429 750 c 0,16,17
 398.583333333 750 398.583333333 750 359.291666667 761.5 c 128,-1,18
 320 773 320 773 300 778.5 c 128,-1,19
 280 784 280 784 260 784 c 0,20,21
 215 784 215 784 205 750 c 1,22,-1
 155 750 l 1,23,24
 155 814.930232558 155 814.930232558 217.5 844 c 0,25,26
 239 854 239 854 265.5 854 c 128,-1,27
 292 854 292 854 313.5 848.5 c 128,-1,28
 335 843 335 843 355.5 836.5 c 0,29,30
 410.692307692 819 410.692307692 819 436 819 c 0,31,32
 480 819 480 819 491 854 c 1,33,-1
 541 854 l 1,12,13
EndSplineSet
EndChar

StartChar: Ograve
Encoding: 210 210 186
Width: 690
Flags: HW
LayerCount: 2
Fore
SplineSet
531 388 m 2,0,1
 531 554.101449275 531 554.101449275 419.5 594.5 c 0,2,3
 385 607 385 607 344.5 607 c 128,-1,4
 304 607 304 607 270 594.5 c 128,-1,5
 236 582 236 582 211.5 556 c 0,6,7
 159 500.285714286 159 500.285714286 159 388 c 2,8,-1
 159 298 l 2,9,10
 159 132.308823529 159 132.308823529 270 91.5 c 0,11,12
 304 79 304 79 344.5 79 c 128,-1,13
 385 79 385 79 419.5 91.5 c 128,-1,14
 454 104 454 104 478.5 130 c 0,15,16
 531 185.714285714 531 185.714285714 531 298 c 2,17,-1
 531 388 l 2,0,1
629 298 m 2,18,19
 629 148.415584416 629 148.415584416 545.5 66 c 0,20,21
 468.5 -10 468.5 -10 345 -10 c 256,22,23
 221.5 -10 221.5 -10 144.5 66 c 0,24,25
 61 148.415584416 61 148.415584416 61 298 c 2,26,-1
 61 388 l 2,27,28
 61 537.584415584 61 537.584415584 144.5 620 c 0,29,30
 221.5 696 221.5 696 345 696 c 256,31,32
 468.5 696 468.5 696 545.5 620 c 0,33,34
 629 537.584415584 629 537.584415584 629 388 c 2,35,-1
 629 298 l 2,18,19
313 750 m 1,36,-1
 198 892 l 1,37,-1
 199 895 l 1,38,-1
 288 895 l 1,39,-1
 383 750 l 1,40,-1
 313 750 l 1,36,-1
EndSplineSet
EndChar

StartChar: Oacute
Encoding: 211 211 187
Width: 690
Flags: HW
LayerCount: 2
Fore
SplineSet
531 388 m 2,0,1
 531 554.101449275 531 554.101449275 419.5 594.5 c 0,2,3
 385 607 385 607 344.5 607 c 128,-1,4
 304 607 304 607 270 594.5 c 128,-1,5
 236 582 236 582 211.5 556 c 0,6,7
 159 500.285714286 159 500.285714286 159 388 c 2,8,-1
 159 298 l 2,9,10
 159 132.308823529 159 132.308823529 270 91.5 c 0,11,12
 304 79 304 79 344.5 79 c 128,-1,13
 385 79 385 79 419.5 91.5 c 128,-1,14
 454 104 454 104 478.5 130 c 0,15,16
 531 185.714285714 531 185.714285714 531 298 c 2,17,-1
 531 388 l 2,0,1
629 298 m 2,18,19
 629 148.415584416 629 148.415584416 545.5 66 c 0,20,21
 468.5 -10 468.5 -10 345 -10 c 256,22,23
 221.5 -10 221.5 -10 144.5 66 c 0,24,25
 61 148.415584416 61 148.415584416 61 298 c 2,26,-1
 61 388 l 2,27,28
 61 537.584415584 61 537.584415584 144.5 620 c 0,29,30
 221.5 696 221.5 696 345 696 c 256,31,32
 468.5 696 468.5 696 545.5 620 c 0,33,34
 629 537.584415584 629 537.584415584 629 388 c 2,35,-1
 629 298 l 2,18,19
306 750 m 1,36,-1
 400 895 l 1,37,-1
 490 895 l 1,38,-1
 491 892 l 1,39,-1
 375 750 l 1,40,-1
 306 750 l 1,36,-1
EndSplineSet
EndChar

StartChar: Ocircumflex
Encoding: 212 212 188
Width: 690
Flags: HW
LayerCount: 2
Fore
SplineSet
531 388 m 2,0,1
 531 554.101449275 531 554.101449275 419.5 594.5 c 0,2,3
 385 607 385 607 344.5 607 c 128,-1,4
 304 607 304 607 270 594.5 c 128,-1,5
 236 582 236 582 211.5 556 c 0,6,7
 159 500.285714286 159 500.285714286 159 388 c 2,8,-1
 159 298 l 2,9,10
 159 132.308823529 159 132.308823529 270 91.5 c 0,11,12
 304 79 304 79 344.5 79 c 128,-1,13
 385 79 385 79 419.5 91.5 c 128,-1,14
 454 104 454 104 478.5 130 c 0,15,16
 531 185.714285714 531 185.714285714 531 298 c 2,17,-1
 531 388 l 2,0,1
629 298 m 2,18,19
 629 148.415584416 629 148.415584416 545.5 66 c 0,20,21
 468.5 -10 468.5 -10 345 -10 c 256,22,23
 221.5 -10 221.5 -10 144.5 66 c 0,24,25
 61 148.415584416 61 148.415584416 61 298 c 2,26,-1
 61 388 l 2,27,28
 61 537.584415584 61 537.584415584 144.5 620 c 0,29,30
 221.5 696 221.5 696 345 696 c 256,31,32
 468.5 696 468.5 696 545.5 620 c 0,33,34
 629 537.584415584 629 537.584415584 629 388 c 2,35,-1
 629 298 l 2,18,19
304 895 m 1,36,-1
 382 895 l 1,37,-1
 517 750 l 1,38,-1
 437 750 l 1,39,-1
 343 839 l 1,40,-1
 248 750 l 1,41,-1
 168 750 l 1,42,-1
 304 895 l 1,36,-1
EndSplineSet
EndChar

StartChar: Otilde
Encoding: 213 213 189
Width: 690
Flags: HW
LayerCount: 2
Fore
SplineSet
531 388 m 2,0,1
 531 554.101449275 531 554.101449275 419.5 594.5 c 0,2,3
 385 607 385 607 344.5 607 c 128,-1,4
 304 607 304 607 270 594.5 c 128,-1,5
 236 582 236 582 211.5 556 c 0,6,7
 159 500.285714286 159 500.285714286 159 388 c 2,8,-1
 159 298 l 2,9,10
 159 132.308823529 159 132.308823529 270 91.5 c 0,11,12
 304 79 304 79 344.5 79 c 128,-1,13
 385 79 385 79 419.5 91.5 c 128,-1,14
 454 104 454 104 478.5 130 c 0,15,16
 531 185.714285714 531 185.714285714 531 298 c 2,17,-1
 531 388 l 2,0,1
629 298 m 2,18,19
 629 148.415584416 629 148.415584416 545.5 66 c 0,20,21
 468.5 -10 468.5 -10 345 -10 c 256,22,23
 221.5 -10 221.5 -10 144.5 66 c 0,24,25
 61 148.415584416 61 148.415584416 61 298 c 2,26,-1
 61 388 l 2,27,28
 61 537.584415584 61 537.584415584 144.5 620 c 0,29,30
 221.5 696 221.5 696 345 696 c 256,31,32
 468.5 696 468.5 696 545.5 620 c 0,33,34
 629 537.584415584 629 537.584415584 629 388 c 2,35,-1
 629 298 l 2,18,19
538 854 m 1,36,37
 538 813.444444444 538 813.444444444 511.5 784 c 0,38,39
 480.9 750 480.9 750 426 750 c 0,40,41
 395.583333333 750 395.583333333 750 356.291666667 761.5 c 128,-1,42
 317 773 317 773 297 778.5 c 128,-1,43
 277 784 277 784 257 784 c 0,44,45
 212 784 212 784 202 750 c 1,46,-1
 152 750 l 1,47,48
 152 814.930232558 152 814.930232558 214.5 844 c 0,49,50
 236 854 236 854 262.5 854 c 128,-1,51
 289 854 289 854 310.5 848.5 c 128,-1,52
 332 843 332 843 352.5 836.5 c 0,53,54
 407.692307692 819 407.692307692 819 433 819 c 0,55,56
 477 819 477 819 488 854 c 1,57,-1
 538 854 l 1,36,37
EndSplineSet
EndChar

StartChar: Odieresis
Encoding: 214 214 190
Width: 690
Flags: HW
LayerCount: 2
Fore
SplineSet
531 388 m 2,0,1
 531 554.101449275 531 554.101449275 419.5 594.5 c 0,2,3
 385 607 385 607 344.5 607 c 128,-1,4
 304 607 304 607 270 594.5 c 128,-1,5
 236 582 236 582 211.5 556 c 0,6,7
 159 500.285714286 159 500.285714286 159 388 c 2,8,-1
 159 298 l 2,9,10
 159 132.308823529 159 132.308823529 270 91.5 c 0,11,12
 304 79 304 79 344.5 79 c 128,-1,13
 385 79 385 79 419.5 91.5 c 128,-1,14
 454 104 454 104 478.5 130 c 0,15,16
 531 185.714285714 531 185.714285714 531 298 c 2,17,-1
 531 388 l 2,0,1
629 298 m 2,18,19
 629 148.415584416 629 148.415584416 545.5 66 c 0,20,21
 468.5 -10 468.5 -10 345 -10 c 256,22,23
 221.5 -10 221.5 -10 144.5 66 c 0,24,25
 61 148.415584416 61 148.415584416 61 298 c 2,26,-1
 61 388 l 2,27,28
 61 537.584415584 61 537.584415584 144.5 620 c 0,29,30
 221.5 696 221.5 696 345 696 c 256,31,32
 468.5 696 468.5 696 545.5 620 c 0,33,34
 629 537.584415584 629 537.584415584 629 388 c 2,35,-1
 629 298 l 2,18,19
207 848 m 1,36,-1
 297 848 l 1,37,-1
 297 750 l 1,38,-1
 207 750 l 1,39,-1
 207 848 l 1,36,-1
395 848 m 1,40,-1
 486 848 l 1,41,-1
 486 750 l 1,42,-1
 395 750 l 1,43,-1
 395 848 l 1,40,-1
EndSplineSet
EndChar

StartChar: Ugrave
Encoding: 217 217 191
Width: 680
Flags: HW
LayerCount: 2
Fore
SplineSet
594 686 m 1,0,-1
 594 219 l 2,1,2
 594 115.230769231 594 115.230769231 525.5 52 c 0,3,4
 458.333333333 -10 458.333333333 -10 346 -10 c 2,5,-1
 333 -10 l 2,6,7
 220.666666667 -10 220.666666667 -10 153.5 52 c 0,8,9
 86 114.307692308 86 114.307692308 86 219 c 2,10,-1
 86 686 l 1,11,-1
 184 686 l 1,12,-1
 184 221 l 2,13,14
 184 159.390243902 184 159.390243902 226.5 120 c 0,15,16
 270.736842105 79 270.736842105 79 341.868421053 79 c 128,-1,17
 413 79 413 79 454.5 118.5 c 128,-1,18
 496 158 496 158 496 221 c 2,19,-1
 496 686 l 1,20,-1
 594 686 l 1,0,-1
313 750 m 1,21,-1
 198 892 l 1,22,-1
 199 895 l 1,23,-1
 288 895 l 1,24,-1
 383 750 l 1,25,-1
 313 750 l 1,21,-1
EndSplineSet
EndChar

StartChar: Uacute
Encoding: 218 218 192
Width: 680
Flags: HW
LayerCount: 2
Fore
SplineSet
594 686 m 1,0,-1
 594 219 l 2,1,2
 594 115.230769231 594 115.230769231 525.5 52 c 0,3,4
 458.333333333 -10 458.333333333 -10 346 -10 c 2,5,-1
 333 -10 l 2,6,7
 220.666666667 -10 220.666666667 -10 153.5 52 c 0,8,9
 86 114.307692308 86 114.307692308 86 219 c 2,10,-1
 86 686 l 1,11,-1
 184 686 l 1,12,-1
 184 221 l 2,13,14
 184 159.390243902 184 159.390243902 226.5 120 c 0,15,16
 270.736842105 79 270.736842105 79 341.868421053 79 c 128,-1,17
 413 79 413 79 454.5 118.5 c 128,-1,18
 496 158 496 158 496 221 c 2,19,-1
 496 686 l 1,20,-1
 594 686 l 1,0,-1
304 750 m 1,21,-1
 398 895 l 1,22,-1
 488 895 l 1,23,-1
 489 892 l 1,24,-1
 373 750 l 1,25,-1
 304 750 l 1,21,-1
EndSplineSet
EndChar

StartChar: Ucircumflex
Encoding: 219 219 193
Width: 680
Flags: HW
LayerCount: 2
Fore
SplineSet
594 686 m 1,0,-1
 594 219 l 2,1,2
 594 115.230769231 594 115.230769231 525.5 52 c 0,3,4
 458.333333333 -10 458.333333333 -10 346 -10 c 2,5,-1
 333 -10 l 2,6,7
 220.666666667 -10 220.666666667 -10 153.5 52 c 0,8,9
 86 114.307692308 86 114.307692308 86 219 c 2,10,-1
 86 686 l 1,11,-1
 184 686 l 1,12,-1
 184 221 l 2,13,14
 184 159.390243902 184 159.390243902 226.5 120 c 0,15,16
 270.736842105 79 270.736842105 79 341.868421053 79 c 128,-1,17
 413 79 413 79 454.5 118.5 c 128,-1,18
 496 158 496 158 496 221 c 2,19,-1
 496 686 l 1,20,-1
 594 686 l 1,0,-1
301 895 m 1,21,-1
 379 895 l 1,22,-1
 514 750 l 1,23,-1
 434 750 l 1,24,-1
 340 839 l 1,25,-1
 245 750 l 1,26,-1
 165 750 l 1,27,-1
 301 895 l 1,21,-1
EndSplineSet
EndChar

StartChar: Udieresis
Encoding: 220 220 194
Width: 680
Flags: HW
LayerCount: 2
Fore
SplineSet
594 686 m 1,0,-1
 594 219 l 2,1,2
 594 115.230769231 594 115.230769231 525.5 52 c 0,3,4
 458.333333333 -10 458.333333333 -10 346 -10 c 2,5,-1
 333 -10 l 2,6,7
 220.666666667 -10 220.666666667 -10 153.5 52 c 0,8,9
 86 114.307692308 86 114.307692308 86 219 c 2,10,-1
 86 686 l 1,11,-1
 184 686 l 1,12,-1
 184 221 l 2,13,14
 184 159.390243902 184 159.390243902 226.5 120 c 0,15,16
 270.736842105 79 270.736842105 79 341.868421053 79 c 128,-1,17
 413 79 413 79 454.5 118.5 c 128,-1,18
 496 158 496 158 496 221 c 2,19,-1
 496 686 l 1,20,-1
 594 686 l 1,0,-1
201 848 m 1,21,-1
 291 848 l 1,22,-1
 291 750 l 1,23,-1
 201 750 l 1,24,-1
 201 848 l 1,21,-1
389 848 m 1,25,-1
 480 848 l 1,26,-1
 480 750 l 1,27,-1
 389 750 l 1,28,-1
 389 848 l 1,25,-1
EndSplineSet
EndChar

StartChar: Yacute
Encoding: 221 221 195
Width: 572
Flags: HW
LayerCount: 2
Fore
SplineSet
335 265 m 1,0,-1
 335 0 l 1,1,-1
 237 0 l 1,2,-1
 237 265 l 1,3,-1
 -5 686 l 1,4,-1
 107 686 l 1,5,-1
 290 367 l 1,6,-1
 294 367 l 1,7,-1
 475 686 l 1,8,-1
 576 686 l 1,9,-1
 335 265 l 1,0,-1
259 750 m 1,10,-1
 353 895 l 1,11,-1
 443 895 l 1,12,-1
 444 892 l 1,13,-1
 328 750 l 1,14,-1
 259 750 l 1,10,-1
EndSplineSet
EndChar

StartChar: agrave
Encoding: 224 224 196
Width: 585
Flags: HW
LayerCount: 2
Fore
SplineSet
390 234 m 1,0,1
 262.4 234 262.4 234 219.2 220.5 c 128,-1,2
 176 207 176 207 159 188.5 c 128,-1,3
 142 170 142 170 142 134.5 c 0,4,5
 142 65 142 65 247 65 c 0,6,7
 303.421052632 65 303.421052632 65 345.5 104 c 0,8,9
 390 145.243902439 390 145.243902439 390 214 c 2,10,-1
 390 234 l 1,0,1
394 82 m 1,11,12
 332.666666667 -10 332.666666667 -10 215 -10 c 0,13,14
 99.3859649123 -10 99.3859649123 -10 62.5 62.5 c 0,15,16
 48 91 48 91 48 142 c 128,-1,17
 48 193 48 193 73 226.5 c 128,-1,18
 98 260 98 260 143 278 c 0,19,20
 215.5 307 215.5 307 390 307 c 1,21,-1
 390 354 l 2,22,23
 390 392.956521739 390 392.956521739 375.5 409.97826087 c 0,24,25
 344.814814815 446 344.814814815 446 273 446 c 256,26,27
 203.111111111 446 203.111111111 446 175 411.5 c 0,28,29
 159 391.863636364 159 391.863636364 159 366 c 2,30,-1
 159 354 l 1,31,-1
 67 354 l 1,32,33
 65 364 65 364 65 386.5 c 128,-1,34
 65 409 65 409 81 436 c 128,-1,35
 97 463 97 463 125 481.5 c 0,36,37
 184.783783784 521 184.783783784 521 275 521 c 2,38,-1
 284 521 l 2,39,40
 386 521 386 521 435 480.5 c 128,-1,41
 484 440 484 440 484 365 c 2,42,-1
 484 100 l 2,43,44
 484 81 484 81 492.5 73 c 128,-1,45
 501 65 501 65 512 65 c 256,46,47
 535.6 65 535.6 65 558 79 c 1,48,-1
 558 10 l 1,49,50
 524.666666667 -10 524.666666667 -10 480.333333333 -10 c 128,-1,51
 436 -10 436 -10 416 16 c 128,-1,52
 396 42 396 42 394 82 c 1,11,12
244 575 m 1,53,-1
 129 717 l 1,54,-1
 130 720 l 1,55,-1
 219 720 l 1,56,-1
 314 575 l 1,57,-1
 244 575 l 1,53,-1
EndSplineSet
EndChar

StartChar: aacute
Encoding: 225 225 197
Width: 585
Flags: HW
LayerCount: 2
Fore
SplineSet
390 234 m 1,0,1
 262.4 234 262.4 234 219.2 220.5 c 128,-1,2
 176 207 176 207 159 188.5 c 128,-1,3
 142 170 142 170 142 134.5 c 0,4,5
 142 65 142 65 247 65 c 0,6,7
 303.421052632 65 303.421052632 65 345.5 104 c 0,8,9
 390 145.243902439 390 145.243902439 390 214 c 2,10,-1
 390 234 l 1,0,1
394 82 m 1,11,12
 332.666666667 -10 332.666666667 -10 215 -10 c 0,13,14
 99.3859649123 -10 99.3859649123 -10 62.5 62.5 c 0,15,16
 48 91 48 91 48 142 c 128,-1,17
 48 193 48 193 73 226.5 c 128,-1,18
 98 260 98 260 143 278 c 0,19,20
 215.5 307 215.5 307 390 307 c 1,21,-1
 390 354 l 2,22,23
 390 392.956521739 390 392.956521739 375.5 409.97826087 c 0,24,25
 344.814814815 446 344.814814815 446 273 446 c 256,26,27
 203.111111111 446 203.111111111 446 175 411.5 c 0,28,29
 159 391.863636364 159 391.863636364 159 366 c 2,30,-1
 159 354 l 1,31,-1
 67 354 l 1,32,33
 65 364 65 364 65 386.5 c 128,-1,34
 65 409 65 409 81 436 c 128,-1,35
 97 463 97 463 125 481.5 c 0,36,37
 184.783783784 521 184.783783784 521 275 521 c 2,38,-1
 284 521 l 2,39,40
 386 521 386 521 435 480.5 c 128,-1,41
 484 440 484 440 484 365 c 2,42,-1
 484 100 l 2,43,44
 484 81 484 81 492.5 73 c 128,-1,45
 501 65 501 65 512 65 c 256,46,47
 535.6 65 535.6 65 558 79 c 1,48,-1
 558 10 l 1,49,50
 524.666666667 -10 524.666666667 -10 480.333333333 -10 c 128,-1,51
 436 -10 436 -10 416 16 c 128,-1,52
 396 42 396 42 394 82 c 1,11,12
246 575 m 1,53,-1
 340 720 l 1,54,-1
 430 720 l 1,55,-1
 431 717 l 1,56,-1
 315 575 l 1,57,-1
 246 575 l 1,53,-1
EndSplineSet
EndChar

StartChar: acircumflex
Encoding: 226 226 198
Width: 585
Flags: HW
LayerCount: 2
Fore
SplineSet
390 234 m 1,0,1
 262.4 234 262.4 234 219.2 220.5 c 128,-1,2
 176 207 176 207 159 188.5 c 128,-1,3
 142 170 142 170 142 134.5 c 0,4,5
 142 65 142 65 247 65 c 0,6,7
 303.421052632 65 303.421052632 65 345.5 104 c 0,8,9
 390 145.243902439 390 145.243902439 390 214 c 2,10,-1
 390 234 l 1,0,1
394 82 m 1,11,12
 332.666666667 -10 332.666666667 -10 215 -10 c 0,13,14
 99.3859649123 -10 99.3859649123 -10 62.5 62.5 c 0,15,16
 48 91 48 91 48 142 c 128,-1,17
 48 193 48 193 73 226.5 c 128,-1,18
 98 260 98 260 143 278 c 0,19,20
 215.5 307 215.5 307 390 307 c 1,21,-1
 390 354 l 2,22,23
 390 392.956521739 390 392.956521739 375.5 409.97826087 c 0,24,25
 344.814814815 446 344.814814815 446 273 446 c 256,26,27
 203.111111111 446 203.111111111 446 175 411.5 c 0,28,29
 159 391.863636364 159 391.863636364 159 366 c 2,30,-1
 159 354 l 1,31,-1
 67 354 l 1,32,33
 65 364 65 364 65 386.5 c 128,-1,34
 65 409 65 409 81 436 c 128,-1,35
 97 463 97 463 125 481.5 c 0,36,37
 184.783783784 521 184.783783784 521 275 521 c 2,38,-1
 284 521 l 2,39,40
 386 521 386 521 435 480.5 c 128,-1,41
 484 440 484 440 484 365 c 2,42,-1
 484 100 l 2,43,44
 484 81 484 81 492.5 73 c 128,-1,45
 501 65 501 65 512 65 c 256,46,47
 535.6 65 535.6 65 558 79 c 1,48,-1
 558 10 l 1,49,50
 524.666666667 -10 524.666666667 -10 480.333333333 -10 c 128,-1,51
 436 -10 436 -10 416 16 c 128,-1,52
 396 42 396 42 394 82 c 1,11,12
239 720 m 1,53,-1
 317 720 l 1,54,-1
 452 575 l 1,55,-1
 372 575 l 1,56,-1
 278 664 l 1,57,-1
 183 575 l 1,58,-1
 103 575 l 1,59,-1
 239 720 l 1,53,-1
EndSplineSet
EndChar

StartChar: atilde
Encoding: 227 227 199
Width: 585
Flags: HW
LayerCount: 2
Fore
SplineSet
390 234 m 1,0,1
 262.4 234 262.4 234 219.2 220.5 c 128,-1,2
 176 207 176 207 159 188.5 c 128,-1,3
 142 170 142 170 142 134.5 c 0,4,5
 142 65 142 65 247 65 c 0,6,7
 303.421052632 65 303.421052632 65 345.5 104 c 0,8,9
 390 145.243902439 390 145.243902439 390 214 c 2,10,-1
 390 234 l 1,0,1
394 82 m 1,11,12
 332.666666667 -10 332.666666667 -10 215 -10 c 0,13,14
 99.3859649123 -10 99.3859649123 -10 62.5 62.5 c 0,15,16
 48 91 48 91 48 142 c 128,-1,17
 48 193 48 193 73 226.5 c 128,-1,18
 98 260 98 260 143 278 c 0,19,20
 215.5 307 215.5 307 390 307 c 1,21,-1
 390 354 l 2,22,23
 390 392.956521739 390 392.956521739 375.5 409.97826087 c 0,24,25
 344.814814815 446 344.814814815 446 273 446 c 256,26,27
 203.111111111 446 203.111111111 446 175 411.5 c 0,28,29
 159 391.863636364 159 391.863636364 159 366 c 2,30,-1
 159 354 l 1,31,-1
 67 354 l 1,32,33
 65 364 65 364 65 386.5 c 128,-1,34
 65 409 65 409 81 436 c 128,-1,35
 97 463 97 463 125 481.5 c 0,36,37
 184.783783784 521 184.783783784 521 275 521 c 2,38,-1
 284 521 l 2,39,40
 386 521 386 521 435 480.5 c 128,-1,41
 484 440 484 440 484 365 c 2,42,-1
 484 100 l 2,43,44
 484 81 484 81 492.5 73 c 128,-1,45
 501 65 501 65 512 65 c 256,46,47
 535.6 65 535.6 65 558 79 c 1,48,-1
 558 10 l 1,49,50
 524.666666667 -10 524.666666667 -10 480.333333333 -10 c 128,-1,51
 436 -10 436 -10 416 16 c 128,-1,52
 396 42 396 42 394 82 c 1,11,12
471 720 m 1,53,54
 471 679.444444444 471 679.444444444 444.5 650 c 0,55,56
 413.9 616 413.9 616 359 616 c 0,57,58
 328.583333333 616 328.583333333 616 289.291666667 627.5 c 128,-1,59
 250 639 250 639 230 644.5 c 128,-1,60
 210 650 210 650 190 650 c 0,61,62
 145 650 145 650 135 616 c 1,63,-1
 85 616 l 1,64,65
 85 680.930232558 85 680.930232558 147.5 710 c 0,66,67
 169 720 169 720 195.5 720 c 128,-1,68
 222 720 222 720 243.5 714.5 c 128,-1,69
 265 709 265 709 285.5 702.5 c 0,70,71
 340.692307692 685 340.692307692 685 366 685 c 0,72,73
 410 685 410 685 421 720 c 1,74,-1
 471 720 l 1,53,54
EndSplineSet
EndChar

StartChar: adieresis
Encoding: 228 228 200
Width: 585
Flags: HW
LayerCount: 2
Fore
SplineSet
390 234 m 1,0,1
 262.4 234 262.4 234 219.2 220.5 c 128,-1,2
 176 207 176 207 159 188.5 c 128,-1,3
 142 170 142 170 142 134.5 c 0,4,5
 142 65 142 65 247 65 c 0,6,7
 303.421052632 65 303.421052632 65 345.5 104 c 0,8,9
 390 145.243902439 390 145.243902439 390 214 c 2,10,-1
 390 234 l 1,0,1
394 82 m 1,11,12
 332.666666667 -10 332.666666667 -10 215 -10 c 0,13,14
 99.3859649123 -10 99.3859649123 -10 62.5 62.5 c 0,15,16
 48 91 48 91 48 142 c 128,-1,17
 48 193 48 193 73 226.5 c 128,-1,18
 98 260 98 260 143 278 c 0,19,20
 215.5 307 215.5 307 390 307 c 1,21,-1
 390 354 l 2,22,23
 390 392.956521739 390 392.956521739 375.5 409.97826087 c 0,24,25
 344.814814815 446 344.814814815 446 273 446 c 256,26,27
 203.111111111 446 203.111111111 446 175 411.5 c 0,28,29
 159 391.863636364 159 391.863636364 159 366 c 2,30,-1
 159 354 l 1,31,-1
 67 354 l 1,32,33
 65 364 65 364 65 386.5 c 128,-1,34
 65 409 65 409 81 436 c 128,-1,35
 97 463 97 463 125 481.5 c 0,36,37
 184.783783784 521 184.783783784 521 275 521 c 2,38,-1
 284 521 l 2,39,40
 386 521 386 521 435 480.5 c 128,-1,41
 484 440 484 440 484 365 c 2,42,-1
 484 100 l 2,43,44
 484 81 484 81 492.5 73 c 128,-1,45
 501 65 501 65 512 65 c 256,46,47
 535.6 65 535.6 65 558 79 c 1,48,-1
 558 10 l 1,49,50
 524.666666667 -10 524.666666667 -10 480.333333333 -10 c 128,-1,51
 436 -10 436 -10 416 16 c 128,-1,52
 396 42 396 42 394 82 c 1,11,12
136 720 m 1,53,-1
 226 720 l 1,54,-1
 226 622 l 1,55,-1
 136 622 l 1,56,-1
 136 720 l 1,53,-1
324 720 m 1,57,-1
 415 720 l 1,58,-1
 415 622 l 1,59,-1
 324 622 l 1,60,-1
 324 720 l 1,57,-1
EndSplineSet
EndChar

StartChar: aring
Encoding: 229 229 201
Width: 585
Flags: HW
LayerCount: 2
Fore
SplineSet
390 234 m 1,0,1
 262.4 234 262.4 234 219.2 220.5 c 128,-1,2
 176 207 176 207 159 188.5 c 128,-1,3
 142 170 142 170 142 134.5 c 0,4,5
 142 65 142 65 247 65 c 0,6,7
 303.421052632 65 303.421052632 65 345.5 104 c 0,8,9
 390 145.243902439 390 145.243902439 390 214 c 2,10,-1
 390 234 l 1,0,1
394 82 m 1,11,12
 332.666666667 -10 332.666666667 -10 215 -10 c 0,13,14
 99.3859649123 -10 99.3859649123 -10 62.5 62.5 c 0,15,16
 48 91 48 91 48 142 c 128,-1,17
 48 193 48 193 73 226.5 c 128,-1,18
 98 260 98 260 143 278 c 0,19,20
 215.5 307 215.5 307 390 307 c 1,21,-1
 390 354 l 2,22,23
 390 392.956521739 390 392.956521739 375.5 409.97826087 c 0,24,25
 344.814814815 446 344.814814815 446 273 446 c 256,26,27
 203.111111111 446 203.111111111 446 175 411.5 c 0,28,29
 159 391.863636364 159 391.863636364 159 366 c 2,30,-1
 159 354 l 1,31,-1
 67 354 l 1,32,33
 65 364 65 364 65 386.5 c 128,-1,34
 65 409 65 409 81 436 c 128,-1,35
 97 463 97 463 125 481.5 c 0,36,37
 184.783783784 521 184.783783784 521 275 521 c 2,38,-1
 284 521 l 2,39,40
 386 521 386 521 435 480.5 c 128,-1,41
 484 440 484 440 484 365 c 2,42,-1
 484 100 l 2,43,44
 484 81 484 81 492.5 73 c 128,-1,45
 501 65 501 65 512 65 c 256,46,47
 535.6 65 535.6 65 558 79 c 1,48,-1
 558 10 l 1,49,50
 524.666666667 -10 524.666666667 -10 480.333333333 -10 c 128,-1,51
 436 -10 436 -10 416 16 c 128,-1,52
 396 42 396 42 394 82 c 1,11,12
378 656 m 256,53,54
 378 615 378 615 348.5 585.5 c 128,-1,55
 319 556 319 556 277 556 c 256,56,57
 235.555555556 556 235.555555556 556 206 584.5 c 0,58,59
 176 613.428571429 176 613.428571429 176 656 c 256,60,61
 176 698 176 698 205.5 727.5 c 128,-1,62
 235 757 235 757 277 757 c 256,63,64
 317.407407407 757 317.407407407 757 348 727.5 c 0,65,66
 378 698.571428571 378 698.571428571 378 656 c 256,53,54
316.5 618.5 m 128,-1,68
 333 634 333 634 333 656.5 c 128,-1,69
 333 679 333 679 316.5 694.5 c 128,-1,70
 300 710 300 710 277 710 c 256,71,72
 254 710 254 710 237.5 694.5 c 128,-1,73
 221 679 221 679 221 656 c 256,74,75
 221 633 221 633 237.5 618 c 128,-1,76
 254 603 254 603 277 603 c 256,77,67
 300 603 300 603 316.5 618.5 c 128,-1,68
EndSplineSet
EndChar

StartChar: ccedilla
Encoding: 231 231 202
Width: 544
Flags: HW
LayerCount: 2
Fore
SplineSet
495 200 m 1,0,1
 495 101.285714286 495 101.285714286 435 44.5 c 0,2,3
 377.41509434 -10 377.41509434 -10 284 -10 c 2,4,-1
 276 -10 l 2,5,6
 175.461538462 -10 175.461538462 -10 115 55.5 c 0,7,8
 51 124.833333333 51 124.833333333 51 243 c 2,9,-1
 51 267 l 2,10,11
 51 385.166666667 51 385.166666667 115 454.5 c 0,12,13
 176.384615385 521 176.384615385 521 275 521 c 2,14,-1
 283 521 l 2,15,16
 375.909090909 521 375.909090909 521 435.5 463.5 c 128,-1,17
 495 406.087719298 495 406.087719298 495 310 c 1,18,-1
 402 310 l 1,19,20
 402 404.446808511 402 404.446808511 332.5 435.5 c 0,21,22
 309 446 309 446 279.5 446 c 128,-1,23
 250 446 250 446 225.5 436 c 128,-1,24
 201 426 201 426 183 406.5 c 0,25,26
 145 365.333333333 145 365.333333333 145 291 c 2,27,-1
 145 237 l 2,28,29
 145 148 145 148 182 106.5 c 128,-1,30
 219 65 219 65 282.5 65 c 128,-1,31
 346 65 346 65 375.5 103 c 128,-1,32
 405 141 405 141 405 200 c 1,33,-1
 495 200 l 1,0,1
278 -17 m 2,34,35
 389 -17 389 -17 389 -106 c 256,36,37
 389 -154.882352941 389 -154.882352941 348 -179 c 0,38,39
 317.4 -197 317.4 -197 283.7 -197 c 0,40,41
 219 -197 219 -197 179 -175 c 1,42,-1
 188 -126 l 1,43,44
 228 -146 228 -146 260.5 -146 c 0,45,46
 327 -146 327 -146 327 -101 c 0,47,48
 327 -81 327 -81 311.5 -70.5 c 128,-1,49
 296 -60 296 -60 275 -60 c 2,50,-1
 254 -60 l 1,51,-1
 254 -17 l 1,52,-1
 278 -17 l 2,34,35
EndSplineSet
EndChar

StartChar: egrave
Encoding: 232 232 203
Width: 556
Flags: HW
LayerCount: 2
Fore
SplineSet
145 234 m 1,0,1
 148.376811594 115.811594203 148.376811594 115.811594203 224 78 c 0,2,3
 250 65 250 65 289.5 65 c 128,-1,4
 329 65 329 65 354 80 c 128,-1,5
 379 95 379 95 392 115 c 0,6,7
 413 147.307692308 413 147.307692308 413 190 c 1,8,-1
 502 190 l 1,9,10
 502 99.1929824561 502 99.1929824561 441.5 44 c 0,11,12
 382.307692308 -10 382.307692308 -10 288 -10 c 2,13,-1
 284 -10 l 2,14,15
 178.907692308 -10 178.907692308 -10 116.5 56.5 c 0,16,17
 51 126.295081967 51 126.295081967 51 245 c 2,18,-1
 51 265 l 2,19,20
 51 384.213114754 51 384.213114754 115.5 454 c 0,21,22
 177.424242424 521 177.424242424 521 281 521 c 2,23,-1
 288 521 l 2,24,25
 383.464285714 521 383.464285714 521 442.5 463 c 0,26,27
 502 404.543859649 502 404.543859649 502 305 c 2,28,-1
 502 234 l 1,29,-1
 145 234 l 1,0,1
191 411.5 m 128,-1,31
 155 377 155 377 147 307 c 1,32,-1
 409 307 l 1,33,-1
 409 319 l 2,34,35
 409 379.176470588 409 379.176470588 372 414 c 0,36,37
 338 446 338 446 282.5 446 c 128,-1,30
 227 446 227 446 191 411.5 c 128,-1,31
250 575 m 1,38,-1
 135 717 l 1,39,-1
 136 720 l 1,40,-1
 225 720 l 1,41,-1
 320 575 l 1,42,-1
 250 575 l 1,38,-1
EndSplineSet
EndChar

StartChar: eacute
Encoding: 233 233 204
Width: 556
Flags: HW
LayerCount: 2
Fore
SplineSet
145 234 m 1,0,1
 148.376811594 115.811594203 148.376811594 115.811594203 224 78 c 0,2,3
 250 65 250 65 289.5 65 c 128,-1,4
 329 65 329 65 354 80 c 128,-1,5
 379 95 379 95 392 115 c 0,6,7
 413 147.307692308 413 147.307692308 413 190 c 1,8,-1
 502 190 l 1,9,10
 502 99.1929824561 502 99.1929824561 441.5 44 c 0,11,12
 382.307692308 -10 382.307692308 -10 288 -10 c 2,13,-1
 284 -10 l 2,14,15
 178.907692308 -10 178.907692308 -10 116.5 56.5 c 0,16,17
 51 126.295081967 51 126.295081967 51 245 c 2,18,-1
 51 265 l 2,19,20
 51 384.213114754 51 384.213114754 115.5 454 c 0,21,22
 177.424242424 521 177.424242424 521 281 521 c 2,23,-1
 288 521 l 2,24,25
 383.464285714 521 383.464285714 521 442.5 463 c 0,26,27
 502 404.543859649 502 404.543859649 502 305 c 2,28,-1
 502 234 l 1,29,-1
 145 234 l 1,0,1
191 411.5 m 128,-1,31
 155 377 155 377 147 307 c 1,32,-1
 409 307 l 1,33,-1
 409 319 l 2,34,35
 409 379.176470588 409 379.176470588 372 414 c 0,36,37
 338 446 338 446 282.5 446 c 128,-1,30
 227 446 227 446 191 411.5 c 128,-1,31
246 575 m 1,38,-1
 340 720 l 1,39,-1
 430 720 l 1,40,-1
 431 717 l 1,41,-1
 315 575 l 1,42,-1
 246 575 l 1,38,-1
EndSplineSet
EndChar

StartChar: ecircumflex
Encoding: 234 234 205
Width: 556
Flags: HW
LayerCount: 2
Fore
SplineSet
145 234 m 1,0,1
 148.376811594 115.811594203 148.376811594 115.811594203 224 78 c 0,2,3
 250 65 250 65 289.5 65 c 128,-1,4
 329 65 329 65 354 80 c 128,-1,5
 379 95 379 95 392 115 c 0,6,7
 413 147.307692308 413 147.307692308 413 190 c 1,8,-1
 502 190 l 1,9,10
 502 99.1929824561 502 99.1929824561 441.5 44 c 0,11,12
 382.307692308 -10 382.307692308 -10 288 -10 c 2,13,-1
 284 -10 l 2,14,15
 178.907692308 -10 178.907692308 -10 116.5 56.5 c 0,16,17
 51 126.295081967 51 126.295081967 51 245 c 2,18,-1
 51 265 l 2,19,20
 51 384.213114754 51 384.213114754 115.5 454 c 0,21,22
 177.424242424 521 177.424242424 521 281 521 c 2,23,-1
 288 521 l 2,24,25
 383.464285714 521 383.464285714 521 442.5 463 c 0,26,27
 502 404.543859649 502 404.543859649 502 305 c 2,28,-1
 502 234 l 1,29,-1
 145 234 l 1,0,1
191 411.5 m 128,-1,31
 155 377 155 377 147 307 c 1,32,-1
 409 307 l 1,33,-1
 409 319 l 2,34,35
 409 379.176470588 409 379.176470588 372 414 c 0,36,37
 338 446 338 446 282.5 446 c 128,-1,30
 227 446 227 446 191 411.5 c 128,-1,31
244 720 m 1,38,-1
 322 720 l 1,39,-1
 457 575 l 1,40,-1
 377 575 l 1,41,-1
 283 664 l 1,42,-1
 188 575 l 1,43,-1
 108 575 l 1,44,-1
 244 720 l 1,38,-1
EndSplineSet
EndChar

StartChar: edieresis
Encoding: 235 235 206
Width: 556
Flags: HW
LayerCount: 2
Fore
SplineSet
145 234 m 1,0,1
 148.376811594 115.811594203 148.376811594 115.811594203 224 78 c 0,2,3
 250 65 250 65 289.5 65 c 128,-1,4
 329 65 329 65 354 80 c 128,-1,5
 379 95 379 95 392 115 c 0,6,7
 413 147.307692308 413 147.307692308 413 190 c 1,8,-1
 502 190 l 1,9,10
 502 99.1929824561 502 99.1929824561 441.5 44 c 0,11,12
 382.307692308 -10 382.307692308 -10 288 -10 c 2,13,-1
 284 -10 l 2,14,15
 178.907692308 -10 178.907692308 -10 116.5 56.5 c 0,16,17
 51 126.295081967 51 126.295081967 51 245 c 2,18,-1
 51 265 l 2,19,20
 51 384.213114754 51 384.213114754 115.5 454 c 0,21,22
 177.424242424 521 177.424242424 521 281 521 c 2,23,-1
 288 521 l 2,24,25
 383.464285714 521 383.464285714 521 442.5 463 c 0,26,27
 502 404.543859649 502 404.543859649 502 305 c 2,28,-1
 502 234 l 1,29,-1
 145 234 l 1,0,1
191 411.5 m 128,-1,31
 155 377 155 377 147 307 c 1,32,-1
 409 307 l 1,33,-1
 409 319 l 2,34,35
 409 379.176470588 409 379.176470588 372 414 c 0,36,37
 338 446 338 446 282.5 446 c 128,-1,30
 227 446 227 446 191 411.5 c 128,-1,31
143 720 m 1,38,-1
 233 720 l 1,39,-1
 233 622 l 1,40,-1
 143 622 l 1,41,-1
 143 720 l 1,38,-1
331 720 m 1,42,-1
 422 720 l 1,43,-1
 422 622 l 1,44,-1
 331 622 l 1,45,-1
 331 720 l 1,42,-1
EndSplineSet
EndChar

StartChar: ntilde
Encoding: 241 241 207
Width: 593
Flags: HW
LayerCount: 2
Fore
SplineSet
164 436 m 1,0,1
 228.673913043 521 228.673913043 521 335 521 c 0,2,3
 460.253731343 521 460.253731343 521 501 423.5 c 0,4,5
 515 390 515 390 515 344 c 2,6,-1
 515 0 l 1,7,-1
 421 0 l 1,8,-1
 421 327 l 2,9,10
 421 392 421 392 391 419 c 128,-1,11
 361 446 361 446 313 446 c 0,12,13
 259 446 259 446 218 405 c 128,-1,14
 177 364 177 364 177 304 c 2,15,-1
 177 0 l 1,16,-1
 83 0 l 1,17,-1
 83 511 l 1,18,-1
 151 511 l 1,19,-1
 164 436 l 1,0,1
497 720 m 1,20,21
 497 679.444444444 497 679.444444444 470.5 650 c 0,22,23
 439.9 616 439.9 616 385 616 c 0,24,25
 354.583333333 616 354.583333333 616 315.291666667 627.5 c 128,-1,26
 276 639 276 639 256 644.5 c 128,-1,27
 236 650 236 650 216 650 c 0,28,29
 171 650 171 650 161 616 c 1,30,-1
 111 616 l 1,31,32
 111 680.930232558 111 680.930232558 173.5 710 c 0,33,34
 195 720 195 720 221.5 720 c 128,-1,35
 248 720 248 720 269.5 714.5 c 128,-1,36
 291 709 291 709 311.5 702.5 c 0,37,38
 366.692307692 685 366.692307692 685 392 685 c 0,39,40
 436 685 436 685 447 720 c 1,41,-1
 497 720 l 1,20,21
EndSplineSet
EndChar

StartChar: ograve
Encoding: 242 242 208
Width: 574
Flags: HW
LayerCount: 2
Fore
SplineSet
428 265 m 2,0,1
 428 356.526315789 428 356.526315789 387 404 c 0,2,3
 350.727272727 446 350.727272727 446 287 446 c 256,4,5
 188.405797101 446 188.405797101 446 157 347.5 c 0,6,7
 146 313 146 313 146 265 c 2,8,-1
 146 246 l 2,9,10
 146 154.473684211 146 154.473684211 187 107 c 0,11,12
 223.272727273 65 223.272727273 65 287 65 c 256,13,14
 385.594202899 65 385.594202899 65 417 163.5 c 0,15,16
 428 198 428 198 428 246 c 2,17,-1
 428 265 l 2,0,1
522 237 m 2,18,19
 522 116.265625 522 116.265625 453 50.5 c 0,20,21
 389.524590164 -10 389.524590164 -10 287 -10 c 256,22,23
 184.475409836 -10 184.475409836 -10 121 50.5 c 0,24,25
 52 116.265625 52 116.265625 52 237 c 2,26,-1
 52 274 l 2,27,28
 52 394.734375 52 394.734375 121 460.5 c 0,29,30
 184.475409836 521 184.475409836 521 287 521 c 256,31,32
 389.524590164 521 389.524590164 521 453 460.5 c 0,33,34
 522 394.734375 522 394.734375 522 274 c 2,35,-1
 522 237 l 2,18,19
253 575 m 1,36,-1
 138 717 l 1,37,-1
 139 720 l 1,38,-1
 228 720 l 1,39,-1
 323 575 l 1,40,-1
 253 575 l 1,36,-1
EndSplineSet
EndChar

StartChar: oacute
Encoding: 243 243 209
Width: 574
Flags: HW
LayerCount: 2
Fore
SplineSet
428 265 m 2,0,1
 428 356.526315789 428 356.526315789 387 404 c 0,2,3
 350.727272727 446 350.727272727 446 287 446 c 256,4,5
 188.405797101 446 188.405797101 446 157 347.5 c 0,6,7
 146 313 146 313 146 265 c 2,8,-1
 146 246 l 2,9,10
 146 154.473684211 146 154.473684211 187 107 c 0,11,12
 223.272727273 65 223.272727273 65 287 65 c 256,13,14
 385.594202899 65 385.594202899 65 417 163.5 c 0,15,16
 428 198 428 198 428 246 c 2,17,-1
 428 265 l 2,0,1
522 237 m 2,18,19
 522 116.265625 522 116.265625 453 50.5 c 0,20,21
 389.524590164 -10 389.524590164 -10 287 -10 c 256,22,23
 184.475409836 -10 184.475409836 -10 121 50.5 c 0,24,25
 52 116.265625 52 116.265625 52 237 c 2,26,-1
 52 274 l 2,27,28
 52 394.734375 52 394.734375 121 460.5 c 0,29,30
 184.475409836 521 184.475409836 521 287 521 c 256,31,32
 389.524590164 521 389.524590164 521 453 460.5 c 0,33,34
 522 394.734375 522 394.734375 522 274 c 2,35,-1
 522 237 l 2,18,19
255 575 m 1,36,-1
 349 720 l 1,37,-1
 439 720 l 1,38,-1
 440 717 l 1,39,-1
 324 575 l 1,40,-1
 255 575 l 1,36,-1
EndSplineSet
EndChar

StartChar: ocircumflex
Encoding: 244 244 210
Width: 574
Flags: HW
LayerCount: 2
Fore
SplineSet
428 265 m 2,0,1
 428 356.526315789 428 356.526315789 387 404 c 0,2,3
 350.727272727 446 350.727272727 446 287 446 c 256,4,5
 188.405797101 446 188.405797101 446 157 347.5 c 0,6,7
 146 313 146 313 146 265 c 2,8,-1
 146 246 l 2,9,10
 146 154.473684211 146 154.473684211 187 107 c 0,11,12
 223.272727273 65 223.272727273 65 287 65 c 256,13,14
 385.594202899 65 385.594202899 65 417 163.5 c 0,15,16
 428 198 428 198 428 246 c 2,17,-1
 428 265 l 2,0,1
522 237 m 2,18,19
 522 116.265625 522 116.265625 453 50.5 c 0,20,21
 389.524590164 -10 389.524590164 -10 287 -10 c 256,22,23
 184.475409836 -10 184.475409836 -10 121 50.5 c 0,24,25
 52 116.265625 52 116.265625 52 237 c 2,26,-1
 52 274 l 2,27,28
 52 394.734375 52 394.734375 121 460.5 c 0,29,30
 184.475409836 521 184.475409836 521 287 521 c 256,31,32
 389.524590164 521 389.524590164 521 453 460.5 c 0,33,34
 522 394.734375 522 394.734375 522 274 c 2,35,-1
 522 237 l 2,18,19
247 720 m 1,36,-1
 325 720 l 1,37,-1
 460 575 l 1,38,-1
 380 575 l 1,39,-1
 286 664 l 1,40,-1
 191 575 l 1,41,-1
 111 575 l 1,42,-1
 247 720 l 1,36,-1
EndSplineSet
EndChar

StartChar: otilde
Encoding: 245 245 211
Width: 574
Flags: HW
LayerCount: 2
Fore
SplineSet
428 265 m 2,0,1
 428 356.526315789 428 356.526315789 387 404 c 0,2,3
 350.727272727 446 350.727272727 446 287 446 c 256,4,5
 188.405797101 446 188.405797101 446 157 347.5 c 0,6,7
 146 313 146 313 146 265 c 2,8,-1
 146 246 l 2,9,10
 146 154.473684211 146 154.473684211 187 107 c 0,11,12
 223.272727273 65 223.272727273 65 287 65 c 256,13,14
 385.594202899 65 385.594202899 65 417 163.5 c 0,15,16
 428 198 428 198 428 246 c 2,17,-1
 428 265 l 2,0,1
522 237 m 2,18,19
 522 116.265625 522 116.265625 453 50.5 c 0,20,21
 389.524590164 -10 389.524590164 -10 287 -10 c 256,22,23
 184.475409836 -10 184.475409836 -10 121 50.5 c 0,24,25
 52 116.265625 52 116.265625 52 237 c 2,26,-1
 52 274 l 2,27,28
 52 394.734375 52 394.734375 121 460.5 c 0,29,30
 184.475409836 521 184.475409836 521 287 521 c 256,31,32
 389.524590164 521 389.524590164 521 453 460.5 c 0,33,34
 522 394.734375 522 394.734375 522 274 c 2,35,-1
 522 237 l 2,18,19
480 720 m 1,36,37
 480 679.444444444 480 679.444444444 453.5 650 c 0,38,39
 422.9 616 422.9 616 368 616 c 0,40,41
 337.583333333 616 337.583333333 616 298.291666667 627.5 c 128,-1,42
 259 639 259 639 239 644.5 c 128,-1,43
 219 650 219 650 199 650 c 0,44,45
 154 650 154 650 144 616 c 1,46,-1
 94 616 l 1,47,48
 94 680.930232558 94 680.930232558 156.5 710 c 0,49,50
 178 720 178 720 204.5 720 c 128,-1,51
 231 720 231 720 252.5 714.5 c 128,-1,52
 274 709 274 709 294.5 702.5 c 0,53,54
 349.692307692 685 349.692307692 685 375 685 c 0,55,56
 419 685 419 685 430 720 c 1,57,-1
 480 720 l 1,36,37
EndSplineSet
EndChar

StartChar: odieresis
Encoding: 246 246 212
Width: 574
Flags: HW
LayerCount: 2
Fore
SplineSet
428 265 m 2,0,1
 428 356.526315789 428 356.526315789 387 404 c 0,2,3
 350.727272727 446 350.727272727 446 287 446 c 256,4,5
 188.405797101 446 188.405797101 446 157 347.5 c 0,6,7
 146 313 146 313 146 265 c 2,8,-1
 146 246 l 2,9,10
 146 154.473684211 146 154.473684211 187 107 c 0,11,12
 223.272727273 65 223.272727273 65 287 65 c 256,13,14
 385.594202899 65 385.594202899 65 417 163.5 c 0,15,16
 428 198 428 198 428 246 c 2,17,-1
 428 265 l 2,0,1
522 237 m 2,18,19
 522 116.265625 522 116.265625 453 50.5 c 0,20,21
 389.524590164 -10 389.524590164 -10 287 -10 c 256,22,23
 184.475409836 -10 184.475409836 -10 121 50.5 c 0,24,25
 52 116.265625 52 116.265625 52 237 c 2,26,-1
 52 274 l 2,27,28
 52 394.734375 52 394.734375 121 460.5 c 0,29,30
 184.475409836 521 184.475409836 521 287 521 c 256,31,32
 389.524590164 521 389.524590164 521 453 460.5 c 0,33,34
 522 394.734375 522 394.734375 522 274 c 2,35,-1
 522 237 l 2,18,19
147 720 m 1,36,-1
 237 720 l 1,37,-1
 237 622 l 1,38,-1
 147 622 l 1,39,-1
 147 720 l 1,36,-1
335 720 m 1,40,-1
 426 720 l 1,41,-1
 426 622 l 1,42,-1
 335 622 l 1,43,-1
 335 720 l 1,40,-1
EndSplineSet
EndChar

StartChar: ugrave
Encoding: 249 249 213
Width: 618
Flags: HW
LayerCount: 2
Fore
SplineSet
583 10 m 1,0,1
 553 -10 553 -10 519.5 -10 c 128,-1,2
 486 -10 486 -10 469.5 -3 c 128,-1,3
 453 4 453 4 442.5 15.5 c 0,4,5
 423.19760479 36.6407185629 423.19760479 36.6407185629 421 74 c 1,6,7
 382.133333333 17.4666666667 382.133333333 17.4666666667 310.5 -3 c 0,8,9
 286 -10 286 -10 253.5 -10 c 128,-1,10
 221 -10 221 -10 188 0.5 c 128,-1,11
 155 11 155 11 130.5 32.5 c 0,12,13
 78 78.5714285714 78 78.5714285714 78 167 c 2,14,-1
 78 511 l 1,15,-1
 172 511 l 1,16,-1
 172 184 l 2,17,18
 172 119 172 119 202 92 c 128,-1,19
 232 65 232 65 280 65 c 0,20,21
 334 65 334 65 375 106 c 128,-1,22
 416 147 416 147 416 207 c 2,23,-1
 416 511 l 1,24,-1
 510 511 l 1,25,-1
 510 100 l 2,26,27
 510 81 510 81 518.5 73 c 128,-1,28
 527 65 527 65 538 65 c 256,29,30
 560.6 65 560.6 65 583 79 c 1,31,-1
 583 10 l 1,0,1
268 575 m 1,32,-1
 153 717 l 1,33,-1
 154 720 l 1,34,-1
 243 720 l 1,35,-1
 338 575 l 1,36,-1
 268 575 l 1,32,-1
EndSplineSet
EndChar

StartChar: uacute
Encoding: 250 250 214
Width: 618
Flags: HW
LayerCount: 2
Fore
SplineSet
583 10 m 1,0,1
 553 -10 553 -10 519.5 -10 c 128,-1,2
 486 -10 486 -10 469.5 -3 c 128,-1,3
 453 4 453 4 442.5 15.5 c 0,4,5
 423.19760479 36.6407185629 423.19760479 36.6407185629 421 74 c 1,6,7
 382.133333333 17.4666666667 382.133333333 17.4666666667 310.5 -3 c 0,8,9
 286 -10 286 -10 253.5 -10 c 128,-1,10
 221 -10 221 -10 188 0.5 c 128,-1,11
 155 11 155 11 130.5 32.5 c 0,12,13
 78 78.5714285714 78 78.5714285714 78 167 c 2,14,-1
 78 511 l 1,15,-1
 172 511 l 1,16,-1
 172 184 l 2,17,18
 172 119 172 119 202 92 c 128,-1,19
 232 65 232 65 280 65 c 0,20,21
 334 65 334 65 375 106 c 128,-1,22
 416 147 416 147 416 207 c 2,23,-1
 416 511 l 1,24,-1
 510 511 l 1,25,-1
 510 100 l 2,26,27
 510 81 510 81 518.5 73 c 128,-1,28
 527 65 527 65 538 65 c 256,29,30
 560.6 65 560.6 65 583 79 c 1,31,-1
 583 10 l 1,0,1
259 575 m 1,32,-1
 353 720 l 1,33,-1
 443 720 l 1,34,-1
 444 717 l 1,35,-1
 328 575 l 1,36,-1
 259 575 l 1,32,-1
EndSplineSet
EndChar

StartChar: ucircumflex
Encoding: 251 251 215
Width: 618
Flags: HW
LayerCount: 2
Fore
SplineSet
583 10 m 1,0,1
 553 -10 553 -10 519.5 -10 c 128,-1,2
 486 -10 486 -10 469.5 -3 c 128,-1,3
 453 4 453 4 442.5 15.5 c 0,4,5
 423.19760479 36.6407185629 423.19760479 36.6407185629 421 74 c 1,6,7
 382.133333333 17.4666666667 382.133333333 17.4666666667 310.5 -3 c 0,8,9
 286 -10 286 -10 253.5 -10 c 128,-1,10
 221 -10 221 -10 188 0.5 c 128,-1,11
 155 11 155 11 130.5 32.5 c 0,12,13
 78 78.5714285714 78 78.5714285714 78 167 c 2,14,-1
 78 511 l 1,15,-1
 172 511 l 1,16,-1
 172 184 l 2,17,18
 172 119 172 119 202 92 c 128,-1,19
 232 65 232 65 280 65 c 0,20,21
 334 65 334 65 375 106 c 128,-1,22
 416 147 416 147 416 207 c 2,23,-1
 416 511 l 1,24,-1
 510 511 l 1,25,-1
 510 100 l 2,26,27
 510 81 510 81 518.5 73 c 128,-1,28
 527 65 527 65 538 65 c 256,29,30
 560.6 65 560.6 65 583 79 c 1,31,-1
 583 10 l 1,0,1
253 720 m 1,32,-1
 331 720 l 1,33,-1
 466 575 l 1,34,-1
 386 575 l 1,35,-1
 292 664 l 1,36,-1
 197 575 l 1,37,-1
 117 575 l 1,38,-1
 253 720 l 1,32,-1
EndSplineSet
EndChar

StartChar: udieresis
Encoding: 252 252 216
Width: 618
Flags: HW
LayerCount: 2
Fore
SplineSet
583 10 m 1,0,1
 553 -10 553 -10 519.5 -10 c 128,-1,2
 486 -10 486 -10 469.5 -3 c 128,-1,3
 453 4 453 4 442.5 15.5 c 0,4,5
 423.19760479 36.6407185629 423.19760479 36.6407185629 421 74 c 1,6,7
 382.133333333 17.4666666667 382.133333333 17.4666666667 310.5 -3 c 0,8,9
 286 -10 286 -10 253.5 -10 c 128,-1,10
 221 -10 221 -10 188 0.5 c 128,-1,11
 155 11 155 11 130.5 32.5 c 0,12,13
 78 78.5714285714 78 78.5714285714 78 167 c 2,14,-1
 78 511 l 1,15,-1
 172 511 l 1,16,-1
 172 184 l 2,17,18
 172 119 172 119 202 92 c 128,-1,19
 232 65 232 65 280 65 c 0,20,21
 334 65 334 65 375 106 c 128,-1,22
 416 147 416 147 416 207 c 2,23,-1
 416 511 l 1,24,-1
 510 511 l 1,25,-1
 510 100 l 2,26,27
 510 81 510 81 518.5 73 c 128,-1,28
 527 65 527 65 538 65 c 256,29,30
 560.6 65 560.6 65 583 79 c 1,31,-1
 583 10 l 1,0,1
155 720 m 1,32,-1
 245 720 l 1,33,-1
 245 622 l 1,34,-1
 155 622 l 1,35,-1
 155 720 l 1,32,-1
343 720 m 1,36,-1
 434 720 l 1,37,-1
 434 622 l 1,38,-1
 343 622 l 1,39,-1
 343 720 l 1,36,-1
EndSplineSet
EndChar

StartChar: yacute
Encoding: 253 253 217
Width: 512
Flags: HW
LayerCount: 2
Fore
SplineSet
47 -95 m 1,0,1
 77.8 -109 77.8 -109 96.9 -109 c 128,-1,2
 116 -109 116 -109 129 -105.5 c 128,-1,3
 142 -102 142 -102 156 -90 c 0,4,5
 190.278350515 -60.618556701 190.278350515 -60.618556701 211 5 c 1,6,-1
 12 511 l 1,7,-1
 112 511 l 1,8,-1
 259 134 l 1,9,-1
 263 134 l 1,10,-1
 408 511 l 1,11,-1
 500 511 l 1,12,-1
 309 20 l 1,13,14
 267.369936034 -82.8507462687 267.369936034 -82.8507462687 239.184968017 -117.925373134 c 128,-1,15
 211 -153 211 -153 183 -169.5 c 128,-1,16
 155 -186 155 -186 116.5 -186 c 128,-1,17
 78 -186 78 -186 47 -172 c 1,18,-1
 47 -95 l 1,0,1
222 575 m 1,19,-1
 316 720 l 1,20,-1
 406 720 l 1,21,-1
 407 717 l 1,22,-1
 291 575 l 1,23,-1
 222 575 l 1,19,-1
EndSplineSet
EndChar

StartChar: ydieresis
Encoding: 255 255 218
Width: 512
Flags: HW
LayerCount: 2
Fore
SplineSet
47 -95 m 1,0,1
 77.8 -109 77.8 -109 96.9 -109 c 128,-1,2
 116 -109 116 -109 129 -105.5 c 128,-1,3
 142 -102 142 -102 156 -90 c 0,4,5
 190.278350515 -60.618556701 190.278350515 -60.618556701 211 5 c 1,6,-1
 12 511 l 1,7,-1
 112 511 l 1,8,-1
 259 134 l 1,9,-1
 263 134 l 1,10,-1
 408 511 l 1,11,-1
 500 511 l 1,12,-1
 309 20 l 1,13,14
 267.369936034 -82.8507462687 267.369936034 -82.8507462687 239.184968017 -117.925373134 c 128,-1,15
 211 -153 211 -153 183 -169.5 c 128,-1,16
 155 -186 155 -186 116.5 -186 c 128,-1,17
 78 -186 78 -186 47 -172 c 1,18,-1
 47 -95 l 1,0,1
120 720 m 1,19,-1
 210 720 l 1,20,-1
 210 622 l 1,21,-1
 120 622 l 1,22,-1
 120 720 l 1,19,-1
308 720 m 1,23,-1
 399 720 l 1,24,-1
 399 622 l 1,25,-1
 308 622 l 1,26,-1
 308 720 l 1,23,-1
EndSplineSet
EndChar

StartChar: pi
Encoding: 960 960 219
Width: 628
Flags: HW
LayerCount: 2
Fore
SplineSet
20 482 m 1,0,1
 61.4285714286 511 61.4285714286 511 181 511 c 2,2,-1
 604 511 l 1,3,-1
 595 437 l 1,4,-1
 508 437 l 1,5,-1
 508 152 l 2,6,7
 508 47.1428571429 508 47.1428571429 523 0 c 1,8,-1
 434 0 l 1,9,10
 417 25.5 417 25.5 417 143 c 2,11,-1
 417 437 l 1,12,-1
 243 437 l 1,13,14
 235.387434555 258.104712042 235.387434555 258.104712042 196.5 87 c 0,15,16
 184 32 184 32 171 0 c 1,17,-1
 81 0 l 1,18,19
 123.65442404 118.823038397 123.65442404 118.823038397 145 330.5 c 0,20,21
 151 390 151 390 152 437 c 1,22,23
 69 437 69 437 33 425 c 1,24,-1
 20 482 l 1,0,1
EndSplineSet
EndChar

StartChar: lessequal
Encoding: 8804 8804 220
Width: 615
Flags: HW
LayerCount: 2
Fore
SplineSet
559 104 m 1,0,1
 189 216.734375 189 216.734375 50 258 c 1,2,-1
 50 365 l 1,3,4
 178 404 178 404 304.5 443 c 128,-1,5
 431 482 431 482 559 520 c 1,6,-1
 559 430 l 1,7,8
 256 345.833333333 256 345.833333333 130 312 c 1,9,10
 433 227.833333333 433 227.833333333 559 194 c 1,11,-1
 559 104 l 1,0,1
49 83 m 1,12,-1
 559 83 l 1,13,-1
 559 0 l 1,14,-1
 49 0 l 1,15,-1
 49 83 l 1,12,-1
EndSplineSet
EndChar

StartChar: greaterequal
Encoding: 8805 8805 221
Width: 615
Flags: HW
LayerCount: 2
Fore
SplineSet
56 520 m 1,0,1
 67 516.734375 67 516.734375 565 365 c 1,2,-1
 565 258 l 1,3,4
 426 216.734375 426 216.734375 56 104 c 1,5,-1
 56 194 l 1,6,7
 187.692307692 229.692307692 187.692307692 229.692307692 484 312 c 1,8,9
 315.299270073 357.299270073 315.299270073 357.299270073 56 430 c 1,10,-1
 56 520 l 1,0,1
566 0 m 1,11,-1
 56 0 l 1,12,-1
 56 83 l 1,13,-1
 566 83 l 1,14,-1
 566 0 l 1,11,-1
EndSplineSet
EndChar

StartChar: lozenge
Encoding: 9674 9674 222
Width: 490
Flags: HW
LayerCount: 2
Fore
SplineSet
194 0 m 1,0,-1
 29 343 l 1,1,-1
 194 686 l 1,2,-1
 297 686 l 1,3,-1
 461 343 l 1,4,-1
 297 0 l 1,5,-1
 194 0 l 1,0,-1
246 611 m 1,6,7
 112 343 l 1,8,-1
 246 74 l 1,9,10
 312 209 312 209 379 343 c 1,11,12
 311.673267327 475.673267327 311.673267327 475.673267327 246 611 c 1,6,7
EndSplineSet
EndChar

StartChar: infinity
Encoding: 8734 8734 223
Width: 764
Flags: HW
LayerCount: 2
Fore
SplineSet
726 281.5 m 0,0,1
 726 244 726 244 712.5 212.5 c 128,-1,2
 699 181 699 181 676.5 159 c 0,3,4
 629.454545455 113 629.454545455 113 566 113 c 0,5,6
 521 113 521 113 477.5 138.5 c 128,-1,7
 434 164 434 164 381 229 c 1,8,9
 329.803827751 170.124401914 329.803827751 170.124401914 302.401913876 151.062200957 c 0,10,11
 247.6875 113 247.6875 113 192 113 c 256,12,13
 129.431818182 113 129.431818182 113 83.5 160 c 0,14,15
 37 207.581395349 37 207.581395349 37 279 c 0,16,17
 37 351.837209302 37 351.837209302 83.5 400.5 c 0,18,19
 128.888888889 448 128.888888889 448 193.444444444 448 c 128,-1,20
 258 448 258 448 302.5 415 c 128,-1,21
 347 382 347 382 386 333 c 1,22,23
 406 353 406 353 425 373.5 c 128,-1,24
 444 394 444 394 465.5 410.5 c 0,25,26
 514.363636364 448 514.363636364 448 571 448 c 0,27,28
 638.704545455 448 638.704545455 448 682.5 401 c 0,29,30
 726 354.317073171 726 354.317073171 726 281.5 c 0,0,1
349 276 m 1,31,32
 275.666666667 386 275.666666667 386 195 386 c 0,33,34
 151 386 151 386 125 355 c 128,-1,35
 99 324 99 324 99 278 c 0,36,37
 99 236.153846154 99 236.153846154 127 206 c 128,-1,38
 154.857142857 176 154.857142857 176 200 176 c 0,39,40
 253.34375 176 253.34375 176 310.5 235 c 0,41,42
 326 251 326 251 340 266 c 2,43,-1
 349 276 l 1,31,32
566 386 m 0,44,45
 510.6 386 510.6 386 445.5 312.5 c 0,46,47
 430 295 430 295 417 282 c 1,48,49
 466.135135135 222.628378378 466.135135135 222.628378378 491.067567568 205.314189189 c 0,50,51
 533.28 176 533.28 176 562.14 176 c 128,-1,52
 591 176 591 176 608.5 185.5 c 128,-1,53
 626 195 626 195 638 209.5 c 0,54,55
 663 239.708333333 663 239.708333333 663 283.854166667 c 128,-1,56
 663 328 663 328 635.5 357 c 128,-1,57
 608 386 608 386 566 386 c 0,44,45
EndSplineSet
EndChar

StartChar: radical
Encoding: 8730 8730 224
Width: 566
Flags: HW
LayerCount: 2
Fore
SplineSet
243 -148 m 1,0,1
 151.189189189 89 151.189189189 89 74 293 c 1,2,-1
 -3 263 l 1,3,-1
 -23 323 l 1,4,-1
 139 391 l 1,5,6
 170 303 170 303 202 217.5 c 128,-1,7
 234 132 234 132 254 77.5 c 128,-1,8
 274 23 274 23 278.5 4.5 c 128,-1,9
 283 -14 283 -14 287 -30 c 1,10,11
 341 181 341 181 392 391.5 c 128,-1,12
 443 602 443 602 495 813 c 1,13,-1
 575 813 l 1,14,-1
 333 -148 l 1,15,-1
 243 -148 l 1,0,1
EndSplineSet
EndChar

StartChar: notequal
Encoding: 8800 8800 225
Width: 615
Flags: HW
LayerCount: 2
Fore
SplineSet
365 401 m 1,0,-1
 443 511 l 1,1,-1
 522 511 l 1,2,-1
 446 401 l 1,3,-1
 559 401 l 1,4,-1
 559 318 l 1,5,-1
 393 318 l 1,6,7
 370 286 370 286 347.5 253.5 c 128,-1,8
 325 221 325 221 302 189 c 1,9,-1
 559 189 l 1,10,-1
 559 105 l 1,11,-1
 250 105 l 1,12,-1
 176 0 l 1,13,-1
 94 0 l 1,14,15
 143.153846154 71 143.153846154 71 168 105 c 1,16,-1
 56 105 l 1,17,-1
 56 189 l 1,18,-1
 221 189 l 1,19,-1
 312 318 l 1,20,-1
 56 318 l 1,21,-1
 56 401 l 1,22,-1
 365 401 l 1,0,-1
EndSplineSet
EndChar

StartChar: approxequal
Encoding: 8776 8776 226
Width: 615
Flags: HW
LayerCount: 2
Fore
SplineSet
589 360 m 1,0,1
 550.714285714 317.885714286 550.714285714 317.885714286 491 294 c 0,2,3
 461 282 461 282 427.5 282 c 128,-1,4
 394 282 394 282 365.5 292.5 c 128,-1,5
 337 303 337 303 308.5 315 c 128,-1,6
 280 327 280 327 250.5 337.5 c 128,-1,7
 221 348 221 348 186.5 348 c 0,8,9
 132.285714286 348 132.285714286 348 71 309 c 1,10,11
 45 291 45 291 25 270 c 1,12,-1
 25 355 l 1,13,14
 45 376 45 376 69 392 c 0,15,16
 130.5 433 130.5 433 188 433 c 0,17,18
 220 433 220 433 248.5 422.5 c 128,-1,19
 277 412 277 412 305.5 400 c 128,-1,20
 334 388 334 388 363.5 377.5 c 128,-1,21
 393 367 393 367 427 367 c 0,22,23
 485.8 367 485.8 367 543 406 c 0,24,25
 569 423 569 423 589 445 c 1,26,-1
 589 360 l 1,0,1
589 151 m 1,27,28
 550.714285714 108.885714286 550.714285714 108.885714286 491 85 c 0,29,30
 461 73 461 73 427.5 73 c 128,-1,31
 394 73 394 73 365.5 83.5 c 128,-1,32
 337 94 337 94 308.5 106 c 128,-1,33
 280 118 280 118 250.5 128.5 c 128,-1,34
 221 139 221 139 186.5 139 c 0,35,36
 132.285714286 139 132.285714286 139 71 100 c 1,37,38
 45 82 45 82 25 61 c 1,39,-1
 25 146 l 1,40,41
 45 167 45 167 69 183 c 0,42,43
 130.5 224 130.5 224 188 224 c 0,44,45
 220 224 220 224 248.5 213.5 c 128,-1,46
 277 203 277 203 305.5 191 c 128,-1,47
 334 179 334 179 363.5 168.5 c 128,-1,48
 393 158 393 158 427 158 c 0,49,50
 485.8 158 485.8 158 543 197 c 0,51,52
 569 214 569 214 589 236 c 1,53,-1
 589 151 l 1,27,28
EndSplineSet
EndChar

StartChar: Delta
Encoding: 8710 8710 227
Width: 622
Flags: HW
LayerCount: 2
Fore
SplineSet
25 65 m 1,0,-1
 259 686 l 1,1,-1
 362 686 l 1,2,-1
 597 65 l 1,3,-1
 597 0 l 1,4,-1
 25 0 l 1,5,-1
 25 65 l 1,0,-1
113 75 m 1,6,-1
 509 75 l 1,7,-1
 311 597 l 1,8,-1
 113 75 l 1,6,-1
EndSplineSet
EndChar

StartChar: currency
Encoding: 164 164 228
Width: 624
Flags: HW
LayerCount: 2
Fore
SplineSet
115 186 m 1,0,1
 64 254 64 254 64 335.717391304 c 128,-1,2
 64 417.434782609 64 417.434782609 114 487 c 1,3,-1
 63 539 l 1,4,-1
 111 587 l 1,5,-1
 162 535 l 1,6,7
 231.565217391 585 231.565217391 585 312.615942029 585 c 128,-1,8
 393.666666667 585 393.666666667 585 463 533 c 1,9,-1
 517 587 l 1,10,-1
 565 539 l 1,11,-1
 511 485 l 1,12,13
 560 416.826086957 560 416.826086957 560 337 c 256,14,15
 560 255 560 255 509 187 c 1,16,-1
 564 133 l 1,17,-1
 516 85 l 1,18,-1
 461 139 l 1,19,20
 393.608695652 89 393.608695652 89 312 89 c 256,21,22
 231.173913043 89 231.173913043 89 163 138 c 1,23,-1
 110 85 l 1,24,-1
 62 133 l 1,25,-1
 115 186 l 1,0,1
133 337 m 256,26,27
 133 263 133 263 185.5 210.5 c 128,-1,28
 238 158 238 158 312 158 c 256,29,30
 386 158 386 158 438.5 210.5 c 128,-1,31
 491 263 491 263 491 337 c 256,32,33
 491 411 491 411 438.5 463.5 c 128,-1,34
 386 516 386 516 312 516 c 256,35,36
 238 516 238 516 185.5 463.5 c 128,-1,37
 133 411 133 411 133 337 c 256,26,27
EndSplineSet
EndChar

StartChar: uni00AD
Encoding: 173 173 229
Width: 391
Flags: HW
LayerCount: 2
Fore
SplineSet
69 319 m 1,0,-1
 322 319 l 1,1,-1
 322 221 l 1,2,-1
 69 221 l 1,3,-1
 69 319 l 1,0,-1
EndSplineSet
EndChar

StartChar: Scaron
Encoding: 352 352 230
Width: 627
Flags: HW
LayerCount: 2
Fore
SplineSet
151 215 m 1,0,-1
 150 194 l 1,1,2
 150 135 150 135 194.5 107 c 128,-1,3
 239 79 239 79 314 79 c 128,-1,4
 389 79 389 79 432.5 106.5 c 128,-1,5
 476 134 476 134 476 182 c 128,-1,6
 476 230 476 230 446 252.5 c 128,-1,7
 416 275 416 275 370.5 289 c 128,-1,8
 325 303 325 303 272 315 c 128,-1,9
 219 327 219 327 173.5 349 c 128,-1,10
 128 371 128 371 98 408 c 128,-1,11
 68 445 68 445 68 501 c 128,-1,12
 68 557 68 557 87.5 592 c 128,-1,13
 107 627 107 627 140.5 650.5 c 0,14,15
 205.361702128 696 205.361702128 696 314 696 c 0,16,17
 420.434782609 696 420.434782609 696 485 651 c 0,18,19
 556 601.515151515 556 601.515151515 556 504 c 2,20,-1
 556 492 l 1,21,-1
 458 492 l 1,22,-1
 458 507 l 2,23,24
 458 556 458 556 418 581.5 c 128,-1,25
 378 607 378 607 316 607 c 0,26,27
 211.323529412 607 211.323529412 607 177.5 557 c 0,28,29
 166 540 166 540 166 516 c 0,30,31
 166 476 166 476 196 455 c 128,-1,32
 226 434 226 434 271.5 420 c 128,-1,33
 317 406 317 406 370 393.5 c 128,-1,34
 423 381 423 381 468.5 359.5 c 128,-1,35
 514 338 514 338 544 301.5 c 128,-1,36
 574 265 574 265 574 204.5 c 128,-1,37
 574 144 574 144 554 103.5 c 128,-1,38
 534 63 534 63 499 38 c 0,39,40
 431.8 -10 431.8 -10 313 -10 c 0,41,42
 132.230769231 -10 132.230769231 -10 73 100 c 0,43,44
 52 139 52 139 52 195 c 1,45,-1
 53 215 l 1,46,-1
 151 215 l 1,0,-1
141 895 m 1,47,-1
 221 895 l 1,48,-1
 316 806 l 1,49,-1
 410 895 l 1,50,-1
 490 895 l 1,51,-1
 355 750 l 1,52,-1
 277 750 l 1,53,-1
 141 895 l 1,47,-1
EndSplineSet
EndChar

StartChar: scaron
Encoding: 353 353 231
Width: 534
Flags: HW
LayerCount: 2
Fore
SplineSet
45 138 m 1,0,-1
 46 160 l 1,1,-1
 139 160 l 1,2,-1
 139 150 l 2,3,4
 139 86.6666666667 139 86.6666666667 219 70 c 0,5,6
 243 65 243 65 282 65 c 128,-1,7
 321 65 321 65 356 83.5 c 128,-1,8
 391 102 391 102 391 136 c 128,-1,9
 391 170 391 170 366.5 185.5 c 128,-1,10
 342 201 342 201 305 209.5 c 128,-1,11
 268 218 268 218 225.5 225 c 128,-1,12
 183 232 183 232 146 247.5 c 128,-1,13
 109 263 109 263 84.5 290.5 c 128,-1,14
 60 318 60 318 60 369 c 0,15,16
 60 440 60 440 116 480.5 c 128,-1,17
 172 521 172 521 269 521 c 2,18,-1
 278 521 l 2,19,20
 367.052631579 521 367.052631579 521 421 480 c 0,21,22
 473 440.48 473 440.48 473 382 c 1,23,-1
 472 364 l 1,24,-1
 379 364 l 1,25,-1
 379 373 l 2,26,27
 379 446 379 446 266 446 c 0,28,29
 175.375 446 175.375 446 158.5 401 c 0,30,31
 154 389 154 389 154 379 c 0,32,33
 154 351 154 351 178.5 337 c 128,-1,34
 203 323 203 323 240 315 c 128,-1,35
 277 307 277 307 319.5 299.5 c 128,-1,36
 362 292 362 292 399 276.5 c 0,37,38
 485 240.472972973 485 240.472972973 485 154 c 0,39,40
 485 66.8983050847 485 66.8983050847 421.5 26 c 0,41,42
 365.605263158 -10 365.605263158 -10 268 -10 c 2,43,-1
 253 -10 l 2,44,45
 151.357142857 -10 151.357142857 -10 95.5 36 c 0,46,47
 45 77.5882352941 45 77.5882352941 45 138 c 1,0,-1
91 720 m 1,48,-1
 171 720 l 1,49,-1
 266 631 l 1,50,-1
 360 720 l 1,51,-1
 440 720 l 1,52,-1
 305 575 l 1,53,-1
 227 575 l 1,54,-1
 91 720 l 1,48,-1
EndSplineSet
EndChar

StartChar: Ydieresis
Encoding: 376 376 232
Width: 572
Flags: HW
LayerCount: 2
Fore
SplineSet
335 265 m 1,0,-1
 335 0 l 1,1,-1
 237 0 l 1,2,-1
 237 265 l 1,3,-1
 -5 686 l 1,4,-1
 107 686 l 1,5,-1
 290 367 l 1,6,-1
 294 367 l 1,7,-1
 475 686 l 1,8,-1
 576 686 l 1,9,-1
 335 265 l 1,0,-1
158 847 m 1,10,-1
 248 847 l 1,11,-1
 248 749 l 1,12,-1
 158 749 l 1,13,-1
 158 847 l 1,10,-1
346 847 m 1,14,-1
 437 847 l 1,15,-1
 437 749 l 1,16,-1
 346 749 l 1,17,-1
 346 847 l 1,14,-1
EndSplineSet
EndChar

StartChar: Zcaron
Encoding: 381 381 233
Width: 596
Flags: HW
LayerCount: 2
Fore
SplineSet
32 0 m 1,0,-1
 32 38 l 1,1,-1
 397 597 l 1,2,-1
 56 597 l 1,3,-1
 56 686 l 1,4,-1
 547 686 l 1,5,-1
 547 648 l 1,6,-1
 181 89 l 1,7,-1
 555 89 l 1,8,-1
 555 0 l 1,9,-1
 32 0 l 1,0,-1
125 895 m 1,10,-1
 205 895 l 1,11,-1
 300 806 l 1,12,-1
 394 895 l 1,13,-1
 474 895 l 1,14,-1
 339 750 l 1,15,-1
 261 750 l 1,16,-1
 125 895 l 1,10,-1
EndSplineSet
EndChar

StartChar: zcaron
Encoding: 382 382 234
Width: 463
Flags: HW
LayerCount: 2
Fore
SplineSet
36 0 m 1,0,-1
 36 38 l 1,1,-1
 285 436 l 1,2,-1
 51 436 l 1,3,-1
 51 511 l 1,4,-1
 415 511 l 1,5,-1
 415 474 l 1,6,-1
 165 75 l 1,7,-1
 423 75 l 1,8,-1
 423 0 l 1,9,-1
 36 0 l 1,0,-1
57 720 m 1,10,-1
 137 720 l 1,11,-1
 232 631 l 1,12,-1
 326 720 l 1,13,-1
 406 720 l 1,14,-1
 271 575 l 1,15,-1
 193 575 l 1,16,-1
 57 720 l 1,10,-1
EndSplineSet
EndChar

StartChar: integral
Encoding: 8747 8747 235
Width: 267
Flags: HW
LayerCount: 2
Fore
SplineSet
111 -142 m 0,0,1
 84 455.375 84 455.375 84 638 c 0,2,3
 84 701.170212766 84 701.170212766 138.5 729 c 0,4,5
 179.625 750 179.625 750 242 750 c 1,6,-1
 242 701 l 1,7,8
 214.923076923 701 214.923076923 701 194.461538462 691.5 c 0,9,10
 155 673.178571429 155 673.178571429 155 644 c 1,11,12
 183 17.5 183 17.5 183 -138 c 0,13,14
 183 -201.826086957 183 -201.826086957 129 -230 c 0,15,16
 90.6666666667 -250 90.6666666667 -250 26 -250 c 1,17,-1
 26 -200 l 1,18,19
 75.5909090909 -200 75.5909090909 -200 101.5 -170 c 0,20,21
 111 -159 111 -159 111 -142 c 0,0,1
EndSplineSet
EndChar

StartChar: partialdiff
Encoding: 8706 8706 236
Width: 565
Flags: HW
LayerCount: 2
Fore
SplineSet
172 696 m 1,0,-1
 275 696 l 2,1,2
 372.548387097 696 372.548387097 696 436.5 631 c 0,3,4
 501 565.442622951 501 565.442622951 501 464 c 2,5,-1
 501 221 l 2,6,7
 501 117.888888889 501 117.888888889 434.5 53.5 c 0,8,9
 368.918032787 -10 368.918032787 -10 268 -10 c 2,10,-1
 260 -10 l 2,11,12
 159.6 -10 159.6 -10 94.5 52 c 0,13,14
 28 115.333333333 28 115.333333333 28 218 c 0,15,16
 28 313.677966102 28 313.677966102 90.5 373 c 0,17,18
 151.607142857 431 151.607142857 431 245 431 c 0,19,20
 290 431 290 431 333.5 412 c 128,-1,21
 377 393 377 393 405 357 c 1,22,-1
 405 477 l 2,23,24
 405 527.833333333 405 527.833333333 366 569 c 128,-1,25
 327.157894737 610 327.157894737 610 270 610 c 2,26,-1
 172 610 l 1,27,-1
 172 696 l 1,0,-1
405 225 m 2,28,29
 405 282.105263158 405 282.105263158 365 320 c 128,-1,30
 324.888888889 358 324.888888889 358 263 358 c 0,31,32
 203.111111111 358 203.111111111 358 163 320 c 128,-1,33
 123 282.105263158 123 282.105263158 123 225 c 2,34,-1
 123 205 l 2,35,36
 123 147.894736842 123 147.894736842 163 110 c 128,-1,37
 203.111111111 72 203.111111111 72 265 72 c 0,38,39
 324.888888889 72 324.888888889 72 365 110 c 128,-1,40
 405 147.894736842 405 147.894736842 405 205 c 2,41,-1
 405 225 l 2,28,29
EndSplineSet
EndChar

StartChar: Omega
Encoding: 8486 8486 237
Width: 699
Flags: HW
LayerCount: 2
Fore
SplineSet
635 337 m 2,0,1
 635 168 635 168 536 80 c 1,2,3
 578 84 578 84 620 90 c 1,4,-1
 655 90 l 1,5,-1
 655 0 l 1,6,-1
 391 0 l 1,7,-1
 391 49 l 1,8,9
 461 62 461 62 496 118.5 c 128,-1,10
 531 175 531 175 531 297 c 2,11,-1
 531 375 l 2,12,13
 531 562.029850746 531 562.029850746 424.5 597 c 0,14,15
 391 608 391 608 349 608 c 128,-1,16
 307 608 307 608 274 596 c 128,-1,17
 241 584 241 584 218 556 c 0,18,19
 171 498.782608696 171 498.782608696 171 375 c 2,20,-1
 171 297 l 2,21,22
 171 123.346153846 171 123.346153846 248 73 c 0,23,24
 274 56 274 56 309 49 c 1,25,-1
 309 0 l 1,26,-1
 45 0 l 1,27,-1
 45 90 l 1,28,-1
 80 90 l 1,29,30
 100 87 100 87 120 85 c 128,-1,31
 140 83 140 83 165 80 c 1,32,33
 67 163.086956522 67 163.086956522 67 345 c 2,34,-1
 67 370 l 2,35,36
 67 536.28 67 536.28 147.5 620 c 0,37,38
 219.615384615 695 219.615384615 695 342 695 c 2,39,-1
 359 695 l 2,40,41
 550.219512195 695 550.219512195 695 613 519.5 c 0,42,43
 635 458 635 458 635 370 c 2,44,-1
 635 337 l 2,0,1
EndSplineSet
EndChar

StartChar: product
Encoding: 8719 8719 238
Width: 749
Flags: HW
LayerCount: 2
Fore
SplineSet
610 611 m 1,0,-1
 610 -98 l 1,1,-1
 508 -98 l 1,2,-1
 508 611 l 1,3,-1
 241 611 l 1,4,-1
 241 -98 l 1,5,-1
 139 -98 l 1,6,-1
 139 611 l 1,7,-1
 24 611 l 1,8,-1
 24 708 l 1,9,-1
 725 708 l 1,10,-1
 725 611 l 1,11,-1
 610 611 l 1,0,-1
EndSplineSet
EndChar

StartChar: summation
Encoding: 8721 8721 239
Width: 606
Flags: HW
LayerCount: 2
Fore
SplineSet
27 -98 m 1,0,-1
 27 -35 l 1,1,-1
 303 306 l 1,2,-1
 39 642 l 1,3,-1
 39 708 l 1,4,-1
 558 708 l 1,5,-1
 558 613 l 1,6,-1
 189 613 l 1,7,-1
 189 609 l 1,8,-1
 420 318 l 1,9,-1
 168 8 l 1,10,-1
 169 4 l 1,11,-1
 576 4 l 1,12,-1
 576 -98 l 1,13,-1
 27 -98 l 1,0,-1
EndSplineSet
EndChar

StartChar: igrave
Encoding: 236 236 241
Width: 260
Flags: HW
LayerCount: 2
Fore
SplineSet
83 0 m 1,0,-1
 83 511 l 1,1,-1
 177 511 l 1,2,-1
 177 0 l 1,3,-1
 83 0 l 1,0,-1
106 575 m 1,4,-1
 -9 717 l 1,5,-1
 -8 720 l 1,6,-1
 81 720 l 1,7,-1
 176 575 l 1,8,-1
 106 575 l 1,4,-1
EndSplineSet
EndChar

StartChar: iacute
Encoding: 237 237 242
Width: 260
Flags: HW
LayerCount: 2
Fore
SplineSet
83 0 m 1,0,-1
 83 511 l 1,1,-1
 177 511 l 1,2,-1
 177 0 l 1,3,-1
 83 0 l 1,0,-1
85 575 m 1,4,-1
 179 720 l 1,5,-1
 269 720 l 1,6,-1
 270 717 l 1,7,-1
 154 575 l 1,8,-1
 85 575 l 1,4,-1
EndSplineSet
EndChar

StartChar: icircumflex
Encoding: 238 238 243
Width: 260
Flags: HW
LayerCount: 2
Fore
SplineSet
83 0 m 1,0,-1
 83 511 l 1,1,-1
 177 511 l 1,2,-1
 177 0 l 1,3,-1
 83 0 l 1,0,-1
92 720 m 1,4,-1
 170 720 l 1,5,-1
 305 575 l 1,6,-1
 225 575 l 1,7,-1
 131 664 l 1,8,-1
 36 575 l 1,9,-1
 -44 575 l 1,10,-1
 92 720 l 1,4,-1
EndSplineSet
EndChar

StartChar: idieresis
Encoding: 239 239 244
Width: 260
Flags: HW
LayerCount: 2
Fore
SplineSet
83 0 m 1,0,-1
 83 511 l 1,1,-1
 177 511 l 1,2,-1
 177 0 l 1,3,-1
 83 0 l 1,0,-1
-9 720 m 1,4,-1
 81 720 l 1,5,-1
 81 622 l 1,6,-1
 -9 622 l 1,7,-1
 -9 720 l 1,4,-1
179 720 m 1,8,-1
 270 720 l 1,9,-1
 270 622 l 1,10,-1
 179 622 l 1,11,-1
 179 720 l 1,8,-1
EndSplineSet
EndChar

StartChar: fi
Encoding: 64257 64257 245
Width: 601
Flags: HW
LayerCount: 2
Fore
SplineSet
103 580 m 2,0,1
 103 728 103 728 221.5 728 c 0,2,3
 278 728 278 728 316 709 c 1,4,-1
 316 640 l 1,5,6
 284.8 653 284.8 653 264.4 653 c 128,-1,7
 244 653 244 653 234 651 c 128,-1,8
 224 649 224 649 215.5 642.5 c 0,9,10
 197 628.352941176 197 628.352941176 197 590 c 2,11,-1
 197 511 l 1,12,-1
 316 511 l 1,13,-1
 316 436 l 1,14,-1
 197 436 l 1,15,-1
 197 0 l 1,16,-1
 103 0 l 1,17,-1
 103 436 l 1,18,-1
 47 436 l 1,19,-1
 47 511 l 1,20,-1
 103 511 l 1,21,-1
 103 580 l 2,0,1
426 0 m 1,22,-1
 426 511 l 1,23,-1
 520 511 l 1,24,-1
 520 0 l 1,25,-1
 426 0 l 1,22,-1
424 720 m 1,26,-1
 522 720 l 1,27,-1
 522 633 l 1,28,-1
 424 633 l 1,29,-1
 424 720 l 1,26,-1
EndSplineSet
EndChar

StartChar: fl
Encoding: 64258 64258 246
Width: 607
Flags: HW
LayerCount: 2
Fore
SplineSet
103 580 m 2,0,1
 103 728 103 728 221.5 728 c 0,2,3
 278 728 278 728 316 709 c 1,4,-1
 316 640 l 1,5,6
 284.8 653 284.8 653 264.4 653 c 128,-1,7
 244 653 244 653 234 651 c 128,-1,8
 224 649 224 649 215.5 642.5 c 0,9,10
 197 628.352941176 197 628.352941176 197 590 c 2,11,-1
 197 511 l 1,12,-1
 316 511 l 1,13,-1
 316 436 l 1,14,-1
 197 436 l 1,15,-1
 197 0 l 1,16,-1
 103 0 l 1,17,-1
 103 436 l 1,18,-1
 47 436 l 1,19,-1
 47 511 l 1,20,-1
 103 511 l 1,21,-1
 103 580 l 2,0,1
426 0 m 1,22,-1
 426 720 l 1,23,-1
 520 720 l 1,24,-1
 520 0 l 1,25,-1
 426 0 l 1,22,-1
EndSplineSet
EndChar
